0
SECTION
2
HEADER
9
$INSUNITS
70
4
9
$ACADVER
1
AC1014
9
$HANDSEED
5
FFFF
0
ENDSEC
0
SECTION
2
TABLES
0
TABLE
2
VPORT
5
8
100
AcDbSymbolTable
0
ENDTAB
0
TABLE
2
LTYPE
5
5
100
AcDbSymbolTable
0
LTYPE
5
14
100
AcDbSymbolTableRecord
100
AcDbLinetypeTableRecord
2
BYBLOCK
70
0
0
LTYPE
5
15
100
AcDbSymbolTableRecord
100
AcDbLinetypeTableRecord
2
BYLAYER
70
0
0
ENDTAB
0
TABLE
2
LAYER
5
2
100
AcDbSymbolTable
70
2
0
LAYER
5
50
100
AcDbSymbolTableRecord
100
AcDbLayerTableRecord
2
0
70
0
6
CONTINUOUS
0
ENDTAB
0
TABLE
2
STYLE
5
3
100
AcDbSymbolTable
70
1
0
STYLE
5
11
100
AcDbSymbolTableRecord
100
AcDbTextStyleTableRecord
2
STANDARD
70
0
0
ENDTAB
0
TABLE
2
VIEW
5
6
100
AcDbSymbolTable
70
0
0
ENDTAB
0
TABLE
2
UCS
5
7
100
AcDbSymbolTable
70
0
0
ENDTAB
0
TABLE
2
APPID
5
9
100
AcDbSymbolTable
70
2
0
APPID
5
12
100
AcDbSymbolTableRecord
100
AcDbRegAppTableRecord
2
ACAD
70
0
0
ENDTAB
0
TABLE
2
DIMSTYLE
5
A
100
AcDbSymbolTable
70
1
0
ENDTAB
0
TABLE
2
BLOCK_RECORD
5
1
100
AcDbSymbolTable
70
1
0
BLOCK_RECORD
5
1F
100
AcDbSymbolTableRecord
100
AcDbBlockTableRecord
2
*MODEL_SPACE
0
BLOCK_RECORD
5
1B
100
AcDbSymbolTableRecord
100
AcDbBlockTableRecord
2
*PAPER_SPACE
0
ENDTAB
0
ENDSEC
0
SECTION
2
BLOCKS
0
BLOCK
5
20
100
AcDbEntity
100
AcDbBlockBegin
2
*MODEL_SPACE
0
ENDBLK
5
21
100
AcDbEntity
100
AcDbBlockEnd
0
BLOCK
5
1C
100
AcDbEntity
100
AcDbBlockBegin
2
*PAPER_SPACE
0
ENDBLK
5
1D
100
AcDbEntity
100
AcDbBlockEnd
0
ENDSEC
0
SECTION
2
ENTITIES
0
CIRCLE
5
100
100
AcDbEntity
8
0
100
AcDbCircle
10
93.237289025814391
20
59.377469160812993
30
0
40
2.4000000000000021
210
0
220
-0
230
1
0
CIRCLE
5
101
100
AcDbEntity
8
0
100
AcDbCircle
10
-93.237289025814391
20
59.377469160812993
30
0
40
2.4000000000000021
210
0
220
-0
230
1
0
LWPOLYLINE
5
102
100
AcDbEntity
8
0
100
AcDbPolyline
90
16
70
1
43
0.0
10
-54.297037253409506
20
-63.706740470935124
42
0.1665667905877668
10
-48.814253238728043
20
-60.247564777000349
10
-42.930324159367778
20
-52.939366767218416
42
-0.22702001407069636
10
-35.141103294893099
20
-49.210573853930853
10
35.141103294893071
20
-49.210573853930853
42
-0.22702001407069625
10
42.930324159367743
20
-52.939366767218416
10
48.814253238728007
20
-60.247564777000342
42
0.16656679058776461
10
54.297037253409442
20
-63.706740470935117
10
98.067440931276451
20
-74.081838167373476
42
-0.55334854400244338
10
100.79079140663482
20
-82.104910740005209
42
-0.015278161608700025
10
95.588528703533427
20
-88.106941725914908
42
-0.20951326084283017
10
80.882601210682168
20
-94.552027614235655
10
-80.882601210682168
20
-94.552027614235655
42
-0.20951326084283006
10
-95.588528703533314
20
-88.106941725915078
42
-0.015278161608701024
10
-100.79079140663507
20
-82.104910740004982
42
-0.55334854400244304
10
-98.067440931276408
20
-74.081838167373476
0
CIRCLE
5
103
100
AcDbEntity
8
0
100
AcDbCircle
10
69.042625617982182
20
35.245395216007026
30
0
40
2.0000000000000018
210
0
220
-0
230
1
0
CIRCLE
5
104
100
AcDbEntity
8
0
100
AcDbCircle
10
127.42035840870736
20
65.919902208764185
30
0
40
2.0000000000000107
210
0
220
-0
230
1
0
CIRCLE
5
105
100
AcDbEntity
8
0
100
AcDbCircle
10
63.967664029251445
20
-45.516009549305245
30
0
40
1.9999999999999929
210
0
220
-0
230
1
0
CIRCLE
5
106
100
AcDbEntity
8
0
100
AcDbCircle
10
-69.042625617982182
20
35.245395216007026
30
0
40
2.0000000000000018
210
0
220
0
230
1
0
CIRCLE
5
107
100
AcDbEntity
8
0
100
AcDbCircle
10
-127.42035840870736
20
65.919902208764185
30
0
40
2.0000000000000107
210
0
220
0
230
1
0
CIRCLE
5
108
100
AcDbEntity
8
0
100
AcDbCircle
10
-63.967664029251445
20
-45.516009549305245
30
0
40
1.9999999999999929
210
0
220
0
230
1
0
CIRCLE
5
109
100
AcDbEntity
8
0
100
AcDbCircle
10
44.798482877220771
20
-101.53002332276375
30
0
40
2.0999999999999996
210
0
220
0
230
1
0
CIRCLE
5
110
100
AcDbEntity
8
0
100
AcDbCircle
10
-71.547023440897007
20
-52.529498812514376
30
0
40
2.0999999999999996
210
0
220
0
230
1
0
CIRCLE
5
111
100
AcDbEntity
8
0
100
AcDbCircle
10
119.76386279602625
20
-73.925256843272649
30
0
40
2.0999999999999908
210
0
220
0
230
1
0
CIRCLE
5
112
100
AcDbEntity
8
0
100
AcDbCircle
10
-44.798482877220771
20
-101.53002332276375
30
0
40
2.0999999999999996
210
0
220
0
230
1
0
CIRCLE
5
113
100
AcDbEntity
8
0
100
AcDbCircle
10
-119.76386279602625
20
-73.925256843272649
30
0
40
2.0999999999999908
210
0
220
0
230
1
0
CIRCLE
5
114
100
AcDbEntity
8
0
100
AcDbCircle
10
71.547023440897007
20
-52.529498812514376
30
0
40
2.0999999999999996
210
0
220
0
230
1
0
CIRCLE
5
115
100
AcDbEntity
8
0
100
AcDbCircle
10
133.72569872690457
20
37.000000000015419
30
0
40
2.2499999999999964
210
0
220
-0
230
1
0
CIRCLE
5
116
100
AcDbEntity
8
0
100
AcDbCircle
10
-133.72569872690883
20
-37
30
0
40
2.2499999999999964
210
0
220
-0
230
1
0
LWPOLYLINE
5
117
100
AcDbEntity
8
0
100
AcDbPolyline
90
4
70
1
43
0.0
10
-51.23372420625671
20
6.5138867103189471
10
-59.233724206256724
20
6.5138867103189524
42
-0.99999999999999989
10
-59.23372420625671
20
14.513886710318943
10
-51.23372420625671
20
14.513886710318946
42
-0.99999999999999989
0
CIRCLE
5
118
100
AcDbEntity
8
0
100
AcDbCircle
10
133.72569872690886
20
-37
30
0
40
2.2499999999999964
210
0
220
-0
230
1
0
CIRCLE
5
119
100
AcDbEntity
8
0
100
AcDbCircle
10
-133.72569872690457
20
37.000000000015419
30
0
40
2.2499999999999964
210
0
220
-0
230
1
0
LWPOLYLINE
5
120
100
AcDbEntity
8
0
100
AcDbPolyline
90
4
70
1
43
0.0
10
59.208879108103204
20
6.544615161752426
10
51.208879108103211
20
6.5446151617524206
42
-0.99999999999999989
10
51.208879108103233
20
14.544615161752432
10
59.208879108103233
20
14.544615161752432
42
-0.99999999999999989
0
CIRCLE
5
121
100
AcDbEntity
8
0
100
AcDbCircle
10
7.4949632472357397e-17
20
35
30
0
40
2.75
210
0
220
-0
230
1
0
CIRCLE
5
122
100
AcDbEntity
8
0
100
AcDbCircle
10
-4.3612134294880931e-15
20
-35
30
0
40
2.75
210
0
220
-0
230
1
0
CIRCLE
5
123
100
AcDbEntity
8
0
100
AcDbCircle
10
-3.1745219388170374e-15
20
-25
30
0
40
2.7500000000000013
210
0
220
-0
230
1
0
CIRCLE
5
124
100
AcDbEntity
8
0
100
AcDbCircle
10
0
20
0
30
0
40
17.499999999999996
210
0
220
-0
230
1
0
CIRCLE
5
125
100
AcDbEntity
8
0
100
AcDbCircle
10
1.1290494094865412e-16
20
25
30
0
40
2.7500000000000013
210
0
220
-0
230
1
0
LWPOLYLINE
5
126
100
AcDbEntity
8
0
100
AcDbPolyline
90
23
70
1
43
0.0
10
67.617816264039732
20
-5.1529181467822216
42
0.23224776695524982
10
70.421836439626205
20
-13.509490291640397
42
-0.23224776695525093
10
73.225856615212678
20
-21.866062436498559
10
72.265137035765733
20
-29.065328827503308
42
0.21017991479584872
10
74.503106708368307
20
-36.799564582178725
10
77.602196402453046
20
-40.508983989930869
42
0.091403595405317825
10
78.99751781506734
20
-41.666471535261671
10
109.94171573042689
20
-58.983509836353562
42
0.39221453420442415
10
116.54957881604075
20
-57.384978576835323
42
0.034773039181741162
10
117.23548596357679
20
-56.176870960244869
42
0.084179556444497872
10
129.20100970886048
20
-14.390937780802854
42
0.3713006638343897
10
121.82969325701077
20
-3.6190904046327406
10
107.32056711565853
20
0.23489082363682634
10
107.32056711565853
20
5.878720033114444
10
120.97568043710382
20
9.4107883326587416
42
0.38713328085692467
10
128.34409371299114
20
20.683172121097812
42
0.055271649299547462
10
120.69541166055117
20
48.297180084245959
42
0.45429578712447333
10
106.48120548461119
20
53.282337363030607
10
84.713978406132298
20
40.948176839085562
42
0.23483046030926039
10
79.73179063494095
20
33.570594805050163
10
78.483663472693763
20
24.217605521706012
42
-0.21723548752180272
10
74.072546056688097
20
17.189369844810681
42
0.21723548752180338
10
69.661428640682445
20
10.161134167915378
0
CIRCLE
5
127
100
AcDbEntity
8
0
100
AcDbCircle
10
21.650635094610976
20
12.499999999999982
30
0
40
2.7499999999999991
210
0
220
-0
230
1
0
CIRCLE
5
128
100
AcDbEntity
8
0
100
AcDbCircle
10
21.650635094610958
20
-12.500000000000004
30
0
40
2.7499999999999991
210
0
220
-0
230
1
0
CIRCLE
5
129
100
AcDbEntity
8
0
100
AcDbCircle
10
30.310889132455365
20
17.499999999999979
30
0
40
2.7499999999999991
210
0
220
-0
230
1
0
CIRCLE
5
130
100
AcDbEntity
8
0
100
AcDbCircle
10
30.310889132455344
20
-17.500000000000007
30
0
40
2.7499999999999991
210
0
220
-0
230
1
0
CIRCLE
5
131
100
AcDbEntity
8
0
100
AcDbCircle
10
-30.310889132455344
20
-17.500000000000007
30
0
40
2.7499999999999991
210
0
220
-0
230
1
0
CIRCLE
5
132
100
AcDbEntity
8
0
100
AcDbCircle
10
-30.310889132455365
20
17.499999999999979
30
0
40
2.7499999999999991
210
0
220
-0
230
1
0
CIRCLE
5
133
100
AcDbEntity
8
0
100
AcDbCircle
10
-21.650635094610958
20
-12.500000000000004
30
0
40
2.7499999999999991
210
0
220
-0
230
1
0
CIRCLE
5
134
100
AcDbEntity
8
0
100
AcDbCircle
10
-21.650635094610976
20
12.499999999999982
30
0
40
2.7499999999999991
210
0
220
-0
230
1
0
LWPOLYLINE
5
135
100
AcDbEntity
8
0
100
AcDbPolyline
90
23
70
1
43
0.0
10
-70.421836439626205
20
-13.5094902916404
42
0.23224776695525137
10
-67.617816264039732
20
-5.1529181467822216
10
-69.661428640682445
20
10.161134167915375
42
0.21723548752180213
10
-74.072546056688097
20
17.189369844810681
42
-0.21723548752180122
10
-78.483663472693763
20
24.217605521706005
10
-79.731790634940921
20
33.570594805050163
42
0.23483046030925836
10
-84.713978406132298
20
40.948176839085562
10
-106.48120548461119
20
53.282337363030578
42
0.45429578712447255
10
-120.6954116605512
20
48.29718008424598
42
0.055271649299547462
10
-128.34409371299108
20
20.683172121097822
42
0.38713328085692522
10
-120.9756804371038
20
9.4107883326587434
10
-107.32056711565853
20
5.878720033114444
10
-107.32056711565853
20
0.23489082363682634
10
-121.82969325701077
20
-3.619090404632741
42
0.37130066383438987
10
-129.20100970886051
20
-14.39093778080284
42
0.084179556444498052
10
-117.23548596357674
20
-56.176870960244862
42
0.034773039181759814
10
-116.54957881604075
20
-57.384978576835323
42
0.39221453420442393
10
-109.94171573042689
20
-58.983509836353569
10
-78.997517815067383
20
-41.666471535261707
42
0.091403595405317339
10
-77.602196402453103
20
-40.508983989930911
10
-74.503106708368321
20
-36.799564582178725
42
0.21017991479585002
10
-72.265137035765733
20
-29.065328827503308
10
-73.225856615212678
20
-21.866062436498559
42
-0.23224776695525035
0
LWPOLYLINE
5
136
100
AcDbEntity
8
0
100
AcDbPolyline
90
14
70
1
43
0.0
10
-58.443576745777818
20
52.34813369471091
42
0.15612630301853547
10
-60.511343399329363
20
54.5877793096518
10
-110.73665553804145
20
83.047401660750552
42
0.39797800505499309
10
-124.07871558972202
20
79.754136805590733
42
0.3482828955127622
10
-105.96357289294792
20
-102.60590246063295
42
0.20309926232939687
10
-91.595630805768536
20
-108.69323772020807
10
91.595630805768536
20
-108.69323772020809
42
0.20309926232939643
10
105.96357289294789
20
-102.6059024606329
42
0.34828289551276198
10
124.07871558972204
20
79.754136805590647
42
0.39797800505499659
10
110.73665553804142
20
83.047401660750566
10
61.074668441368715
20
54.906981267283825
42
0.1650850625964316
10
58.935954052710372
20
52.507734673526926
42
-0.30112812353158896
10
54.332267793795538
20
49.458650568556422
10
-53.910838221969783
20
49.458650568556422
42
-0.29162750059603348
0
ENDSEC
0
SECTION
2
OBJECTS
0
DICTIONARY
5
C
100
AcDbDictionary
3
ACAD_GROUP
350
D
3
ACAD_MLINESTYLE
350
17
0
DICTIONARY
5
D
100
AcDbDictionary
0
DICTIONARY
5
1A
330
C
100
AcDbDictionary
0
DICTIONARY
5
17
100
AcDbDictionary
0
ENDSEC
0
EOF
