0
SECTION
2
HEADER
9
$INSUNITS
70
4
9
$ACADVER
1
AC1014
9
$HANDSEED
5
FFFF
0
ENDSEC
0
SECTION
2
TABLES
0
TABLE
2
VPORT
5
8
100
AcDbSymbolTable
0
ENDTAB
0
TABLE
2
LTYPE
5
5
100
AcDbSymbolTable
0
LTYPE
5
14
100
AcDbSymbolTableRecord
100
AcDbLinetypeTableRecord
2
BYBLOCK
70
0
0
LTYPE
5
15
100
AcDbSymbolTableRecord
100
AcDbLinetypeTableRecord
2
BYLAYER
70
0
0
ENDTAB
0
TABLE
2
LAYER
5
2
100
AcDbSymbolTable
70
2
0
LAYER
5
50
100
AcDbSymbolTableRecord
100
AcDbLayerTableRecord
2
0
70
0
6
CONTINUOUS
0
ENDTAB
0
TABLE
2
STYLE
5
3
100
AcDbSymbolTable
70
1
0
STYLE
5
11
100
AcDbSymbolTableRecord
100
AcDbTextStyleTableRecord
2
STANDARD
70
0
0
ENDTAB
0
TABLE
2
VIEW
5
6
100
AcDbSymbolTable
70
0
0
ENDTAB
0
TABLE
2
UCS
5
7
100
AcDbSymbolTable
70
0
0
ENDTAB
0
TABLE
2
APPID
5
9
100
AcDbSymbolTable
70
2
0
APPID
5
12
100
AcDbSymbolTableRecord
100
AcDbRegAppTableRecord
2
ACAD
70
0
0
ENDTAB
0
TABLE
2
DIMSTYLE
5
A
100
AcDbSymbolTable
70
1
0
ENDTAB
0
TABLE
2
BLOCK_RECORD
5
1
100
AcDbSymbolTable
70
1
0
BLOCK_RECORD
5
1F
100
AcDbSymbolTableRecord
100
AcDbBlockTableRecord
2
*MODEL_SPACE
0
BLOCK_RECORD
5
1B
100
AcDbSymbolTableRecord
100
AcDbBlockTableRecord
2
*PAPER_SPACE
0
ENDTAB
0
ENDSEC
0
SECTION
2
BLOCKS
0
BLOCK
5
20
100
AcDbEntity
100
AcDbBlockBegin
2
*MODEL_SPACE
0
ENDBLK
5
21
100
AcDbEntity
100
AcDbBlockEnd
0
BLOCK
5
1C
100
AcDbEntity
100
AcDbBlockBegin
2
*PAPER_SPACE
0
ENDBLK
5
1D
100
AcDbEntity
100
AcDbBlockEnd
0
ENDSEC
0
SECTION
2
ENTITIES
0
CIRCLE
5
100
100
AcDbEntity
8
0
100
AcDbCircle
10
69.042625617982182
20
35.245395216007026
30
0
40
3.499999999999996
210
0
220
0
230
1
0
CIRCLE
5
101
100
AcDbEntity
8
0
100
AcDbCircle
10
115.64507209692181
20
71.507262199775283
30
0
40
6.5000000000000036
210
0
220
0
230
1
0
CIRCLE
5
102
100
AcDbEntity
8
0
100
AcDbCircle
10
66.156550353362036
20
-10.629657314343481
30
0
40
6.5000000000000036
210
0
220
0
230
1
0
CIRCLE
5
103
100
AcDbEntity
8
0
100
AcDbCircle
10
68.34632955859972
20
9.2501029214417763
30
0
40
6.5000000000000036
210
0
220
0
230
1
0
CIRCLE
5
104
100
AcDbEntity
8
0
100
AcDbCircle
10
98.079474110837722
20
61.944325025910928
30
0
40
6.5000000000000036
210
0
220
0
230
1
0
CIRCLE
5
105
100
AcDbEntity
8
0
100
AcDbCircle
10
63.966771148125112
20
-30.509417550121768
30
0
40
6.5000000000000036
210
0
220
0
230
1
0
CIRCLE
5
106
100
AcDbEntity
8
0
100
AcDbCircle
10
80.513876124753551
20
52.381387852046601
30
0
40
6.5000000000000036
210
0
220
0
230
1
0
CIRCLE
5
107
100
AcDbEntity
8
0
100
AcDbCircle
10
116.89109828538479
20
82.689979631141796
30
0
40
1.0999999999999943
210
0
220
0
230
1
0
CIRCLE
5
108
100
AcDbEntity
8
0
100
AcDbCircle
10
63.524565874357876
20
52.083081398124023
30
0
40
1.1000000000000032
210
0
220
0
230
1
0
CIRCLE
5
109
100
AcDbEntity
8
0
100
AcDbCircle
10
45.937030735900059
20
-35.486509683571256
30
0
40
1.1000000000000032
210
0
220
0
230
1
0
CIRCLE
5
110
100
AcDbEntity
8
0
100
AcDbCircle
10
-45.937030735900059
20
-35.486509683571256
30
0
40
1.1000000000000032
210
0
220
0
230
1
0
CIRCLE
5
111
100
AcDbEntity
8
0
100
AcDbCircle
10
-63.524565874357876
20
52.083081398124023
30
0
40
1.1000000000000032
210
0
220
0
230
1
0
CIRCLE
5
112
100
AcDbEntity
8
0
100
AcDbCircle
10
-116.89109828538479
20
82.689979631141796
30
0
40
1.0999999999999943
210
0
220
0
230
1
0
CIRCLE
5
113
100
AcDbEntity
8
0
100
AcDbCircle
10
-80.513876124753551
20
52.381387852046601
30
0
40
6.5000000000000036
210
0
220
0
230
1
0
CIRCLE
5
114
100
AcDbEntity
8
0
100
AcDbCircle
10
-63.966771148125112
20
-30.509417550121768
30
0
40
6.5000000000000036
210
0
220
0
230
1
0
CIRCLE
5
115
100
AcDbEntity
8
0
100
AcDbCircle
10
-98.079474110837722
20
61.944325025910928
30
0
40
6.5000000000000036
210
0
220
0
230
1
0
CIRCLE
5
116
100
AcDbEntity
8
0
100
AcDbCircle
10
-68.34632955859972
20
9.2501029214417763
30
0
40
6.5000000000000036
210
0
220
0
230
1
0
CIRCLE
5
117
100
AcDbEntity
8
0
100
AcDbCircle
10
-66.156550353362036
20
-10.629657314343481
30
0
40
6.5000000000000036
210
0
220
0
230
1
0
CIRCLE
5
118
100
AcDbEntity
8
0
100
AcDbCircle
10
-115.64507209692181
20
71.507262199775283
30
0
40
6.5000000000000036
210
0
220
0
230
1
0
CIRCLE
5
119
100
AcDbEntity
8
0
100
AcDbCircle
10
-69.042625617982182
20
35.245395216007026
30
0
40
3.499999999999996
210
0
220
0
230
1
0
CIRCLE
5
120
100
AcDbEntity
8
0
100
AcDbCircle
10
30.114662266312248
20
30.024595828452
30
0
40
9.9999999999999964
210
0
220
0
230
1
0
CIRCLE
5
121
100
AcDbEntity
8
0
100
AcDbCircle
10
-30.114662266312259
20
30.024595828451993
30
0
40
10
210
0
220
0
230
1
0
CIRCLE
5
122
100
AcDbEntity
8
0
100
AcDbCircle
10
23.654861155890362
20
-35.06748843500479
30
0
40
10
210
0
220
0
230
1
0
CIRCLE
5
123
100
AcDbEntity
8
0
100
AcDbCircle
10
-23.654861155890355
20
-35.067488435004798
30
0
40
10
210
0
220
0
230
1
0
LWPOLYLINE
5
124
100
AcDbEntity
8
0
100
AcDbPolyline
90
40
70
1
43
0.0
10
44.219373053472289
20
62.522790115057596
42
0.28323689671920654
10
39.754230278599351
20
59.772790115057589
42
-0.28323689671920699
10
35.289087503726421
20
57.022790115057596
10
-35.008135666616049
20
57.022790115057589
42
-0.2832368967192076
10
-39.473278441488993
20
59.772790115057589
42
0.28323689671920665
10
-43.938421216361931
20
62.522790115057596
10
-68.73772737006432
20
62.522790115057596
42
-0.1250540981514989
10
-71.124462344859481
20
63.129215697787586
10
-114.52044411737837
20
86.703348653159665
42
0.2166128427924367
10
-116.584277928785
20
86.850124624549068
10
-121.98541241249494
20
84.843988959171114
42
0.1765317809174087
10
-123.28915643409812
20
83.734447404983428
10
-130.78556776423048
20
70.526595348187243
42
0.32180065557458215
10
-130.47578034893115
20
67.627062648558592
42
-1.0300610426045749
10
-124.4713456417871
20
64.034876028431086
10
-80.442317337862747
20
38.772367411930617
42
-0.2391817974218762
10
-79.201820003445391
20
36.880389471563511
10
-70.893332911210635
20
-37.797083797927634
42
0.45024550148557491
10
-64.773211893818583
20
-42.109971875131436
42
-0.66387260522930447
10
-60.967895978708725
20
-47.319171118034767
42
0.32194331968568141
10
-60.491766645896028
20
-53.13387941183823
10
-47.223874309636578
20
-68.738838325999325
42
0.21999063084106277
10
-39.605367116568509
20
-72.261311934762475
10
39.605367116568502
20
-72.261311934762475
42
0.21999063084106199
10
47.223874309636578
20
-68.738838325999325
10
60.491766645896028
20
-53.13387941183823
42
0.32194331968568107
10
60.967895978708725
20
-47.319171118034767
42
-0.66387260522930469
10
64.773211893818569
20
-42.109971875131436
42
0.45024550148557457
10
70.893332911210635
20
-37.797083797927627
10
79.201820003445405
20
36.880389471563511
42
-0.23918179742187431
10
80.442317337862747
20
38.772367411930617
10
124.47134564178708
20
64.034876028431057
42
-1.030061042604574
10
130.47578034893115
20
67.627062648558621
42
0.32180065557457538
10
130.78556776423048
20
70.526595348187243
10
123.28915643409812
20
83.734447404983428
42
0.17653178091742092
10
121.98541241249494
20
84.843988959171128
10
116.584277928785
20
86.850124624549082
42
0.21661284279244539
10
114.52044411737837
20
86.703348653159665
10
71.124462344859509
20
63.129215697787586
42
-0.12505409815149934
10
68.737727370064334
20
62.522790115057596
0
ENDSEC
0
SECTION
2
OBJECTS
0
DICTIONARY
5
C
100
AcDbDictionary
3
ACAD_GROUP
350
D
3
ACAD_MLINESTYLE
350
17
0
DICTIONARY
5
D
100
AcDbDictionary
0
DICTIONARY
5
1A
330
C
100
AcDbDictionary
0
DICTIONARY
5
17
100
AcDbDictionary
0
ENDSEC
0
EOF
