%TF.GenerationSoftware,KiCad,Pcbnew,(6.0.1)*%
%TF.CreationDate,2022-11-23T14:03:38+01:00*%
%TF.ProjectId,992 GT3R PCB 2,39393220-4754-4335-9220-50434220322e,rev?*%
%TF.SameCoordinates,Original*%
%TF.FileFunction,Legend,Top*%
%TF.FilePolarity,Positive*%
%FSLAX46Y46*%
G04 Gerber Fmt 4.6, Leading zero omitted, Abs format (unit mm)*
G04 Created by KiCad (PCBNEW (6.0.1)) date 2022-11-23 14:03:38*
%MOMM*%
%LPD*%
G01*
G04 APERTURE LIST*
G04 Aperture macros list*
%AMRoundRect*
0 Rectangle with rounded corners*
0 $1 Rounding radius*
0 $2 $3 $4 $5 $6 $7 $8 $9 X,Y pos of 4 corners*
0 Add a 4 corners polygon primitive as box body*
4,1,4,$2,$3,$4,$5,$6,$7,$8,$9,$2,$3,0*
0 Add four circle primitives for the rounded corners*
1,1,$1+$1,$2,$3*
1,1,$1+$1,$4,$5*
1,1,$1+$1,$6,$7*
1,1,$1+$1,$8,$9*
0 Add four rect primitives between the rounded corners*
20,1,$1+$1,$2,$3,$4,$5,0*
20,1,$1+$1,$4,$5,$6,$7,0*
20,1,$1+$1,$6,$7,$8,$9,0*
20,1,$1+$1,$8,$9,$2,$3,0*%
%AMHorizOval*
0 Thick line with rounded ends*
0 $1 width*
0 $2 $3 position (X,Y) of the first rounded end (center of the circle)*
0 $4 $5 position (X,Y) of the second rounded end (center of the circle)*
0 Add line between two ends*
20,1,$1,$2,$3,$4,$5,0*
0 Add two circle primitives to create the rounded ends*
1,1,$1,$2,$3*
1,1,$1,$4,$5*%
G04 Aperture macros list end*
%ADD10C,0.200000*%
%ADD11C,0.250000*%
%ADD12C,0.150000*%
%ADD13C,0.500000*%
%ADD14C,0.120000*%
%ADD15RoundRect,0.243750X-0.513547X-0.062026X-0.233929X-0.461363X0.513547X0.062026X0.233929X0.461363X0*%
%ADD16RoundRect,0.243750X0.290853X0.427765X-0.193887X0.479569X-0.290853X-0.427765X0.193887X-0.479569X0*%
%ADD17RoundRect,0.243750X-0.193887X-0.479569X0.290853X-0.427765X0.193887X0.479569X-0.290853X0.427765X0*%
%ADD18RoundRect,0.243750X0.385097X0.345367X-0.073003X0.512102X-0.385097X-0.345367X0.073003X-0.512102X0*%
%ADD19C,2.200000*%
%ADD20HorizOval,2.500000X0.216069X0.125755X-0.216069X-0.125755X0*%
%ADD21RoundRect,0.243750X0.277072X-0.436817X0.517128X-0.012519X-0.277072X0.436817X-0.517128X0.012519X0*%
%ADD22HorizOval,2.500000X0.027434X0.248490X-0.027434X-0.248490X0*%
%ADD23RoundRect,0.243750X-0.073003X-0.512102X0.385097X-0.345367X0.073003X0.512102X-0.385097X0.345367X0*%
%ADD24HorizOval,2.500000X0.026566X-0.248584X-0.026566X0.248584X0*%
%ADD25RoundRect,0.250000X0.250000X0.475000X-0.250000X0.475000X-0.250000X-0.475000X0.250000X-0.475000X0*%
%ADD26HorizOval,2.500000X0.216069X-0.125755X-0.216069X0.125755X0*%
%ADD27RoundRect,0.243750X0.516936X0.018836X0.271714X0.440170X-0.516936X-0.018836X-0.271714X-0.440170X0*%
%ADD28RoundRect,0.243750X-0.233929X0.461363X-0.513547X0.062026X0.233929X-0.461363X0.513547X-0.062026X0*%
%ADD29RoundRect,0.243750X0.456250X-0.243750X0.456250X0.243750X-0.456250X0.243750X-0.456250X-0.243750X0*%
%ADD30C,1.600000*%
%ADD31O,1.600000X1.600000*%
%ADD32RoundRect,0.250000X-0.250000X-0.475000X0.250000X-0.475000X0.250000X0.475000X-0.250000X0.475000X0*%
%ADD33RoundRect,0.250000X-0.600000X-0.750000X0.600000X-0.750000X0.600000X0.750000X-0.600000X0.750000X0*%
%ADD34O,1.700000X2.000000*%
%ADD35RoundRect,0.250000X-0.600000X-0.725000X0.600000X-0.725000X0.600000X0.725000X-0.600000X0.725000X0*%
%ADD36O,1.700000X1.950000*%
%ADD37RoundRect,0.250000X0.600000X0.725000X-0.600000X0.725000X-0.600000X-0.725000X0.600000X-0.725000X0*%
%ADD38O,1.600000X1.200000*%
%ADD39O,1.200000X1.200000*%
%ADD40C,1.700000*%
%ADD41R,1.700000X1.700000*%
G04 APERTURE END LIST*
D10*
X127081428Y112447620D02*
X126986190Y112542858D01*
X126795714Y112638096D01*
X126605238Y112638096D01*
X126414761Y112542858D01*
X126319523Y112447620D01*
X126224285Y112257143D01*
X126224285Y112066667D01*
X126319523Y111876191D01*
X126414761Y111780953D01*
X126605238Y111685715D01*
X126795714Y111685715D01*
X126986190Y111780953D01*
X127081428Y111876191D01*
X127081428Y112638096D02*
X127081428Y111876191D01*
X127176666Y111780953D01*
X127271904Y111780953D01*
X127462380Y111876191D01*
X127557619Y112066667D01*
X127557619Y112542858D01*
X127367142Y112828572D01*
X127081428Y113019048D01*
X126700476Y113114286D01*
X126319523Y113019048D01*
X126033809Y112828572D01*
X125843333Y112542858D01*
X125748095Y112161905D01*
X125843333Y111780953D01*
X126033809Y111495239D01*
X126319523Y111304762D01*
X126700476Y111209524D01*
X127081428Y111304762D01*
X127367142Y111495239D01*
X128224285Y113495239D02*
X129557619Y113495239D01*
X128224285Y111495239D01*
X129557619Y111495239D01*
X131081428Y111590477D02*
X130890952Y111495239D01*
X130510000Y111495239D01*
X130319523Y111590477D01*
X130224285Y111780953D01*
X130224285Y112542858D01*
X130319523Y112733334D01*
X130510000Y112828572D01*
X130890952Y112828572D01*
X131081428Y112733334D01*
X131176666Y112542858D01*
X131176666Y112352381D01*
X130224285Y112161905D01*
X132033809Y111495239D02*
X132033809Y113495239D01*
X132033809Y112733334D02*
X132224285Y112828572D01*
X132605238Y112828572D01*
X132795714Y112733334D01*
X132890952Y112638096D01*
X132986190Y112447620D01*
X132986190Y111876191D01*
X132890952Y111685715D01*
X132795714Y111590477D01*
X132605238Y111495239D01*
X132224285Y111495239D01*
X132033809Y111590477D01*
X133843333Y111495239D02*
X133843333Y113495239D01*
X133843333Y112733334D02*
X134033809Y112828572D01*
X134414761Y112828572D01*
X134605238Y112733334D01*
X134700476Y112638096D01*
X134795714Y112447620D01*
X134795714Y111876191D01*
X134700476Y111685715D01*
X134605238Y111590477D01*
X134414761Y111495239D01*
X134033809Y111495239D01*
X133843333Y111590477D01*
X136414761Y111590477D02*
X136224285Y111495239D01*
X135843333Y111495239D01*
X135652857Y111590477D01*
X135557619Y111780953D01*
X135557619Y112542858D01*
X135652857Y112733334D01*
X135843333Y112828572D01*
X136224285Y112828572D01*
X136414761Y112733334D01*
X136510000Y112542858D01*
X136510000Y112352381D01*
X135557619Y112161905D01*
X138033809Y112542858D02*
X138319523Y112447620D01*
X138414761Y112352381D01*
X138510000Y112161905D01*
X138510000Y111876191D01*
X138414761Y111685715D01*
X138319523Y111590477D01*
X138129047Y111495239D01*
X137367142Y111495239D01*
X137367142Y113495239D01*
X138033809Y113495239D01*
X138224285Y113400000D01*
X138319523Y113304762D01*
X138414761Y113114286D01*
X138414761Y112923810D01*
X138319523Y112733334D01*
X138224285Y112638096D01*
X138033809Y112542858D01*
X137367142Y112542858D01*
X140224285Y111495239D02*
X140224285Y112542858D01*
X140129047Y112733334D01*
X139938571Y112828572D01*
X139557619Y112828572D01*
X139367142Y112733334D01*
X140224285Y111590477D02*
X140033809Y111495239D01*
X139557619Y111495239D01*
X139367142Y111590477D01*
X139271904Y111780953D01*
X139271904Y111971429D01*
X139367142Y112161905D01*
X139557619Y112257143D01*
X140033809Y112257143D01*
X140224285Y112352381D01*
X141176666Y112257143D02*
X142700476Y112257143D01*
X141938571Y111495239D02*
X141938571Y113019048D01*
X143367142Y113495239D02*
X144510000Y113495239D01*
X143938571Y111495239D02*
X143938571Y113495239D01*
X145176666Y113495239D02*
X145176666Y111876191D01*
X145271904Y111685715D01*
X145367142Y111590477D01*
X145557619Y111495239D01*
X145938571Y111495239D01*
X146129047Y111590477D01*
X146224285Y111685715D01*
X146319523Y111876191D01*
X146319523Y113495239D01*
X148414761Y111495239D02*
X147748095Y112447620D01*
X147271904Y111495239D02*
X147271904Y113495239D01*
X148033809Y113495239D01*
X148224285Y113400000D01*
X148319523Y113304762D01*
X148414761Y113114286D01*
X148414761Y112828572D01*
X148319523Y112638096D01*
X148224285Y112542858D01*
X148033809Y112447620D01*
X147271904Y112447620D01*
X149271904Y111495239D02*
X149271904Y113495239D01*
X150414761Y111495239D01*
X150414761Y113495239D01*
X151367142Y112542858D02*
X152890952Y112542858D01*
X152890952Y111971429D02*
X151367142Y111971429D01*
X153843333Y111495239D02*
X153843333Y113495239D01*
X153843333Y112542858D02*
X154986190Y112542858D01*
X154986190Y111495239D02*
X154986190Y113495239D01*
X156795714Y111495239D02*
X156795714Y112542858D01*
X156700476Y112733334D01*
X156510000Y112828572D01*
X156129047Y112828572D01*
X155938571Y112733334D01*
X156795714Y111590477D02*
X156605238Y111495239D01*
X156129047Y111495239D01*
X155938571Y111590477D01*
X155843333Y111780953D01*
X155843333Y111971429D01*
X155938571Y112161905D01*
X156129047Y112257143D01*
X156605238Y112257143D01*
X156795714Y112352381D01*
X157748095Y112828572D02*
X157748095Y110828572D01*
X157748095Y112733334D02*
X157938571Y112828572D01*
X158319523Y112828572D01*
X158510000Y112733334D01*
X158605238Y112638096D01*
X158700476Y112447620D01*
X158700476Y111876191D01*
X158605238Y111685715D01*
X158510000Y111590477D01*
X158319523Y111495239D01*
X157938571Y111495239D01*
X157748095Y111590477D01*
X159557619Y112828572D02*
X159557619Y110828572D01*
X159557619Y112733334D02*
X159748095Y112828572D01*
X160129047Y112828572D01*
X160319523Y112733334D01*
X160414761Y112638096D01*
X160510000Y112447620D01*
X160510000Y111876191D01*
X160414761Y111685715D01*
X160319523Y111590477D01*
X160129047Y111495239D01*
X159748095Y111495239D01*
X159557619Y111590477D01*
X161176666Y112828572D02*
X161652857Y111495239D01*
X162129047Y112828572D02*
X161652857Y111495239D01*
X161462380Y111019048D01*
X161367142Y110923810D01*
X161176666Y110828572D01*
X162890952Y111495239D02*
X162890952Y113495239D01*
X163367142Y113495239D01*
X163652857Y113400000D01*
X163843333Y113209524D01*
X163938571Y113019048D01*
X164033809Y112638096D01*
X164033809Y112352381D01*
X163938571Y111971429D01*
X163843333Y111780953D01*
X163652857Y111590477D01*
X163367142Y111495239D01*
X162890952Y111495239D01*
X164890952Y111495239D02*
X164890952Y113495239D01*
X166224285Y112447620D02*
X166224285Y111495239D01*
X165557619Y113495239D02*
X166224285Y112447620D01*
X166890952Y113495239D01*
X168319523Y111590477D02*
X168129047Y111495239D01*
X167748095Y111495239D01*
X167557619Y111590477D01*
X167462380Y111780953D01*
X167462380Y112542858D01*
X167557619Y112733334D01*
X167748095Y112828572D01*
X168129047Y112828572D01*
X168319523Y112733334D01*
X168414761Y112542858D01*
X168414761Y112352381D01*
X167462380Y112161905D01*
X169271904Y111495239D02*
X169271904Y112828572D01*
X169271904Y112447620D02*
X169367142Y112638096D01*
X169462380Y112733334D01*
X169652857Y112828572D01*
X169843333Y112828572D01*
X170414761Y111590477D02*
X170605238Y111495239D01*
X170986190Y111495239D01*
X171176666Y111590477D01*
X171271904Y111780953D01*
X171271904Y111876191D01*
X171176666Y112066667D01*
X170986190Y112161905D01*
X170700476Y112161905D01*
X170510000Y112257143D01*
X170414761Y112447620D01*
X170414761Y112542858D01*
X170510000Y112733334D01*
X170700476Y112828572D01*
X170986190Y112828572D01*
X171176666Y112733334D01*
D11*
X133738333Y151952620D02*
X133405000Y152428810D01*
X133166904Y151952620D02*
X133166904Y152952620D01*
X133547857Y152952620D01*
X133643095Y152905000D01*
X133690714Y152857381D01*
X133738333Y152762143D01*
X133738333Y152619286D01*
X133690714Y152524048D01*
X133643095Y152476429D01*
X133547857Y152428810D01*
X133166904Y152428810D01*
X134309761Y151952620D02*
X134214523Y152000239D01*
X134166904Y152047858D01*
X134119285Y152143096D01*
X134119285Y152428810D01*
X134166904Y152524048D01*
X134214523Y152571667D01*
X134309761Y152619286D01*
X134452619Y152619286D01*
X134547857Y152571667D01*
X134595476Y152524048D01*
X134643095Y152428810D01*
X134643095Y152143096D01*
X134595476Y152047858D01*
X134547857Y152000239D01*
X134452619Y151952620D01*
X134309761Y151952620D01*
X134928809Y152619286D02*
X135309761Y152619286D01*
X135071666Y152952620D02*
X135071666Y152095477D01*
X135119285Y152000239D01*
X135214523Y151952620D01*
X135309761Y151952620D01*
X135785952Y151952620D02*
X135690714Y152000239D01*
X135643095Y152047858D01*
X135595476Y152143096D01*
X135595476Y152428810D01*
X135643095Y152524048D01*
X135690714Y152571667D01*
X135785952Y152619286D01*
X135928809Y152619286D01*
X136024047Y152571667D01*
X136071666Y152524048D01*
X136119285Y152428810D01*
X136119285Y152143096D01*
X136071666Y152047858D01*
X136024047Y152000239D01*
X135928809Y151952620D01*
X135785952Y151952620D01*
X136547857Y151952620D02*
X136547857Y152619286D01*
X136547857Y152428810D02*
X136595476Y152524048D01*
X136643095Y152571667D01*
X136738333Y152619286D01*
X136833571Y152619286D01*
X137119285Y152857381D02*
X137166904Y152905000D01*
X137262142Y152952620D01*
X137500238Y152952620D01*
X137595476Y152905000D01*
X137643095Y152857381D01*
X137690714Y152762143D01*
X137690714Y152666905D01*
X137643095Y152524048D01*
X137071666Y151952620D01*
X137690714Y151952620D01*
X170588333Y151927620D02*
X170255000Y152403810D01*
X170016904Y151927620D02*
X170016904Y152927620D01*
X170397857Y152927620D01*
X170493095Y152880000D01*
X170540714Y152832381D01*
X170588333Y152737143D01*
X170588333Y152594286D01*
X170540714Y152499048D01*
X170493095Y152451429D01*
X170397857Y152403810D01*
X170016904Y152403810D01*
X171159761Y151927620D02*
X171064523Y151975239D01*
X171016904Y152022858D01*
X170969285Y152118096D01*
X170969285Y152403810D01*
X171016904Y152499048D01*
X171064523Y152546667D01*
X171159761Y152594286D01*
X171302619Y152594286D01*
X171397857Y152546667D01*
X171445476Y152499048D01*
X171493095Y152403810D01*
X171493095Y152118096D01*
X171445476Y152022858D01*
X171397857Y151975239D01*
X171302619Y151927620D01*
X171159761Y151927620D01*
X171778809Y152594286D02*
X172159761Y152594286D01*
X171921666Y152927620D02*
X171921666Y152070477D01*
X171969285Y151975239D01*
X172064523Y151927620D01*
X172159761Y151927620D01*
X172635952Y151927620D02*
X172540714Y151975239D01*
X172493095Y152022858D01*
X172445476Y152118096D01*
X172445476Y152403810D01*
X172493095Y152499048D01*
X172540714Y152546667D01*
X172635952Y152594286D01*
X172778809Y152594286D01*
X172874047Y152546667D01*
X172921666Y152499048D01*
X172969285Y152403810D01*
X172969285Y152118096D01*
X172921666Y152022858D01*
X172874047Y151975239D01*
X172778809Y151927620D01*
X172635952Y151927620D01*
X173397857Y151927620D02*
X173397857Y152594286D01*
X173397857Y152403810D02*
X173445476Y152499048D01*
X173493095Y152546667D01*
X173588333Y152594286D01*
X173683571Y152594286D01*
X173921666Y152927620D02*
X174540714Y152927620D01*
X174207380Y152546667D01*
X174350238Y152546667D01*
X174445476Y152499048D01*
X174493095Y152451429D01*
X174540714Y152356191D01*
X174540714Y152118096D01*
X174493095Y152022858D01*
X174445476Y151975239D01*
X174350238Y151927620D01*
X174064523Y151927620D01*
X173969285Y151975239D01*
X173921666Y152022858D01*
D12*
X115820980Y151070446D02*
X115773361Y150927589D01*
X115773361Y150689494D01*
X115820980Y150594255D01*
X115868599Y150546636D01*
X115963837Y150499017D01*
X116059075Y150499017D01*
X116154313Y150546636D01*
X116201932Y150594255D01*
X116249551Y150689494D01*
X116297170Y150879970D01*
X116344789Y150975208D01*
X116392408Y151022827D01*
X116487646Y151070446D01*
X116582884Y151070446D01*
X116678122Y151022827D01*
X116725742Y150975208D01*
X116773361Y150879970D01*
X116773361Y150641874D01*
X116725742Y150499017D01*
X115773361Y150070446D02*
X116440027Y150070446D01*
X116773361Y150070446D02*
X116725742Y150118065D01*
X116678122Y150070446D01*
X116725742Y150022827D01*
X116773361Y150070446D01*
X116678122Y150070446D01*
X116440027Y149165684D02*
X115630503Y149165684D01*
X115535265Y149213303D01*
X115487646Y149260922D01*
X115440027Y149356160D01*
X115440027Y149499017D01*
X115487646Y149594255D01*
X115820980Y149165684D02*
X115773361Y149260922D01*
X115773361Y149451398D01*
X115820980Y149546636D01*
X115868599Y149594255D01*
X115963837Y149641874D01*
X116249551Y149641874D01*
X116344789Y149594255D01*
X116392408Y149546636D01*
X116440027Y149451398D01*
X116440027Y149260922D01*
X116392408Y149165684D01*
X116440027Y148689494D02*
X115773361Y148689494D01*
X116344789Y148689494D02*
X116392408Y148641874D01*
X116440027Y148546636D01*
X116440027Y148403779D01*
X116392408Y148308541D01*
X116297170Y148260922D01*
X115773361Y148260922D01*
D11*
X190302619Y152576429D02*
X190445476Y152528810D01*
X190493095Y152481191D01*
X190540714Y152385953D01*
X190540714Y152243096D01*
X190493095Y152147858D01*
X190445476Y152100239D01*
X190350238Y152052620D01*
X189969285Y152052620D01*
X189969285Y153052620D01*
X190302619Y153052620D01*
X190397857Y153005000D01*
X190445476Y152957381D01*
X190493095Y152862143D01*
X190493095Y152766905D01*
X190445476Y152671667D01*
X190397857Y152624048D01*
X190302619Y152576429D01*
X189969285Y152576429D01*
X191397857Y152052620D02*
X191397857Y152576429D01*
X191350238Y152671667D01*
X191255000Y152719286D01*
X191064523Y152719286D01*
X190969285Y152671667D01*
X191397857Y152100239D02*
X191302619Y152052620D01*
X191064523Y152052620D01*
X190969285Y152100239D01*
X190921666Y152195477D01*
X190921666Y152290715D01*
X190969285Y152385953D01*
X191064523Y152433572D01*
X191302619Y152433572D01*
X191397857Y152481191D01*
X192302619Y152100239D02*
X192207380Y152052620D01*
X192016904Y152052620D01*
X191921666Y152100239D01*
X191874047Y152147858D01*
X191826428Y152243096D01*
X191826428Y152528810D01*
X191874047Y152624048D01*
X191921666Y152671667D01*
X192016904Y152719286D01*
X192207380Y152719286D01*
X192302619Y152671667D01*
X192731190Y152052620D02*
X192731190Y153052620D01*
X192826428Y152433572D02*
X193112142Y152052620D01*
X193112142Y152719286D02*
X192731190Y152338334D01*
X193874047Y152576429D02*
X194016904Y152528810D01*
X194064523Y152481191D01*
X194112142Y152385953D01*
X194112142Y152243096D01*
X194064523Y152147858D01*
X194016904Y152100239D01*
X193921666Y152052620D01*
X193540714Y152052620D01*
X193540714Y153052620D01*
X193874047Y153052620D01*
X193969285Y153005000D01*
X194016904Y152957381D01*
X194064523Y152862143D01*
X194064523Y152766905D01*
X194016904Y152671667D01*
X193969285Y152624048D01*
X193874047Y152576429D01*
X193540714Y152576429D01*
X194969285Y152719286D02*
X194969285Y152052620D01*
X194540714Y152719286D02*
X194540714Y152195477D01*
X194588333Y152100239D01*
X194683571Y152052620D01*
X194826428Y152052620D01*
X194921666Y152100239D01*
X194969285Y152147858D01*
X195302619Y152719286D02*
X195683571Y152719286D01*
X195445476Y153052620D02*
X195445476Y152195477D01*
X195493095Y152100239D01*
X195588333Y152052620D01*
X195683571Y152052620D01*
X196588333Y152052620D02*
X196255000Y152528810D01*
X196016904Y152052620D02*
X196016904Y153052620D01*
X196397857Y153052620D01*
X196493095Y153005000D01*
X196540714Y152957381D01*
X196588333Y152862143D01*
X196588333Y152719286D01*
X196540714Y152624048D01*
X196493095Y152576429D01*
X196397857Y152528810D01*
X196016904Y152528810D01*
D12*
X91818095Y161780000D02*
X91722857Y161827620D01*
X91580000Y161827620D01*
X91437142Y161780000D01*
X91341904Y161684762D01*
X91294285Y161589524D01*
X91246666Y161399048D01*
X91246666Y161256191D01*
X91294285Y161065715D01*
X91341904Y160970477D01*
X91437142Y160875239D01*
X91580000Y160827620D01*
X91675238Y160827620D01*
X91818095Y160875239D01*
X91865714Y160922858D01*
X91865714Y161256191D01*
X91675238Y161256191D01*
X92294285Y160827620D02*
X92294285Y161827620D01*
X92865714Y160827620D01*
X92865714Y161827620D01*
X93341904Y160827620D02*
X93341904Y161827620D01*
X93580000Y161827620D01*
X93722857Y161780000D01*
X93818095Y161684762D01*
X93865714Y161589524D01*
X93913333Y161399048D01*
X93913333Y161256191D01*
X93865714Y161065715D01*
X93818095Y160970477D01*
X93722857Y160875239D01*
X93580000Y160827620D01*
X93341904Y160827620D01*
X164127619Y151445477D02*
X164127619Y150826429D01*
X163746666Y151159762D01*
X163746666Y151016905D01*
X163699047Y150921667D01*
X163651428Y150874048D01*
X163556190Y150826429D01*
X163318095Y150826429D01*
X163222857Y150874048D01*
X163175238Y150921667D01*
X163127619Y151016905D01*
X163127619Y151302620D01*
X163175238Y151397858D01*
X163222857Y151445477D01*
X163794285Y150493096D02*
X163127619Y150255000D01*
X163794285Y150016905D01*
X164127619Y149731191D02*
X164127619Y149112143D01*
X163746666Y149445477D01*
X163746666Y149302620D01*
X163699047Y149207381D01*
X163651428Y149159762D01*
X163556190Y149112143D01*
X163318095Y149112143D01*
X163222857Y149159762D01*
X163175238Y149207381D01*
X163127619Y149302620D01*
X163127619Y149588334D01*
X163175238Y149683572D01*
X163222857Y149731191D01*
X122480000Y150841905D02*
X122527619Y150937143D01*
X122527619Y151080000D01*
X122480000Y151222858D01*
X122384761Y151318096D01*
X122289523Y151365715D01*
X122099047Y151413334D01*
X121956190Y151413334D01*
X121765714Y151365715D01*
X121670476Y151318096D01*
X121575238Y151222858D01*
X121527619Y151080000D01*
X121527619Y150984762D01*
X121575238Y150841905D01*
X121622857Y150794286D01*
X121956190Y150794286D01*
X121956190Y150984762D01*
X121527619Y150365715D02*
X122527619Y150365715D01*
X121527619Y149794286D01*
X122527619Y149794286D01*
X121527619Y149318096D02*
X122527619Y149318096D01*
X122527619Y149080000D01*
X122480000Y148937143D01*
X122384761Y148841905D01*
X122289523Y148794286D01*
X122099047Y148746667D01*
X121956190Y148746667D01*
X121765714Y148794286D01*
X121670476Y148841905D01*
X121575238Y148937143D01*
X121527619Y149080000D01*
X121527619Y149318096D01*
X94701428Y160950239D02*
X94844285Y160902620D01*
X95082380Y160902620D01*
X95177619Y160950239D01*
X95225238Y160997858D01*
X95272857Y161093096D01*
X95272857Y161188334D01*
X95225238Y161283572D01*
X95177619Y161331191D01*
X95082380Y161378810D01*
X94891904Y161426429D01*
X94796666Y161474048D01*
X94749047Y161521667D01*
X94701428Y161616905D01*
X94701428Y161712143D01*
X94749047Y161807381D01*
X94796666Y161855000D01*
X94891904Y161902620D01*
X95130000Y161902620D01*
X95272857Y161855000D01*
X95701428Y160902620D02*
X95701428Y161569286D01*
X95701428Y161902620D02*
X95653809Y161855000D01*
X95701428Y161807381D01*
X95749047Y161855000D01*
X95701428Y161902620D01*
X95701428Y161807381D01*
X96606190Y161569286D02*
X96606190Y160759762D01*
X96558571Y160664524D01*
X96510952Y160616905D01*
X96415714Y160569286D01*
X96272857Y160569286D01*
X96177619Y160616905D01*
X96606190Y160950239D02*
X96510952Y160902620D01*
X96320476Y160902620D01*
X96225238Y160950239D01*
X96177619Y160997858D01*
X96130000Y161093096D01*
X96130000Y161378810D01*
X96177619Y161474048D01*
X96225238Y161521667D01*
X96320476Y161569286D01*
X96510952Y161569286D01*
X96606190Y161521667D01*
X97082380Y161569286D02*
X97082380Y160902620D01*
X97082380Y161474048D02*
X97130000Y161521667D01*
X97225238Y161569286D01*
X97368095Y161569286D01*
X97463333Y161521667D01*
X97510952Y161426429D01*
X97510952Y160902620D01*
X203175238Y151383572D02*
X203127619Y151240715D01*
X203127619Y151002620D01*
X203175238Y150907381D01*
X203222857Y150859762D01*
X203318095Y150812143D01*
X203413333Y150812143D01*
X203508571Y150859762D01*
X203556190Y150907381D01*
X203603809Y151002620D01*
X203651428Y151193096D01*
X203699047Y151288334D01*
X203746666Y151335953D01*
X203841904Y151383572D01*
X203937142Y151383572D01*
X204032380Y151335953D01*
X204080000Y151288334D01*
X204127619Y151193096D01*
X204127619Y150955000D01*
X204080000Y150812143D01*
X203127619Y150383572D02*
X203794285Y150383572D01*
X204127619Y150383572D02*
X204080000Y150431191D01*
X204032380Y150383572D01*
X204080000Y150335953D01*
X204127619Y150383572D01*
X204032380Y150383572D01*
X203794285Y149478810D02*
X202984761Y149478810D01*
X202889523Y149526429D01*
X202841904Y149574048D01*
X202794285Y149669286D01*
X202794285Y149812143D01*
X202841904Y149907381D01*
X203175238Y149478810D02*
X203127619Y149574048D01*
X203127619Y149764524D01*
X203175238Y149859762D01*
X203222857Y149907381D01*
X203318095Y149955000D01*
X203603809Y149955000D01*
X203699047Y149907381D01*
X203746666Y149859762D01*
X203794285Y149764524D01*
X203794285Y149574048D01*
X203746666Y149478810D01*
X203794285Y149002620D02*
X203127619Y149002620D01*
X203699047Y149002620D02*
X203746666Y148955000D01*
X203794285Y148859762D01*
X203794285Y148716905D01*
X203746666Y148621667D01*
X203651428Y148574048D01*
X203127619Y148574048D01*
X124125238Y151408572D02*
X124077619Y151265715D01*
X124077619Y151027620D01*
X124125238Y150932381D01*
X124172857Y150884762D01*
X124268095Y150837143D01*
X124363333Y150837143D01*
X124458571Y150884762D01*
X124506190Y150932381D01*
X124553809Y151027620D01*
X124601428Y151218096D01*
X124649047Y151313334D01*
X124696666Y151360953D01*
X124791904Y151408572D01*
X124887142Y151408572D01*
X124982380Y151360953D01*
X125030000Y151313334D01*
X125077619Y151218096D01*
X125077619Y150980000D01*
X125030000Y150837143D01*
X124077619Y150408572D02*
X124744285Y150408572D01*
X125077619Y150408572D02*
X125030000Y150456191D01*
X124982380Y150408572D01*
X125030000Y150360953D01*
X125077619Y150408572D01*
X124982380Y150408572D01*
X124744285Y149503810D02*
X123934761Y149503810D01*
X123839523Y149551429D01*
X123791904Y149599048D01*
X123744285Y149694286D01*
X123744285Y149837143D01*
X123791904Y149932381D01*
X124125238Y149503810D02*
X124077619Y149599048D01*
X124077619Y149789524D01*
X124125238Y149884762D01*
X124172857Y149932381D01*
X124268095Y149980000D01*
X124553809Y149980000D01*
X124649047Y149932381D01*
X124696666Y149884762D01*
X124744285Y149789524D01*
X124744285Y149599048D01*
X124696666Y149503810D01*
X124744285Y149027620D02*
X124077619Y149027620D01*
X124649047Y149027620D02*
X124696666Y148980000D01*
X124744285Y148884762D01*
X124744285Y148741905D01*
X124696666Y148646667D01*
X124601428Y148599048D01*
X124077619Y148599048D01*
X169955000Y150791905D02*
X170002619Y150887143D01*
X170002619Y151030000D01*
X169955000Y151172858D01*
X169859761Y151268096D01*
X169764523Y151315715D01*
X169574047Y151363334D01*
X169431190Y151363334D01*
X169240714Y151315715D01*
X169145476Y151268096D01*
X169050238Y151172858D01*
X169002619Y151030000D01*
X169002619Y150934762D01*
X169050238Y150791905D01*
X169097857Y150744286D01*
X169431190Y150744286D01*
X169431190Y150934762D01*
X169002619Y150315715D02*
X170002619Y150315715D01*
X169002619Y149744286D01*
X170002619Y149744286D01*
X169002619Y149268096D02*
X170002619Y149268096D01*
X170002619Y149030000D01*
X169955000Y148887143D01*
X169859761Y148791905D01*
X169764523Y148744286D01*
X169574047Y148696667D01*
X169431190Y148696667D01*
X169240714Y148744286D01*
X169145476Y148791905D01*
X169050238Y148887143D01*
X169002619Y149030000D01*
X169002619Y149268096D01*
X167329047Y37073572D02*
X168090952Y37073572D01*
D11*
X159288333Y152052620D02*
X158955000Y152528810D01*
X158716904Y152052620D02*
X158716904Y153052620D01*
X159097857Y153052620D01*
X159193095Y153005000D01*
X159240714Y152957381D01*
X159288333Y152862143D01*
X159288333Y152719286D01*
X159240714Y152624048D01*
X159193095Y152576429D01*
X159097857Y152528810D01*
X158716904Y152528810D01*
X159859761Y152052620D02*
X159764523Y152100239D01*
X159716904Y152147858D01*
X159669285Y152243096D01*
X159669285Y152528810D01*
X159716904Y152624048D01*
X159764523Y152671667D01*
X159859761Y152719286D01*
X160002619Y152719286D01*
X160097857Y152671667D01*
X160145476Y152624048D01*
X160193095Y152528810D01*
X160193095Y152243096D01*
X160145476Y152147858D01*
X160097857Y152100239D01*
X160002619Y152052620D01*
X159859761Y152052620D01*
X160478809Y152719286D02*
X160859761Y152719286D01*
X160621666Y153052620D02*
X160621666Y152195477D01*
X160669285Y152100239D01*
X160764523Y152052620D01*
X160859761Y152052620D01*
X161335952Y152052620D02*
X161240714Y152100239D01*
X161193095Y152147858D01*
X161145476Y152243096D01*
X161145476Y152528810D01*
X161193095Y152624048D01*
X161240714Y152671667D01*
X161335952Y152719286D01*
X161478809Y152719286D01*
X161574047Y152671667D01*
X161621666Y152624048D01*
X161669285Y152528810D01*
X161669285Y152243096D01*
X161621666Y152147858D01*
X161574047Y152100239D01*
X161478809Y152052620D01*
X161335952Y152052620D01*
X162097857Y152052620D02*
X162097857Y152719286D01*
X162097857Y152528810D02*
X162145476Y152624048D01*
X162193095Y152671667D01*
X162288333Y152719286D01*
X162383571Y152719286D01*
X163145476Y152719286D02*
X163145476Y152052620D01*
X162907380Y153100239D02*
X162669285Y152385953D01*
X163288333Y152385953D01*
D12*
X169809047Y37098572D02*
X170570952Y37098572D01*
X170190000Y36717620D02*
X170190000Y37479524D01*
D11*
X122863333Y151977620D02*
X122530000Y152453810D01*
X122291904Y151977620D02*
X122291904Y152977620D01*
X122672857Y152977620D01*
X122768095Y152930000D01*
X122815714Y152882381D01*
X122863333Y152787143D01*
X122863333Y152644286D01*
X122815714Y152549048D01*
X122768095Y152501429D01*
X122672857Y152453810D01*
X122291904Y152453810D01*
X123434761Y151977620D02*
X123339523Y152025239D01*
X123291904Y152072858D01*
X123244285Y152168096D01*
X123244285Y152453810D01*
X123291904Y152549048D01*
X123339523Y152596667D01*
X123434761Y152644286D01*
X123577619Y152644286D01*
X123672857Y152596667D01*
X123720476Y152549048D01*
X123768095Y152453810D01*
X123768095Y152168096D01*
X123720476Y152072858D01*
X123672857Y152025239D01*
X123577619Y151977620D01*
X123434761Y151977620D01*
X124053809Y152644286D02*
X124434761Y152644286D01*
X124196666Y152977620D02*
X124196666Y152120477D01*
X124244285Y152025239D01*
X124339523Y151977620D01*
X124434761Y151977620D01*
X124910952Y151977620D02*
X124815714Y152025239D01*
X124768095Y152072858D01*
X124720476Y152168096D01*
X124720476Y152453810D01*
X124768095Y152549048D01*
X124815714Y152596667D01*
X124910952Y152644286D01*
X125053809Y152644286D01*
X125149047Y152596667D01*
X125196666Y152549048D01*
X125244285Y152453810D01*
X125244285Y152168096D01*
X125196666Y152072858D01*
X125149047Y152025239D01*
X125053809Y151977620D01*
X124910952Y151977620D01*
X125672857Y151977620D02*
X125672857Y152644286D01*
X125672857Y152453810D02*
X125720476Y152549048D01*
X125768095Y152596667D01*
X125863333Y152644286D01*
X125958571Y152644286D01*
X126815714Y151977620D02*
X126244285Y151977620D01*
X126530000Y151977620D02*
X126530000Y152977620D01*
X126434761Y152834762D01*
X126339523Y152739524D01*
X126244285Y152691905D01*
D12*
X158830000Y150966905D02*
X158877619Y151062143D01*
X158877619Y151205000D01*
X158830000Y151347858D01*
X158734761Y151443096D01*
X158639523Y151490715D01*
X158449047Y151538334D01*
X158306190Y151538334D01*
X158115714Y151490715D01*
X158020476Y151443096D01*
X157925238Y151347858D01*
X157877619Y151205000D01*
X157877619Y151109762D01*
X157925238Y150966905D01*
X157972857Y150919286D01*
X158306190Y150919286D01*
X158306190Y151109762D01*
X157877619Y150490715D02*
X158877619Y150490715D01*
X157877619Y149919286D01*
X158877619Y149919286D01*
X157877619Y149443096D02*
X158877619Y149443096D01*
X158877619Y149205000D01*
X158830000Y149062143D01*
X158734761Y148966905D01*
X158639523Y148919286D01*
X158449047Y148871667D01*
X158306190Y148871667D01*
X158115714Y148919286D01*
X158020476Y148966905D01*
X157925238Y149062143D01*
X157877619Y149205000D01*
X157877619Y149443096D01*
X138427619Y151345477D02*
X138427619Y150726429D01*
X138046666Y151059762D01*
X138046666Y150916905D01*
X137999047Y150821667D01*
X137951428Y150774048D01*
X137856190Y150726429D01*
X137618095Y150726429D01*
X137522857Y150774048D01*
X137475238Y150821667D01*
X137427619Y150916905D01*
X137427619Y151202620D01*
X137475238Y151297858D01*
X137522857Y151345477D01*
X138094285Y150393096D02*
X137427619Y150155000D01*
X138094285Y149916905D01*
X138427619Y149631191D02*
X138427619Y149012143D01*
X138046666Y149345477D01*
X138046666Y149202620D01*
X137999047Y149107381D01*
X137951428Y149059762D01*
X137856190Y149012143D01*
X137618095Y149012143D01*
X137522857Y149059762D01*
X137475238Y149107381D01*
X137427619Y149202620D01*
X137427619Y149488334D01*
X137475238Y149583572D01*
X137522857Y149631191D01*
X96025238Y151058572D02*
X95977619Y150915715D01*
X95977619Y150677620D01*
X96025238Y150582381D01*
X96072857Y150534762D01*
X96168095Y150487143D01*
X96263333Y150487143D01*
X96358571Y150534762D01*
X96406190Y150582381D01*
X96453809Y150677620D01*
X96501428Y150868096D01*
X96549047Y150963334D01*
X96596666Y151010953D01*
X96691904Y151058572D01*
X96787142Y151058572D01*
X96882380Y151010953D01*
X96930000Y150963334D01*
X96977619Y150868096D01*
X96977619Y150630000D01*
X96930000Y150487143D01*
X95977619Y150058572D02*
X96644285Y150058572D01*
X96977619Y150058572D02*
X96930000Y150106191D01*
X96882380Y150058572D01*
X96930000Y150010953D01*
X96977619Y150058572D01*
X96882380Y150058572D01*
X96644285Y149153810D02*
X95834761Y149153810D01*
X95739523Y149201429D01*
X95691904Y149249048D01*
X95644285Y149344286D01*
X95644285Y149487143D01*
X95691904Y149582381D01*
X96025238Y149153810D02*
X95977619Y149249048D01*
X95977619Y149439524D01*
X96025238Y149534762D01*
X96072857Y149582381D01*
X96168095Y149630000D01*
X96453809Y149630000D01*
X96549047Y149582381D01*
X96596666Y149534762D01*
X96644285Y149439524D01*
X96644285Y149249048D01*
X96596666Y149153810D01*
X96644285Y148677620D02*
X95977619Y148677620D01*
X96549047Y148677620D02*
X96596666Y148630000D01*
X96644285Y148534762D01*
X96644285Y148391905D01*
X96596666Y148296667D01*
X96501428Y148249048D01*
X95977619Y148249048D01*
X160575238Y151408572D02*
X160527619Y151265715D01*
X160527619Y151027620D01*
X160575238Y150932381D01*
X160622857Y150884762D01*
X160718095Y150837143D01*
X160813333Y150837143D01*
X160908571Y150884762D01*
X160956190Y150932381D01*
X161003809Y151027620D01*
X161051428Y151218096D01*
X161099047Y151313334D01*
X161146666Y151360953D01*
X161241904Y151408572D01*
X161337142Y151408572D01*
X161432380Y151360953D01*
X161480000Y151313334D01*
X161527619Y151218096D01*
X161527619Y150980000D01*
X161480000Y150837143D01*
X160527619Y150408572D02*
X161194285Y150408572D01*
X161527619Y150408572D02*
X161480000Y150456191D01*
X161432380Y150408572D01*
X161480000Y150360953D01*
X161527619Y150408572D01*
X161432380Y150408572D01*
X161194285Y149503810D02*
X160384761Y149503810D01*
X160289523Y149551429D01*
X160241904Y149599048D01*
X160194285Y149694286D01*
X160194285Y149837143D01*
X160241904Y149932381D01*
X160575238Y149503810D02*
X160527619Y149599048D01*
X160527619Y149789524D01*
X160575238Y149884762D01*
X160622857Y149932381D01*
X160718095Y149980000D01*
X161003809Y149980000D01*
X161099047Y149932381D01*
X161146666Y149884762D01*
X161194285Y149789524D01*
X161194285Y149599048D01*
X161146666Y149503810D01*
X161194285Y149027620D02*
X160527619Y149027620D01*
X161099047Y149027620D02*
X161146666Y148980000D01*
X161194285Y148884762D01*
X161194285Y148741905D01*
X161146666Y148646667D01*
X161051428Y148599048D01*
X160527619Y148599048D01*
D13*
X135302857Y115162858D02*
X135874285Y115162858D01*
X136160000Y115305715D01*
X136302857Y115448572D01*
X136588571Y115877143D01*
X136731428Y116448572D01*
X136731428Y117591429D01*
X136588571Y117877143D01*
X136445714Y118020000D01*
X136160000Y118162858D01*
X135588571Y118162858D01*
X135302857Y118020000D01*
X135160000Y117877143D01*
X135017142Y117591429D01*
X135017142Y116877143D01*
X135160000Y116591429D01*
X135302857Y116448572D01*
X135588571Y116305715D01*
X136160000Y116305715D01*
X136445714Y116448572D01*
X136588571Y116591429D01*
X136731428Y116877143D01*
X138160000Y115162858D02*
X138731428Y115162858D01*
X139017142Y115305715D01*
X139160000Y115448572D01*
X139445714Y115877143D01*
X139588571Y116448572D01*
X139588571Y117591429D01*
X139445714Y117877143D01*
X139302857Y118020000D01*
X139017142Y118162858D01*
X138445714Y118162858D01*
X138160000Y118020000D01*
X138017142Y117877143D01*
X137874285Y117591429D01*
X137874285Y116877143D01*
X138017142Y116591429D01*
X138160000Y116448572D01*
X138445714Y116305715D01*
X139017142Y116305715D01*
X139302857Y116448572D01*
X139445714Y116591429D01*
X139588571Y116877143D01*
X140731428Y117877143D02*
X140874285Y118020000D01*
X141160000Y118162858D01*
X141874285Y118162858D01*
X142160000Y118020000D01*
X142302857Y117877143D01*
X142445714Y117591429D01*
X142445714Y117305715D01*
X142302857Y116877143D01*
X140588571Y115162858D01*
X142445714Y115162858D01*
X145302857Y118020000D02*
X145017142Y118162858D01*
X144588571Y118162858D01*
X144160000Y118020000D01*
X143874285Y117734286D01*
X143731428Y117448572D01*
X143588571Y116877143D01*
X143588571Y116448572D01*
X143731428Y115877143D01*
X143874285Y115591429D01*
X144160000Y115305715D01*
X144588571Y115162858D01*
X144874285Y115162858D01*
X145302857Y115305715D01*
X145445714Y115448572D01*
X145445714Y116448572D01*
X144874285Y116448572D01*
X146302857Y118162858D02*
X148017142Y118162858D01*
X147160000Y115162858D02*
X147160000Y118162858D01*
X148731428Y118162858D02*
X150588571Y118162858D01*
X149588571Y117020000D01*
X150017142Y117020000D01*
X150302857Y116877143D01*
X150445714Y116734286D01*
X150588571Y116448572D01*
X150588571Y115734286D01*
X150445714Y115448572D01*
X150302857Y115305715D01*
X150017142Y115162858D01*
X149160000Y115162858D01*
X148874285Y115305715D01*
X148731428Y115448572D01*
X153588571Y115162858D02*
X152588571Y116591429D01*
X151874285Y115162858D02*
X151874285Y118162858D01*
X153017142Y118162858D01*
X153302857Y118020000D01*
X153445714Y117877143D01*
X153588571Y117591429D01*
X153588571Y117162858D01*
X153445714Y116877143D01*
X153302857Y116734286D01*
X153017142Y116591429D01*
X151874285Y116591429D01*
X154445714Y118162858D02*
X155445714Y115162858D01*
X156445714Y118162858D01*
X157302857Y117877143D02*
X157445714Y118020000D01*
X157731428Y118162858D01*
X158445714Y118162858D01*
X158731428Y118020000D01*
X158874285Y117877143D01*
X159017142Y117591429D01*
X159017142Y117305715D01*
X158874285Y116877143D01*
X157160000Y115162858D01*
X159017142Y115162858D01*
X160302857Y115448572D02*
X160445714Y115305715D01*
X160302857Y115162858D01*
X160160000Y115305715D01*
X160302857Y115448572D01*
X160302857Y115162858D01*
X162302857Y118162858D02*
X162588571Y118162858D01*
X162874285Y118020000D01*
X163017142Y117877143D01*
X163160000Y117591429D01*
X163302857Y117020000D01*
X163302857Y116305715D01*
X163160000Y115734286D01*
X163017142Y115448572D01*
X162874285Y115305715D01*
X162588571Y115162858D01*
X162302857Y115162858D01*
X162017142Y115305715D01*
X161874285Y115448572D01*
X161731428Y115734286D01*
X161588571Y116305715D01*
X161588571Y117020000D01*
X161731428Y117591429D01*
X161874285Y117877143D01*
X162017142Y118020000D01*
X162302857Y118162858D01*
D12*
X113375238Y151033572D02*
X113327619Y150890715D01*
X113327619Y150652620D01*
X113375238Y150557381D01*
X113422857Y150509762D01*
X113518095Y150462143D01*
X113613333Y150462143D01*
X113708571Y150509762D01*
X113756190Y150557381D01*
X113803809Y150652620D01*
X113851428Y150843096D01*
X113899047Y150938334D01*
X113946666Y150985953D01*
X114041904Y151033572D01*
X114137142Y151033572D01*
X114232380Y150985953D01*
X114280000Y150938334D01*
X114327619Y150843096D01*
X114327619Y150605000D01*
X114280000Y150462143D01*
X113327619Y150033572D02*
X113994285Y150033572D01*
X114327619Y150033572D02*
X114280000Y150081191D01*
X114232380Y150033572D01*
X114280000Y149985953D01*
X114327619Y150033572D01*
X114232380Y150033572D01*
X113994285Y149128810D02*
X113184761Y149128810D01*
X113089523Y149176429D01*
X113041904Y149224048D01*
X112994285Y149319286D01*
X112994285Y149462143D01*
X113041904Y149557381D01*
X113375238Y149128810D02*
X113327619Y149224048D01*
X113327619Y149414524D01*
X113375238Y149509762D01*
X113422857Y149557381D01*
X113518095Y149605000D01*
X113803809Y149605000D01*
X113899047Y149557381D01*
X113946666Y149509762D01*
X113994285Y149414524D01*
X113994285Y149224048D01*
X113946666Y149128810D01*
X113994285Y148652620D02*
X113327619Y148652620D01*
X113899047Y148652620D02*
X113946666Y148605000D01*
X113994285Y148509762D01*
X113994285Y148366905D01*
X113946666Y148271667D01*
X113851428Y148224048D01*
X113327619Y148224048D01*
X192455000Y150466905D02*
X192502619Y150562143D01*
X192502619Y150705000D01*
X192455000Y150847858D01*
X192359761Y150943096D01*
X192264523Y150990715D01*
X192074047Y151038334D01*
X191931190Y151038334D01*
X191740714Y150990715D01*
X191645476Y150943096D01*
X191550238Y150847858D01*
X191502619Y150705000D01*
X191502619Y150609762D01*
X191550238Y150466905D01*
X191597857Y150419286D01*
X191931190Y150419286D01*
X191931190Y150609762D01*
X191502619Y149990715D02*
X192502619Y149990715D01*
X191502619Y149419286D01*
X192502619Y149419286D01*
X191502619Y148943096D02*
X192502619Y148943096D01*
X192502619Y148705000D01*
X192455000Y148562143D01*
X192359761Y148466905D01*
X192264523Y148419286D01*
X192074047Y148371667D01*
X191931190Y148371667D01*
X191740714Y148419286D01*
X191645476Y148466905D01*
X191550238Y148562143D01*
X191502619Y148705000D01*
X191502619Y148943096D01*
X182328333Y49176620D02*
X181852142Y49176620D01*
X181852142Y50176620D01*
X182661666Y49700429D02*
X182995000Y49700429D01*
X183137857Y49176620D02*
X182661666Y49176620D01*
X182661666Y50176620D01*
X183137857Y50176620D01*
X183566428Y49176620D02*
X183566428Y50176620D01*
X183804523Y50176620D01*
X183947380Y50129000D01*
X184042619Y50033762D01*
X184090238Y49938524D01*
X184137857Y49748048D01*
X184137857Y49605191D01*
X184090238Y49414715D01*
X184042619Y49319477D01*
X183947380Y49224239D01*
X183804523Y49176620D01*
X183566428Y49176620D01*
X184756904Y50176620D02*
X184947380Y50176620D01*
X185042619Y50129000D01*
X185137857Y50033762D01*
X185185476Y49843286D01*
X185185476Y49509953D01*
X185137857Y49319477D01*
X185042619Y49224239D01*
X184947380Y49176620D01*
X184756904Y49176620D01*
X184661666Y49224239D01*
X184566428Y49319477D01*
X184518809Y49509953D01*
X184518809Y49843286D01*
X184566428Y50033762D01*
X184661666Y50129000D01*
X184756904Y50176620D01*
D11*
X92614523Y151950239D02*
X92757380Y151902620D01*
X92995476Y151902620D01*
X93090714Y151950239D01*
X93138333Y151997858D01*
X93185952Y152093096D01*
X93185952Y152188334D01*
X93138333Y152283572D01*
X93090714Y152331191D01*
X92995476Y152378810D01*
X92805000Y152426429D01*
X92709761Y152474048D01*
X92662142Y152521667D01*
X92614523Y152616905D01*
X92614523Y152712143D01*
X92662142Y152807381D01*
X92709761Y152855000D01*
X92805000Y152902620D01*
X93043095Y152902620D01*
X93185952Y152855000D01*
X93614523Y151902620D02*
X93614523Y152902620D01*
X94043095Y151902620D02*
X94043095Y152426429D01*
X93995476Y152521667D01*
X93900238Y152569286D01*
X93757380Y152569286D01*
X93662142Y152521667D01*
X93614523Y152474048D01*
X94519285Y151902620D02*
X94519285Y152569286D01*
X94519285Y152902620D02*
X94471666Y152855000D01*
X94519285Y152807381D01*
X94566904Y152855000D01*
X94519285Y152902620D01*
X94519285Y152807381D01*
X94852619Y152569286D02*
X95233571Y152569286D01*
X94995476Y151902620D02*
X94995476Y152759762D01*
X95043095Y152855000D01*
X95138333Y152902620D01*
X95233571Y152902620D01*
X95424047Y152569286D02*
X95805000Y152569286D01*
X95566904Y152902620D02*
X95566904Y152045477D01*
X95614523Y151950239D01*
X95709761Y151902620D01*
X95805000Y151902620D01*
X96519285Y151950239D02*
X96424047Y151902620D01*
X96233571Y151902620D01*
X96138333Y151950239D01*
X96090714Y152045477D01*
X96090714Y152426429D01*
X96138333Y152521667D01*
X96233571Y152569286D01*
X96424047Y152569286D01*
X96519285Y152521667D01*
X96566904Y152426429D01*
X96566904Y152331191D01*
X96090714Y152235953D01*
X96995476Y151902620D02*
X96995476Y152569286D01*
X96995476Y152378810D02*
X97043095Y152474048D01*
X97090714Y152521667D01*
X97185952Y152569286D01*
X97281190Y152569286D01*
X98090714Y151902620D02*
X97614523Y151902620D01*
X97614523Y152902620D01*
D12*
X166401428Y41075239D02*
X166544285Y41027620D01*
X166782380Y41027620D01*
X166877619Y41075239D01*
X166925238Y41122858D01*
X166972857Y41218096D01*
X166972857Y41313334D01*
X166925238Y41408572D01*
X166877619Y41456191D01*
X166782380Y41503810D01*
X166591904Y41551429D01*
X166496666Y41599048D01*
X166449047Y41646667D01*
X166401428Y41741905D01*
X166401428Y41837143D01*
X166449047Y41932381D01*
X166496666Y41980000D01*
X166591904Y42027620D01*
X166830000Y42027620D01*
X166972857Y41980000D01*
X167401428Y41027620D02*
X167401428Y41694286D01*
X167401428Y42027620D02*
X167353809Y41980000D01*
X167401428Y41932381D01*
X167449047Y41980000D01*
X167401428Y42027620D01*
X167401428Y41932381D01*
X168306190Y41694286D02*
X168306190Y40884762D01*
X168258571Y40789524D01*
X168210952Y40741905D01*
X168115714Y40694286D01*
X167972857Y40694286D01*
X167877619Y40741905D01*
X168306190Y41075239D02*
X168210952Y41027620D01*
X168020476Y41027620D01*
X167925238Y41075239D01*
X167877619Y41122858D01*
X167830000Y41218096D01*
X167830000Y41503810D01*
X167877619Y41599048D01*
X167925238Y41646667D01*
X168020476Y41694286D01*
X168210952Y41694286D01*
X168306190Y41646667D01*
X168782380Y41694286D02*
X168782380Y41027620D01*
X168782380Y41599048D02*
X168830000Y41646667D01*
X168925238Y41694286D01*
X169068095Y41694286D01*
X169163333Y41646667D01*
X169210952Y41551429D01*
X169210952Y41027620D01*
X170258571Y41027620D02*
X169925238Y41503810D01*
X169687142Y41027620D02*
X169687142Y42027620D01*
X170068095Y42027620D01*
X170163333Y41980000D01*
X170210952Y41932381D01*
X170258571Y41837143D01*
X170258571Y41694286D01*
X170210952Y41599048D01*
X170163333Y41551429D01*
X170068095Y41503810D01*
X169687142Y41503810D01*
X135125238Y151383572D02*
X135077619Y151240715D01*
X135077619Y151002620D01*
X135125238Y150907381D01*
X135172857Y150859762D01*
X135268095Y150812143D01*
X135363333Y150812143D01*
X135458571Y150859762D01*
X135506190Y150907381D01*
X135553809Y151002620D01*
X135601428Y151193096D01*
X135649047Y151288334D01*
X135696666Y151335953D01*
X135791904Y151383572D01*
X135887142Y151383572D01*
X135982380Y151335953D01*
X136030000Y151288334D01*
X136077619Y151193096D01*
X136077619Y150955000D01*
X136030000Y150812143D01*
X135077619Y150383572D02*
X135744285Y150383572D01*
X136077619Y150383572D02*
X136030000Y150431191D01*
X135982380Y150383572D01*
X136030000Y150335953D01*
X136077619Y150383572D01*
X135982380Y150383572D01*
X135744285Y149478810D02*
X134934761Y149478810D01*
X134839523Y149526429D01*
X134791904Y149574048D01*
X134744285Y149669286D01*
X134744285Y149812143D01*
X134791904Y149907381D01*
X135125238Y149478810D02*
X135077619Y149574048D01*
X135077619Y149764524D01*
X135125238Y149859762D01*
X135172857Y149907381D01*
X135268095Y149955000D01*
X135553809Y149955000D01*
X135649047Y149907381D01*
X135696666Y149859762D01*
X135744285Y149764524D01*
X135744285Y149574048D01*
X135696666Y149478810D01*
X135744285Y149002620D02*
X135077619Y149002620D01*
X135649047Y149002620D02*
X135696666Y148955000D01*
X135744285Y148859762D01*
X135744285Y148716905D01*
X135696666Y148621667D01*
X135601428Y148574048D01*
X135077619Y148574048D01*
X202976428Y160975239D02*
X203119285Y160927620D01*
X203357380Y160927620D01*
X203452619Y160975239D01*
X203500238Y161022858D01*
X203547857Y161118096D01*
X203547857Y161213334D01*
X203500238Y161308572D01*
X203452619Y161356191D01*
X203357380Y161403810D01*
X203166904Y161451429D01*
X203071666Y161499048D01*
X203024047Y161546667D01*
X202976428Y161641905D01*
X202976428Y161737143D01*
X203024047Y161832381D01*
X203071666Y161880000D01*
X203166904Y161927620D01*
X203405000Y161927620D01*
X203547857Y161880000D01*
X203976428Y160927620D02*
X203976428Y161594286D01*
X203976428Y161927620D02*
X203928809Y161880000D01*
X203976428Y161832381D01*
X204024047Y161880000D01*
X203976428Y161927620D01*
X203976428Y161832381D01*
X204881190Y161594286D02*
X204881190Y160784762D01*
X204833571Y160689524D01*
X204785952Y160641905D01*
X204690714Y160594286D01*
X204547857Y160594286D01*
X204452619Y160641905D01*
X204881190Y160975239D02*
X204785952Y160927620D01*
X204595476Y160927620D01*
X204500238Y160975239D01*
X204452619Y161022858D01*
X204405000Y161118096D01*
X204405000Y161403810D01*
X204452619Y161499048D01*
X204500238Y161546667D01*
X204595476Y161594286D01*
X204785952Y161594286D01*
X204881190Y161546667D01*
X205357380Y161594286D02*
X205357380Y160927620D01*
X205357380Y161499048D02*
X205405000Y161546667D01*
X205500238Y161594286D01*
X205643095Y161594286D01*
X205738333Y161546667D01*
X205785952Y161451429D01*
X205785952Y160927620D01*
X194075238Y151183572D02*
X194027619Y151040715D01*
X194027619Y150802620D01*
X194075238Y150707381D01*
X194122857Y150659762D01*
X194218095Y150612143D01*
X194313333Y150612143D01*
X194408571Y150659762D01*
X194456190Y150707381D01*
X194503809Y150802620D01*
X194551428Y150993096D01*
X194599047Y151088334D01*
X194646666Y151135953D01*
X194741904Y151183572D01*
X194837142Y151183572D01*
X194932380Y151135953D01*
X194980000Y151088334D01*
X195027619Y150993096D01*
X195027619Y150755000D01*
X194980000Y150612143D01*
X194027619Y150183572D02*
X194694285Y150183572D01*
X195027619Y150183572D02*
X194980000Y150231191D01*
X194932380Y150183572D01*
X194980000Y150135953D01*
X195027619Y150183572D01*
X194932380Y150183572D01*
X194694285Y149278810D02*
X193884761Y149278810D01*
X193789523Y149326429D01*
X193741904Y149374048D01*
X193694285Y149469286D01*
X193694285Y149612143D01*
X193741904Y149707381D01*
X194075238Y149278810D02*
X194027619Y149374048D01*
X194027619Y149564524D01*
X194075238Y149659762D01*
X194122857Y149707381D01*
X194218095Y149755000D01*
X194503809Y149755000D01*
X194599047Y149707381D01*
X194646666Y149659762D01*
X194694285Y149564524D01*
X194694285Y149374048D01*
X194646666Y149278810D01*
X194694285Y148802620D02*
X194027619Y148802620D01*
X194599047Y148802620D02*
X194646666Y148755000D01*
X194694285Y148659762D01*
X194694285Y148516905D01*
X194646666Y148421667D01*
X194551428Y148374048D01*
X194027619Y148374048D01*
X182437142Y40577620D02*
X181960952Y40577620D01*
X181960952Y41577620D01*
X182770476Y41101429D02*
X183103809Y41101429D01*
X183246666Y40577620D02*
X182770476Y40577620D01*
X182770476Y41577620D01*
X183246666Y41577620D01*
X183675238Y40577620D02*
X183675238Y41577620D01*
X183913333Y41577620D01*
X184056190Y41530000D01*
X184151428Y41434762D01*
X184199047Y41339524D01*
X184246666Y41149048D01*
X184246666Y41006191D01*
X184199047Y40815715D01*
X184151428Y40720477D01*
X184056190Y40625239D01*
X183913333Y40577620D01*
X183675238Y40577620D01*
X185008571Y41101429D02*
X185151428Y41053810D01*
X185199047Y41006191D01*
X185246666Y40910953D01*
X185246666Y40768096D01*
X185199047Y40672858D01*
X185151428Y40625239D01*
X185056190Y40577620D01*
X184675238Y40577620D01*
X184675238Y41577620D01*
X185008571Y41577620D01*
X185103809Y41530000D01*
X185151428Y41482381D01*
X185199047Y41387143D01*
X185199047Y41291905D01*
X185151428Y41196667D01*
X185103809Y41149048D01*
X185008571Y41101429D01*
X184675238Y41101429D01*
D11*
X199444285Y152075239D02*
X199587142Y152027620D01*
X199825238Y152027620D01*
X199920476Y152075239D01*
X199968095Y152122858D01*
X200015714Y152218096D01*
X200015714Y152313334D01*
X199968095Y152408572D01*
X199920476Y152456191D01*
X199825238Y152503810D01*
X199634761Y152551429D01*
X199539523Y152599048D01*
X199491904Y152646667D01*
X199444285Y152741905D01*
X199444285Y152837143D01*
X199491904Y152932381D01*
X199539523Y152980000D01*
X199634761Y153027620D01*
X199872857Y153027620D01*
X200015714Y152980000D01*
X200444285Y152027620D02*
X200444285Y153027620D01*
X200872857Y152027620D02*
X200872857Y152551429D01*
X200825238Y152646667D01*
X200730000Y152694286D01*
X200587142Y152694286D01*
X200491904Y152646667D01*
X200444285Y152599048D01*
X201349047Y152027620D02*
X201349047Y152694286D01*
X201349047Y153027620D02*
X201301428Y152980000D01*
X201349047Y152932381D01*
X201396666Y152980000D01*
X201349047Y153027620D01*
X201349047Y152932381D01*
X201682380Y152694286D02*
X202063333Y152694286D01*
X201825238Y152027620D02*
X201825238Y152884762D01*
X201872857Y152980000D01*
X201968095Y153027620D01*
X202063333Y153027620D01*
X202253809Y152694286D02*
X202634761Y152694286D01*
X202396666Y153027620D02*
X202396666Y152170477D01*
X202444285Y152075239D01*
X202539523Y152027620D01*
X202634761Y152027620D01*
X203349047Y152075239D02*
X203253809Y152027620D01*
X203063333Y152027620D01*
X202968095Y152075239D01*
X202920476Y152170477D01*
X202920476Y152551429D01*
X202968095Y152646667D01*
X203063333Y152694286D01*
X203253809Y152694286D01*
X203349047Y152646667D01*
X203396666Y152551429D01*
X203396666Y152456191D01*
X202920476Y152360953D01*
X203825238Y152027620D02*
X203825238Y152694286D01*
X203825238Y152503810D02*
X203872857Y152599048D01*
X203920476Y152646667D01*
X204015714Y152694286D01*
X204110952Y152694286D01*
X205015714Y152027620D02*
X204682380Y152503810D01*
X204444285Y152027620D02*
X204444285Y153027620D01*
X204825238Y153027620D01*
X204920476Y152980000D01*
X204968095Y152932381D01*
X205015714Y152837143D01*
X205015714Y152694286D01*
X204968095Y152599048D01*
X204920476Y152551429D01*
X204825238Y152503810D01*
X204444285Y152503810D01*
D12*
X171875238Y151208572D02*
X171827619Y151065715D01*
X171827619Y150827620D01*
X171875238Y150732381D01*
X171922857Y150684762D01*
X172018095Y150637143D01*
X172113333Y150637143D01*
X172208571Y150684762D01*
X172256190Y150732381D01*
X172303809Y150827620D01*
X172351428Y151018096D01*
X172399047Y151113334D01*
X172446666Y151160953D01*
X172541904Y151208572D01*
X172637142Y151208572D01*
X172732380Y151160953D01*
X172780000Y151113334D01*
X172827619Y151018096D01*
X172827619Y150780000D01*
X172780000Y150637143D01*
X171827619Y150208572D02*
X172494285Y150208572D01*
X172827619Y150208572D02*
X172780000Y150256191D01*
X172732380Y150208572D01*
X172780000Y150160953D01*
X172827619Y150208572D01*
X172732380Y150208572D01*
X172494285Y149303810D02*
X171684761Y149303810D01*
X171589523Y149351429D01*
X171541904Y149399048D01*
X171494285Y149494286D01*
X171494285Y149637143D01*
X171541904Y149732381D01*
X171875238Y149303810D02*
X171827619Y149399048D01*
X171827619Y149589524D01*
X171875238Y149684762D01*
X171922857Y149732381D01*
X172018095Y149780000D01*
X172303809Y149780000D01*
X172399047Y149732381D01*
X172446666Y149684762D01*
X172494285Y149589524D01*
X172494285Y149399048D01*
X172446666Y149303810D01*
X172494285Y148827620D02*
X171827619Y148827620D01*
X172399047Y148827620D02*
X172446666Y148780000D01*
X172494285Y148684762D01*
X172494285Y148541905D01*
X172446666Y148446667D01*
X172351428Y148399048D01*
X171827619Y148399048D01*
X183050238Y151358572D02*
X183002619Y151215715D01*
X183002619Y150977620D01*
X183050238Y150882381D01*
X183097857Y150834762D01*
X183193095Y150787143D01*
X183288333Y150787143D01*
X183383571Y150834762D01*
X183431190Y150882381D01*
X183478809Y150977620D01*
X183526428Y151168096D01*
X183574047Y151263334D01*
X183621666Y151310953D01*
X183716904Y151358572D01*
X183812142Y151358572D01*
X183907380Y151310953D01*
X183955000Y151263334D01*
X184002619Y151168096D01*
X184002619Y150930000D01*
X183955000Y150787143D01*
X183002619Y150358572D02*
X183669285Y150358572D01*
X184002619Y150358572D02*
X183955000Y150406191D01*
X183907380Y150358572D01*
X183955000Y150310953D01*
X184002619Y150358572D01*
X183907380Y150358572D01*
X183669285Y149453810D02*
X182859761Y149453810D01*
X182764523Y149501429D01*
X182716904Y149549048D01*
X182669285Y149644286D01*
X182669285Y149787143D01*
X182716904Y149882381D01*
X183050238Y149453810D02*
X183002619Y149549048D01*
X183002619Y149739524D01*
X183050238Y149834762D01*
X183097857Y149882381D01*
X183193095Y149930000D01*
X183478809Y149930000D01*
X183574047Y149882381D01*
X183621666Y149834762D01*
X183669285Y149739524D01*
X183669285Y149549048D01*
X183621666Y149453810D01*
X183669285Y148977620D02*
X183002619Y148977620D01*
X183574047Y148977620D02*
X183621666Y148930000D01*
X183669285Y148834762D01*
X183669285Y148691905D01*
X183621666Y148596667D01*
X183526428Y148549048D01*
X183002619Y148549048D01*
X201555000Y150666905D02*
X201602619Y150762143D01*
X201602619Y150905000D01*
X201555000Y151047858D01*
X201459761Y151143096D01*
X201364523Y151190715D01*
X201174047Y151238334D01*
X201031190Y151238334D01*
X200840714Y151190715D01*
X200745476Y151143096D01*
X200650238Y151047858D01*
X200602619Y150905000D01*
X200602619Y150809762D01*
X200650238Y150666905D01*
X200697857Y150619286D01*
X201031190Y150619286D01*
X201031190Y150809762D01*
X200602619Y150190715D02*
X201602619Y150190715D01*
X200602619Y149619286D01*
X201602619Y149619286D01*
X200602619Y149143096D02*
X201602619Y149143096D01*
X201602619Y148905000D01*
X201555000Y148762143D01*
X201459761Y148666905D01*
X201364523Y148619286D01*
X201174047Y148571667D01*
X201031190Y148571667D01*
X200840714Y148619286D01*
X200745476Y148666905D01*
X200650238Y148762143D01*
X200602619Y148905000D01*
X200602619Y149143096D01*
X164979523Y37637620D02*
X164503333Y37637620D01*
X164455714Y37161429D01*
X164503333Y37209048D01*
X164598571Y37256667D01*
X164836666Y37256667D01*
X164931904Y37209048D01*
X164979523Y37161429D01*
X165027142Y37066191D01*
X165027142Y36828096D01*
X164979523Y36732858D01*
X164931904Y36685239D01*
X164836666Y36637620D01*
X164598571Y36637620D01*
X164503333Y36685239D01*
X164455714Y36732858D01*
X165312857Y37637620D02*
X165646190Y36637620D01*
X165979523Y37637620D01*
D11*
X181714523Y152002620D02*
X181381190Y152478810D01*
X181143095Y152002620D02*
X181143095Y153002620D01*
X181524047Y153002620D01*
X181619285Y152955000D01*
X181666904Y152907381D01*
X181714523Y152812143D01*
X181714523Y152669286D01*
X181666904Y152574048D01*
X181619285Y152526429D01*
X181524047Y152478810D01*
X181143095Y152478810D01*
X182285952Y152002620D02*
X182190714Y152050239D01*
X182143095Y152097858D01*
X182095476Y152193096D01*
X182095476Y152478810D01*
X182143095Y152574048D01*
X182190714Y152621667D01*
X182285952Y152669286D01*
X182428809Y152669286D01*
X182524047Y152621667D01*
X182571666Y152574048D01*
X182619285Y152478810D01*
X182619285Y152193096D01*
X182571666Y152097858D01*
X182524047Y152050239D01*
X182428809Y152002620D01*
X182285952Y152002620D01*
X182905000Y152669286D02*
X183285952Y152669286D01*
X183047857Y153002620D02*
X183047857Y152145477D01*
X183095476Y152050239D01*
X183190714Y152002620D01*
X183285952Y152002620D01*
X183762142Y152002620D02*
X183666904Y152050239D01*
X183619285Y152097858D01*
X183571666Y152193096D01*
X183571666Y152478810D01*
X183619285Y152574048D01*
X183666904Y152621667D01*
X183762142Y152669286D01*
X183905000Y152669286D01*
X184000238Y152621667D01*
X184047857Y152574048D01*
X184095476Y152478810D01*
X184095476Y152193096D01*
X184047857Y152097858D01*
X184000238Y152050239D01*
X183905000Y152002620D01*
X183762142Y152002620D01*
X184524047Y152002620D02*
X184524047Y152669286D01*
X184524047Y152478810D02*
X184571666Y152574048D01*
X184619285Y152621667D01*
X184714523Y152669286D01*
X184809761Y152669286D01*
X185714523Y152002620D02*
X185381190Y152478810D01*
X185143095Y152002620D02*
X185143095Y153002620D01*
X185524047Y153002620D01*
X185619285Y152955000D01*
X185666904Y152907381D01*
X185714523Y152812143D01*
X185714523Y152669286D01*
X185666904Y152574048D01*
X185619285Y152526429D01*
X185524047Y152478810D01*
X185143095Y152478810D01*
D12*
X103230000Y150666905D02*
X103277619Y150762143D01*
X103277619Y150905000D01*
X103230000Y151047858D01*
X103134761Y151143096D01*
X103039523Y151190715D01*
X102849047Y151238334D01*
X102706190Y151238334D01*
X102515714Y151190715D01*
X102420476Y151143096D01*
X102325238Y151047858D01*
X102277619Y150905000D01*
X102277619Y150809762D01*
X102325238Y150666905D01*
X102372857Y150619286D01*
X102706190Y150619286D01*
X102706190Y150809762D01*
X102277619Y150190715D02*
X103277619Y150190715D01*
X102277619Y149619286D01*
X103277619Y149619286D01*
X102277619Y149143096D02*
X103277619Y149143096D01*
X103277619Y148905000D01*
X103230000Y148762143D01*
X103134761Y148666905D01*
X103039523Y148619286D01*
X102849047Y148571667D01*
X102706190Y148571667D01*
X102515714Y148619286D01*
X102420476Y148666905D01*
X102325238Y148762143D01*
X102277619Y148905000D01*
X102277619Y149143096D01*
X171878095Y37620000D02*
X171782857Y37667620D01*
X171640000Y37667620D01*
X171497142Y37620000D01*
X171401904Y37524762D01*
X171354285Y37429524D01*
X171306666Y37239048D01*
X171306666Y37096191D01*
X171354285Y36905715D01*
X171401904Y36810477D01*
X171497142Y36715239D01*
X171640000Y36667620D01*
X171735238Y36667620D01*
X171878095Y36715239D01*
X171925714Y36762858D01*
X171925714Y37096191D01*
X171735238Y37096191D01*
X172354285Y36667620D02*
X172354285Y37667620D01*
X172925714Y36667620D01*
X172925714Y37667620D01*
X173401904Y36667620D02*
X173401904Y37667620D01*
X173640000Y37667620D01*
X173782857Y37620000D01*
X173878095Y37524762D01*
X173925714Y37429524D01*
X173973333Y37239048D01*
X173973333Y37096191D01*
X173925714Y36905715D01*
X173878095Y36810477D01*
X173782857Y36715239D01*
X173640000Y36667620D01*
X173401904Y36667620D01*
X185575238Y151258572D02*
X185527619Y151115715D01*
X185527619Y150877620D01*
X185575238Y150782381D01*
X185622857Y150734762D01*
X185718095Y150687143D01*
X185813333Y150687143D01*
X185908571Y150734762D01*
X185956190Y150782381D01*
X186003809Y150877620D01*
X186051428Y151068096D01*
X186099047Y151163334D01*
X186146666Y151210953D01*
X186241904Y151258572D01*
X186337142Y151258572D01*
X186432380Y151210953D01*
X186480000Y151163334D01*
X186527619Y151068096D01*
X186527619Y150830000D01*
X186480000Y150687143D01*
X185527619Y150258572D02*
X186194285Y150258572D01*
X186527619Y150258572D02*
X186480000Y150306191D01*
X186432380Y150258572D01*
X186480000Y150210953D01*
X186527619Y150258572D01*
X186432380Y150258572D01*
X186194285Y149353810D02*
X185384761Y149353810D01*
X185289523Y149401429D01*
X185241904Y149449048D01*
X185194285Y149544286D01*
X185194285Y149687143D01*
X185241904Y149782381D01*
X185575238Y149353810D02*
X185527619Y149449048D01*
X185527619Y149639524D01*
X185575238Y149734762D01*
X185622857Y149782381D01*
X185718095Y149830000D01*
X186003809Y149830000D01*
X186099047Y149782381D01*
X186146666Y149734762D01*
X186194285Y149639524D01*
X186194285Y149449048D01*
X186146666Y149353810D01*
X186194285Y148877620D02*
X185527619Y148877620D01*
X186099047Y148877620D02*
X186146666Y148830000D01*
X186194285Y148734762D01*
X186194285Y148591905D01*
X186146666Y148496667D01*
X186051428Y148449048D01*
X185527619Y148449048D01*
X127602619Y151220477D02*
X127602619Y150601429D01*
X127221666Y150934762D01*
X127221666Y150791905D01*
X127174047Y150696667D01*
X127126428Y150649048D01*
X127031190Y150601429D01*
X126793095Y150601429D01*
X126697857Y150649048D01*
X126650238Y150696667D01*
X126602619Y150791905D01*
X126602619Y151077620D01*
X126650238Y151172858D01*
X126697857Y151220477D01*
X127269285Y150268096D02*
X126602619Y150030000D01*
X127269285Y149791905D01*
X127602619Y149506191D02*
X127602619Y148887143D01*
X127221666Y149220477D01*
X127221666Y149077620D01*
X127174047Y148982381D01*
X127126428Y148934762D01*
X127031190Y148887143D01*
X126793095Y148887143D01*
X126697857Y148934762D01*
X126650238Y148982381D01*
X126602619Y149077620D01*
X126602619Y149363334D01*
X126650238Y149458572D01*
X126697857Y149506191D01*
D11*
X199844285Y162500239D02*
X199987142Y162452620D01*
X200225238Y162452620D01*
X200320476Y162500239D01*
X200368095Y162547858D01*
X200415714Y162643096D01*
X200415714Y162738334D01*
X200368095Y162833572D01*
X200320476Y162881191D01*
X200225238Y162928810D01*
X200034761Y162976429D01*
X199939523Y163024048D01*
X199891904Y163071667D01*
X199844285Y163166905D01*
X199844285Y163262143D01*
X199891904Y163357381D01*
X199939523Y163405000D01*
X200034761Y163452620D01*
X200272857Y163452620D01*
X200415714Y163405000D01*
X200844285Y162452620D02*
X200844285Y163452620D01*
X201272857Y162452620D02*
X201272857Y162976429D01*
X201225238Y163071667D01*
X201130000Y163119286D01*
X200987142Y163119286D01*
X200891904Y163071667D01*
X200844285Y163024048D01*
X201749047Y162452620D02*
X201749047Y163119286D01*
X201749047Y163452620D02*
X201701428Y163405000D01*
X201749047Y163357381D01*
X201796666Y163405000D01*
X201749047Y163452620D01*
X201749047Y163357381D01*
X202082380Y163119286D02*
X202463333Y163119286D01*
X202225238Y162452620D02*
X202225238Y163309762D01*
X202272857Y163405000D01*
X202368095Y163452620D01*
X202463333Y163452620D01*
X202653809Y163119286D02*
X203034761Y163119286D01*
X202796666Y163452620D02*
X202796666Y162595477D01*
X202844285Y162500239D01*
X202939523Y162452620D01*
X203034761Y162452620D01*
X203749047Y162500239D02*
X203653809Y162452620D01*
X203463333Y162452620D01*
X203368095Y162500239D01*
X203320476Y162595477D01*
X203320476Y162976429D01*
X203368095Y163071667D01*
X203463333Y163119286D01*
X203653809Y163119286D01*
X203749047Y163071667D01*
X203796666Y162976429D01*
X203796666Y162881191D01*
X203320476Y162785953D01*
X204225238Y162452620D02*
X204225238Y163119286D01*
X204225238Y162928810D02*
X204272857Y163024048D01*
X204320476Y163071667D01*
X204415714Y163119286D01*
X204510952Y163119286D01*
X205415714Y162452620D02*
X205082380Y162928810D01*
X204844285Y162452620D02*
X204844285Y163452620D01*
X205225238Y163452620D01*
X205320476Y163405000D01*
X205368095Y163357381D01*
X205415714Y163262143D01*
X205415714Y163119286D01*
X205368095Y163024048D01*
X205320476Y162976429D01*
X205225238Y162928810D01*
X204844285Y162928810D01*
D12*
X200293095Y161855000D02*
X200197857Y161902620D01*
X200055000Y161902620D01*
X199912142Y161855000D01*
X199816904Y161759762D01*
X199769285Y161664524D01*
X199721666Y161474048D01*
X199721666Y161331191D01*
X199769285Y161140715D01*
X199816904Y161045477D01*
X199912142Y160950239D01*
X200055000Y160902620D01*
X200150238Y160902620D01*
X200293095Y160950239D01*
X200340714Y160997858D01*
X200340714Y161331191D01*
X200150238Y161331191D01*
X200769285Y160902620D02*
X200769285Y161902620D01*
X201340714Y160902620D01*
X201340714Y161902620D01*
X201816904Y160902620D02*
X201816904Y161902620D01*
X202055000Y161902620D01*
X202197857Y161855000D01*
X202293095Y161759762D01*
X202340714Y161664524D01*
X202388333Y161474048D01*
X202388333Y161331191D01*
X202340714Y161140715D01*
X202293095Y161045477D01*
X202197857Y160950239D01*
X202055000Y160902620D01*
X201816904Y160902620D01*
X104650238Y151133572D02*
X104602619Y150990715D01*
X104602619Y150752620D01*
X104650238Y150657381D01*
X104697857Y150609762D01*
X104793095Y150562143D01*
X104888333Y150562143D01*
X104983571Y150609762D01*
X105031190Y150657381D01*
X105078809Y150752620D01*
X105126428Y150943096D01*
X105174047Y151038334D01*
X105221666Y151085953D01*
X105316904Y151133572D01*
X105412142Y151133572D01*
X105507380Y151085953D01*
X105555000Y151038334D01*
X105602619Y150943096D01*
X105602619Y150705000D01*
X105555000Y150562143D01*
X104602619Y150133572D02*
X105269285Y150133572D01*
X105602619Y150133572D02*
X105555000Y150181191D01*
X105507380Y150133572D01*
X105555000Y150085953D01*
X105602619Y150133572D01*
X105507380Y150133572D01*
X105269285Y149228810D02*
X104459761Y149228810D01*
X104364523Y149276429D01*
X104316904Y149324048D01*
X104269285Y149419286D01*
X104269285Y149562143D01*
X104316904Y149657381D01*
X104650238Y149228810D02*
X104602619Y149324048D01*
X104602619Y149514524D01*
X104650238Y149609762D01*
X104697857Y149657381D01*
X104793095Y149705000D01*
X105078809Y149705000D01*
X105174047Y149657381D01*
X105221666Y149609762D01*
X105269285Y149514524D01*
X105269285Y149324048D01*
X105221666Y149228810D01*
X105269285Y148752620D02*
X104602619Y148752620D01*
X105174047Y148752620D02*
X105221666Y148705000D01*
X105269285Y148609762D01*
X105269285Y148466905D01*
X105221666Y148371667D01*
X105126428Y148324048D01*
X104602619Y148324048D01*
D11*
X112930503Y151832620D02*
X112597170Y152308810D01*
X112359075Y151832620D02*
X112359075Y152832620D01*
X112740027Y152832620D01*
X112835265Y152785000D01*
X112882884Y152737381D01*
X112930503Y152642143D01*
X112930503Y152499286D01*
X112882884Y152404048D01*
X112835265Y152356429D01*
X112740027Y152308810D01*
X112359075Y152308810D01*
X113501932Y151832620D02*
X113406694Y151880239D01*
X113359075Y151927858D01*
X113311456Y152023096D01*
X113311456Y152308810D01*
X113359075Y152404048D01*
X113406694Y152451667D01*
X113501932Y152499286D01*
X113644789Y152499286D01*
X113740027Y152451667D01*
X113787646Y152404048D01*
X113835265Y152308810D01*
X113835265Y152023096D01*
X113787646Y151927858D01*
X113740027Y151880239D01*
X113644789Y151832620D01*
X113501932Y151832620D01*
X114120980Y152499286D02*
X114501932Y152499286D01*
X114263837Y152832620D02*
X114263837Y151975477D01*
X114311456Y151880239D01*
X114406694Y151832620D01*
X114501932Y151832620D01*
X114978122Y151832620D02*
X114882884Y151880239D01*
X114835265Y151927858D01*
X114787646Y152023096D01*
X114787646Y152308810D01*
X114835265Y152404048D01*
X114882884Y152451667D01*
X114978122Y152499286D01*
X115120980Y152499286D01*
X115216218Y152451667D01*
X115263837Y152404048D01*
X115311456Y152308810D01*
X115311456Y152023096D01*
X115263837Y151927858D01*
X115216218Y151880239D01*
X115120980Y151832620D01*
X114978122Y151832620D01*
X115740027Y151832620D02*
X115740027Y152499286D01*
X115740027Y152308810D02*
X115787646Y152404048D01*
X115835265Y152451667D01*
X115930503Y152499286D01*
X116025742Y152499286D01*
X116835265Y151832620D02*
X116359075Y151832620D01*
X116359075Y152832620D01*
D12*
X111880000Y150591905D02*
X111927619Y150687143D01*
X111927619Y150830000D01*
X111880000Y150972858D01*
X111784761Y151068096D01*
X111689523Y151115715D01*
X111499047Y151163334D01*
X111356190Y151163334D01*
X111165714Y151115715D01*
X111070476Y151068096D01*
X110975238Y150972858D01*
X110927619Y150830000D01*
X110927619Y150734762D01*
X110975238Y150591905D01*
X111022857Y150544286D01*
X111356190Y150544286D01*
X111356190Y150734762D01*
X110927619Y150115715D02*
X111927619Y150115715D01*
X110927619Y149544286D01*
X111927619Y149544286D01*
X110927619Y149068096D02*
X111927619Y149068096D01*
X111927619Y148830000D01*
X111880000Y148687143D01*
X111784761Y148591905D01*
X111689523Y148544286D01*
X111499047Y148496667D01*
X111356190Y148496667D01*
X111165714Y148544286D01*
X111070476Y148591905D01*
X110975238Y148687143D01*
X110927619Y148830000D01*
X110927619Y149068096D01*
D11*
X101347857Y152551429D02*
X101490714Y152503810D01*
X101538333Y152456191D01*
X101585952Y152360953D01*
X101585952Y152218096D01*
X101538333Y152122858D01*
X101490714Y152075239D01*
X101395476Y152027620D01*
X101014523Y152027620D01*
X101014523Y153027620D01*
X101347857Y153027620D01*
X101443095Y152980000D01*
X101490714Y152932381D01*
X101538333Y152837143D01*
X101538333Y152741905D01*
X101490714Y152646667D01*
X101443095Y152599048D01*
X101347857Y152551429D01*
X101014523Y152551429D01*
X102443095Y152027620D02*
X102443095Y152551429D01*
X102395476Y152646667D01*
X102300238Y152694286D01*
X102109761Y152694286D01*
X102014523Y152646667D01*
X102443095Y152075239D02*
X102347857Y152027620D01*
X102109761Y152027620D01*
X102014523Y152075239D01*
X101966904Y152170477D01*
X101966904Y152265715D01*
X102014523Y152360953D01*
X102109761Y152408572D01*
X102347857Y152408572D01*
X102443095Y152456191D01*
X103347857Y152075239D02*
X103252619Y152027620D01*
X103062142Y152027620D01*
X102966904Y152075239D01*
X102919285Y152122858D01*
X102871666Y152218096D01*
X102871666Y152503810D01*
X102919285Y152599048D01*
X102966904Y152646667D01*
X103062142Y152694286D01*
X103252619Y152694286D01*
X103347857Y152646667D01*
X103776428Y152027620D02*
X103776428Y153027620D01*
X103871666Y152408572D02*
X104157380Y152027620D01*
X104157380Y152694286D02*
X103776428Y152313334D01*
X104919285Y152551429D02*
X105062142Y152503810D01*
X105109761Y152456191D01*
X105157380Y152360953D01*
X105157380Y152218096D01*
X105109761Y152122858D01*
X105062142Y152075239D01*
X104966904Y152027620D01*
X104585952Y152027620D01*
X104585952Y153027620D01*
X104919285Y153027620D01*
X105014523Y152980000D01*
X105062142Y152932381D01*
X105109761Y152837143D01*
X105109761Y152741905D01*
X105062142Y152646667D01*
X105014523Y152599048D01*
X104919285Y152551429D01*
X104585952Y152551429D01*
X106014523Y152694286D02*
X106014523Y152027620D01*
X105585952Y152694286D02*
X105585952Y152170477D01*
X105633571Y152075239D01*
X105728809Y152027620D01*
X105871666Y152027620D01*
X105966904Y152075239D01*
X106014523Y152122858D01*
X106347857Y152694286D02*
X106728809Y152694286D01*
X106490714Y153027620D02*
X106490714Y152170477D01*
X106538333Y152075239D01*
X106633571Y152027620D01*
X106728809Y152027620D01*
X107538333Y152027620D02*
X107062142Y152027620D01*
X107062142Y153027620D01*
D12*
X175252619Y151220477D02*
X175252619Y150601429D01*
X174871666Y150934762D01*
X174871666Y150791905D01*
X174824047Y150696667D01*
X174776428Y150649048D01*
X174681190Y150601429D01*
X174443095Y150601429D01*
X174347857Y150649048D01*
X174300238Y150696667D01*
X174252619Y150791905D01*
X174252619Y151077620D01*
X174300238Y151172858D01*
X174347857Y151220477D01*
X174919285Y150268096D02*
X174252619Y150030000D01*
X174919285Y149791905D01*
X175252619Y149506191D02*
X175252619Y148887143D01*
X174871666Y149220477D01*
X174871666Y149077620D01*
X174824047Y148982381D01*
X174776428Y148934762D01*
X174681190Y148887143D01*
X174443095Y148887143D01*
X174347857Y148934762D01*
X174300238Y148982381D01*
X174252619Y149077620D01*
X174252619Y149363334D01*
X174300238Y149458572D01*
X174347857Y149506191D01*
D11*
X91914523Y162525239D02*
X92057380Y162477620D01*
X92295476Y162477620D01*
X92390714Y162525239D01*
X92438333Y162572858D01*
X92485952Y162668096D01*
X92485952Y162763334D01*
X92438333Y162858572D01*
X92390714Y162906191D01*
X92295476Y162953810D01*
X92105000Y163001429D01*
X92009761Y163049048D01*
X91962142Y163096667D01*
X91914523Y163191905D01*
X91914523Y163287143D01*
X91962142Y163382381D01*
X92009761Y163430000D01*
X92105000Y163477620D01*
X92343095Y163477620D01*
X92485952Y163430000D01*
X92914523Y162477620D02*
X92914523Y163477620D01*
X93343095Y162477620D02*
X93343095Y163001429D01*
X93295476Y163096667D01*
X93200238Y163144286D01*
X93057380Y163144286D01*
X92962142Y163096667D01*
X92914523Y163049048D01*
X93819285Y162477620D02*
X93819285Y163144286D01*
X93819285Y163477620D02*
X93771666Y163430000D01*
X93819285Y163382381D01*
X93866904Y163430000D01*
X93819285Y163477620D01*
X93819285Y163382381D01*
X94152619Y163144286D02*
X94533571Y163144286D01*
X94295476Y162477620D02*
X94295476Y163334762D01*
X94343095Y163430000D01*
X94438333Y163477620D01*
X94533571Y163477620D01*
X94724047Y163144286D02*
X95105000Y163144286D01*
X94866904Y163477620D02*
X94866904Y162620477D01*
X94914523Y162525239D01*
X95009761Y162477620D01*
X95105000Y162477620D01*
X95819285Y162525239D02*
X95724047Y162477620D01*
X95533571Y162477620D01*
X95438333Y162525239D01*
X95390714Y162620477D01*
X95390714Y163001429D01*
X95438333Y163096667D01*
X95533571Y163144286D01*
X95724047Y163144286D01*
X95819285Y163096667D01*
X95866904Y163001429D01*
X95866904Y162906191D01*
X95390714Y162810953D01*
X96295476Y162477620D02*
X96295476Y163144286D01*
X96295476Y162953810D02*
X96343095Y163049048D01*
X96390714Y163096667D01*
X96485952Y163144286D01*
X96581190Y163144286D01*
X97390714Y162477620D02*
X96914523Y162477620D01*
X96914523Y163477620D01*
D12*
X181380000Y150816905D02*
X181427619Y150912143D01*
X181427619Y151055000D01*
X181380000Y151197858D01*
X181284761Y151293096D01*
X181189523Y151340715D01*
X180999047Y151388334D01*
X180856190Y151388334D01*
X180665714Y151340715D01*
X180570476Y151293096D01*
X180475238Y151197858D01*
X180427619Y151055000D01*
X180427619Y150959762D01*
X180475238Y150816905D01*
X180522857Y150769286D01*
X180856190Y150769286D01*
X180856190Y150959762D01*
X180427619Y150340715D02*
X181427619Y150340715D01*
X180427619Y149769286D01*
X181427619Y149769286D01*
X180427619Y149293096D02*
X181427619Y149293096D01*
X181427619Y149055000D01*
X181380000Y148912143D01*
X181284761Y148816905D01*
X181189523Y148769286D01*
X180999047Y148721667D01*
X180856190Y148721667D01*
X180665714Y148769286D01*
X180570476Y148816905D01*
X180475238Y148912143D01*
X180427619Y149055000D01*
X180427619Y149293096D01*
X94430000Y150666905D02*
X94477619Y150762143D01*
X94477619Y150905000D01*
X94430000Y151047858D01*
X94334761Y151143096D01*
X94239523Y151190715D01*
X94049047Y151238334D01*
X93906190Y151238334D01*
X93715714Y151190715D01*
X93620476Y151143096D01*
X93525238Y151047858D01*
X93477619Y150905000D01*
X93477619Y150809762D01*
X93525238Y150666905D01*
X93572857Y150619286D01*
X93906190Y150619286D01*
X93906190Y150809762D01*
X93477619Y150190715D02*
X94477619Y150190715D01*
X93477619Y149619286D01*
X94477619Y149619286D01*
X93477619Y149143096D02*
X94477619Y149143096D01*
X94477619Y148905000D01*
X94430000Y148762143D01*
X94334761Y148666905D01*
X94239523Y148619286D01*
X94049047Y148571667D01*
X93906190Y148571667D01*
X93715714Y148619286D01*
X93620476Y148666905D01*
X93525238Y148762143D01*
X93477619Y148905000D01*
X93477619Y149143096D01*
X133455000Y150841905D02*
X133502619Y150937143D01*
X133502619Y151080000D01*
X133455000Y151222858D01*
X133359761Y151318096D01*
X133264523Y151365715D01*
X133074047Y151413334D01*
X132931190Y151413334D01*
X132740714Y151365715D01*
X132645476Y151318096D01*
X132550238Y151222858D01*
X132502619Y151080000D01*
X132502619Y150984762D01*
X132550238Y150841905D01*
X132597857Y150794286D01*
X132931190Y150794286D01*
X132931190Y150984762D01*
X132502619Y150365715D02*
X133502619Y150365715D01*
X132502619Y149794286D01*
X133502619Y149794286D01*
X132502619Y149318096D02*
X133502619Y149318096D01*
X133502619Y149080000D01*
X133455000Y148937143D01*
X133359761Y148841905D01*
X133264523Y148794286D01*
X133074047Y148746667D01*
X132931190Y148746667D01*
X132740714Y148794286D01*
X132645476Y148841905D01*
X132550238Y148937143D01*
X132502619Y149080000D01*
X132502619Y149318096D01*
%TO.C,D33*%
X134198655Y57991192D02*
X133379503Y57417615D01*
X133242937Y57612652D01*
X133200005Y57756987D01*
X133223393Y57889627D01*
X133274094Y57983261D01*
X133402810Y58131521D01*
X133519832Y58213460D01*
X133703174Y58283706D01*
X133808502Y58299325D01*
X133941142Y58275937D01*
X134062089Y58186228D01*
X134198655Y57991192D01*
X132860553Y58158753D02*
X132505482Y58665847D01*
X133008732Y58611302D01*
X132926792Y58728324D01*
X132911173Y58833651D01*
X132922867Y58899972D01*
X132973569Y58993605D01*
X133168605Y59130171D01*
X133273932Y59145790D01*
X133340253Y59134096D01*
X133433886Y59083395D01*
X133597765Y58849351D01*
X133613384Y58744024D01*
X133601690Y58677703D01*
X132314290Y58938898D02*
X131959218Y59445992D01*
X132462468Y59391447D01*
X132380529Y59508468D01*
X132364910Y59613796D01*
X132376604Y59680116D01*
X132427305Y59773750D01*
X132622341Y59910316D01*
X132727669Y59925935D01*
X132793990Y59914241D01*
X132887623Y59863539D01*
X133051502Y59629496D01*
X133067121Y59524168D01*
X133055427Y59457848D01*
%TO.C,D11*%
X74400661Y100901146D02*
X74294397Y101895484D01*
X74531144Y101920785D01*
X74678253Y101888616D01*
X74783072Y101804038D01*
X74840542Y101714399D01*
X74908132Y101530061D01*
X74923312Y101388013D01*
X74896204Y101193555D01*
X74858975Y101093796D01*
X74774396Y100988977D01*
X74637408Y100926447D01*
X74400661Y100901146D01*
X75915843Y101063072D02*
X75347649Y101002350D01*
X75631746Y101032711D02*
X75525482Y102027049D01*
X75445964Y101874880D01*
X75361385Y101770061D01*
X75271747Y101712591D01*
X76862831Y101164276D02*
X76294638Y101103554D01*
X76578735Y101133915D02*
X76472471Y102128253D01*
X76392952Y101976084D01*
X76308374Y101871265D01*
X76218735Y101813795D01*
%TO.C,D48*%
X107105483Y134993652D02*
X106763463Y134053960D01*
X106539727Y134135393D01*
X106421772Y134229000D01*
X106364850Y134351068D01*
X106352677Y134456849D01*
X106373076Y134652125D01*
X106421936Y134786367D01*
X106531830Y134949069D01*
X106609151Y135022277D01*
X106731218Y135079198D01*
X106881747Y135075086D01*
X107105483Y134993652D01*
X105535052Y134855791D02*
X105763065Y135482253D01*
X105628495Y134416379D02*
X106096531Y135006155D01*
X105514817Y135217882D01*
X104941163Y135173299D02*
X105014371Y135095978D01*
X105042832Y135034944D01*
X105055006Y134929163D01*
X105038719Y134884416D01*
X104961398Y134811208D01*
X104900365Y134782747D01*
X104794583Y134770573D01*
X104615594Y134835720D01*
X104542386Y134913041D01*
X104513926Y134974075D01*
X104501752Y135079856D01*
X104518039Y135124603D01*
X104595359Y135197811D01*
X104656393Y135226272D01*
X104762174Y135238445D01*
X104941163Y135173299D01*
X105046945Y135185473D01*
X105107979Y135213933D01*
X105185299Y135287141D01*
X105250446Y135466130D01*
X105238272Y135571911D01*
X105209811Y135632945D01*
X105136603Y135710266D01*
X104957614Y135775413D01*
X104851833Y135763239D01*
X104790799Y135734778D01*
X104713479Y135661570D01*
X104648332Y135482581D01*
X104660506Y135376800D01*
X104688966Y135315766D01*
X104762174Y135238445D01*
%TO.C,H4*%
X193498095Y70067620D02*
X193498095Y71067620D01*
X193498095Y70591429D02*
X194069523Y70591429D01*
X194069523Y70067620D02*
X194069523Y71067620D01*
X194974285Y70734286D02*
X194974285Y70067620D01*
X194736190Y71115239D02*
X194498095Y70400953D01*
X195117142Y70400953D01*
%TO.C,SW11*%
X241413749Y169711645D02*
X241561170Y169742349D01*
X241766950Y169862116D01*
X241825308Y169951179D01*
X241842511Y170016288D01*
X241835760Y170122553D01*
X241787854Y170204865D01*
X241698791Y170263224D01*
X241633682Y170280426D01*
X241527417Y170273676D01*
X241338839Y170219018D01*
X241232574Y170212267D01*
X241167465Y170229470D01*
X241078402Y170287829D01*
X241030496Y170370141D01*
X241023745Y170476406D01*
X241040948Y170541515D01*
X241099306Y170630578D01*
X241305086Y170750344D01*
X241452507Y170781048D01*
X241716645Y170989878D02*
X242425445Y170245369D01*
X242230769Y170958522D01*
X242754692Y170436996D01*
X242457452Y171421038D01*
X243742435Y171011876D02*
X243248564Y170724436D01*
X243495499Y170868156D02*
X242992480Y171732431D01*
X242982028Y171561056D01*
X242947622Y171430838D01*
X242889264Y171341775D01*
X244565554Y171490943D02*
X244071683Y171203503D01*
X244318618Y171347223D02*
X243815598Y172211497D01*
X243805146Y172040123D01*
X243770741Y171909904D01*
X243712383Y171820842D01*
%TO.C,D14*%
X87970661Y82241146D02*
X87864397Y83235484D01*
X88101144Y83260785D01*
X88248253Y83228616D01*
X88353072Y83144038D01*
X88410542Y83054399D01*
X88478132Y82870061D01*
X88493312Y82728013D01*
X88466204Y82533555D01*
X88428975Y82433796D01*
X88344396Y82328977D01*
X88207408Y82266447D01*
X87970661Y82241146D01*
X89485843Y82403072D02*
X88917649Y82342350D01*
X89201746Y82372711D02*
X89095482Y83367049D01*
X89015964Y83214880D01*
X88931385Y83110061D01*
X88841747Y83052591D01*
X90267290Y83157048D02*
X90338132Y82494156D01*
X89990061Y83510542D02*
X89829217Y82775000D01*
X90444759Y82840782D01*
%TO.C,H5*%
X260868095Y185117620D02*
X260868095Y186117620D01*
X260868095Y185641429D02*
X261439523Y185641429D01*
X261439523Y185117620D02*
X261439523Y186117620D01*
X262391904Y186117620D02*
X261915714Y186117620D01*
X261868095Y185641429D01*
X261915714Y185689048D01*
X262010952Y185736667D01*
X262249047Y185736667D01*
X262344285Y185689048D01*
X262391904Y185641429D01*
X262439523Y185546191D01*
X262439523Y185308096D01*
X262391904Y185212858D01*
X262344285Y185165239D01*
X262249047Y185117620D01*
X262010952Y185117620D01*
X261915714Y185165239D01*
X261868095Y185212858D01*
%TO.C,D4*%
X44410276Y174164832D02*
X43539921Y174657256D01*
X43657164Y174864483D01*
X43768956Y174965371D01*
X43898745Y175001364D01*
X44005084Y174995913D01*
X44194315Y174943563D01*
X44318652Y174873217D01*
X44460985Y174737976D01*
X44520427Y174649633D01*
X44556421Y174519845D01*
X44527520Y174372060D01*
X44410276Y174164832D01*
X44533501Y175736480D02*
X45113739Y175408197D01*
X44084694Y175716842D02*
X44589133Y175157883D01*
X44893966Y175696675D01*
%TO.C,SW9*%
X209750219Y111475397D02*
X209813226Y111612166D01*
X209839354Y111848823D01*
X209802473Y111948712D01*
X209760367Y112001269D01*
X209670930Y112059051D01*
X209576267Y112069502D01*
X209476378Y112032621D01*
X209423821Y111990515D01*
X209366039Y111901078D01*
X209297806Y111716977D01*
X209240023Y111627540D01*
X209187466Y111585434D01*
X209087578Y111548553D01*
X208992915Y111559004D01*
X208903478Y111616786D01*
X208861371Y111669343D01*
X208824491Y111769232D01*
X208850618Y112005889D01*
X208913626Y112142658D01*
X208902873Y112479204D02*
X209922961Y112606127D01*
X209233890Y112873834D01*
X209964764Y112984779D01*
X208996931Y113331170D01*
X210037920Y113647419D02*
X210058822Y113836745D01*
X210021942Y113936634D01*
X209979836Y113989191D01*
X209848292Y114099530D01*
X209664192Y114167763D01*
X209285540Y114209567D01*
X209185651Y114172686D01*
X209133095Y114130580D01*
X209075312Y114041142D01*
X209054410Y113851817D01*
X209091291Y113751928D01*
X209133397Y113699371D01*
X209222835Y113641589D01*
X209459492Y113615462D01*
X209559380Y113652342D01*
X209611937Y113694448D01*
X209669720Y113783886D01*
X209690621Y113973212D01*
X209653741Y114073100D01*
X209611635Y114125657D01*
X209522197Y114183439D01*
%TO.C,D46*%
X188654335Y137390084D02*
X188312314Y138329777D01*
X188536051Y138411210D01*
X188686579Y138415323D01*
X188808647Y138358402D01*
X188885968Y138285194D01*
X188995862Y138122492D01*
X189044722Y137988250D01*
X189065121Y137792974D01*
X189052947Y137687193D01*
X188996026Y137565125D01*
X188878071Y137471518D01*
X188654335Y137390084D01*
X189768739Y138505146D02*
X189996753Y137878684D01*
X189414709Y138781691D02*
X189435273Y138029049D01*
X190016988Y138240775D01*
X190549678Y139144111D02*
X190370689Y139078964D01*
X190297481Y139001643D01*
X190269020Y138940609D01*
X190228386Y138773794D01*
X190248785Y138578518D01*
X190379079Y138220540D01*
X190456399Y138147332D01*
X190517433Y138118872D01*
X190623214Y138106698D01*
X190802203Y138171845D01*
X190875411Y138249165D01*
X190903872Y138310199D01*
X190916046Y138415980D01*
X190834612Y138639717D01*
X190757292Y138712925D01*
X190696258Y138741385D01*
X190590477Y138753559D01*
X190411488Y138688412D01*
X190338280Y138611092D01*
X190309819Y138550058D01*
X190297645Y138444277D01*
%TO.C,SW6*%
X92074242Y71808645D02*
X92106411Y71955754D01*
X92081110Y72192501D01*
X92023640Y72282139D01*
X91971230Y72324429D01*
X91871471Y72361658D01*
X91776773Y72351537D01*
X91687134Y72294068D01*
X91644845Y72241658D01*
X91607616Y72141899D01*
X91580507Y71947441D01*
X91543278Y71847682D01*
X91500989Y71795272D01*
X91411350Y71737803D01*
X91316651Y71727682D01*
X91216892Y71764911D01*
X91164483Y71807200D01*
X91107013Y71896839D01*
X91081712Y72133586D01*
X91113881Y72280695D01*
X91031110Y72607080D02*
X92000147Y72950092D01*
X91269665Y73063586D01*
X91959665Y73328887D01*
X90940026Y73459370D01*
X90854003Y74264310D02*
X90874244Y74074913D01*
X90931714Y73985274D01*
X90984123Y73942985D01*
X91136292Y73863466D01*
X91330750Y73836358D01*
X91709545Y73876839D01*
X91799184Y73934309D01*
X91841473Y73986719D01*
X91878702Y74086478D01*
X91858461Y74275876D01*
X91800992Y74365514D01*
X91748582Y74407803D01*
X91648823Y74445032D01*
X91412076Y74419732D01*
X91322437Y74362262D01*
X91280148Y74309852D01*
X91242919Y74210093D01*
X91263160Y74020695D01*
X91320629Y73931057D01*
X91373039Y73888767D01*
X91472798Y73851538D01*
%TO.C,C2*%
X178663333Y153647858D02*
X178615714Y153600239D01*
X178472857Y153552620D01*
X178377619Y153552620D01*
X178234761Y153600239D01*
X178139523Y153695477D01*
X178091904Y153790715D01*
X178044285Y153981191D01*
X178044285Y154124048D01*
X178091904Y154314524D01*
X178139523Y154409762D01*
X178234761Y154505000D01*
X178377619Y154552620D01*
X178472857Y154552620D01*
X178615714Y154505000D01*
X178663333Y154457381D01*
X179044285Y154457381D02*
X179091904Y154505000D01*
X179187142Y154552620D01*
X179425238Y154552620D01*
X179520476Y154505000D01*
X179568095Y154457381D01*
X179615714Y154362143D01*
X179615714Y154266905D01*
X179568095Y154124048D01*
X178996666Y153552620D01*
X179615714Y153552620D01*
%TO.C,D34*%
X134679335Y72590084D02*
X134337314Y73529777D01*
X134561051Y73611210D01*
X134711579Y73615323D01*
X134833647Y73558402D01*
X134910968Y73485194D01*
X135020862Y73322492D01*
X135069722Y73188250D01*
X135090121Y72992974D01*
X135077947Y72887193D01*
X135021026Y72765125D01*
X134903071Y72671518D01*
X134679335Y72590084D01*
X135187513Y73839224D02*
X135769227Y74050950D01*
X135586290Y73578966D01*
X135720531Y73627826D01*
X135826313Y73615652D01*
X135887346Y73587191D01*
X135964667Y73513983D01*
X136046100Y73290247D01*
X136033927Y73184466D01*
X136005466Y73123432D01*
X135932258Y73046111D01*
X135663774Y72948391D01*
X135557993Y72960565D01*
X135496959Y72989026D01*
X136688685Y74030880D02*
X136916698Y73404418D01*
X136334655Y74307424D02*
X136355219Y73554782D01*
X136936933Y73766509D01*
%TO.C,SW3*%
X72734019Y161057039D02*
X72634505Y161170055D01*
X72428725Y161289821D01*
X72322460Y161296572D01*
X72257351Y161279369D01*
X72168288Y161221011D01*
X72120381Y161138699D01*
X72113631Y161032434D01*
X72130833Y160967325D01*
X72189192Y160878262D01*
X72329862Y160741293D01*
X72388221Y160652230D01*
X72405423Y160587121D01*
X72398673Y160480856D01*
X72350766Y160398544D01*
X72261703Y160340185D01*
X72196594Y160322982D01*
X72090329Y160329733D01*
X71884549Y160449500D01*
X71785035Y160562516D01*
X71472990Y160689033D02*
X71770230Y161673075D01*
X71246306Y161151549D01*
X71440982Y161864701D01*
X70732183Y161120193D01*
X70485247Y161263913D02*
X69950220Y161575306D01*
X70429938Y161736881D01*
X70306470Y161808741D01*
X70248112Y161897803D01*
X70230909Y161962913D01*
X70237660Y162069178D01*
X70357426Y162274957D01*
X70446489Y162333316D01*
X70511598Y162350519D01*
X70617864Y162343768D01*
X70864799Y162200048D01*
X70923158Y162110985D01*
X70940360Y162045876D01*
%TO.C,D30*%
X259021791Y163828082D02*
X258157516Y163325062D01*
X258037749Y163530841D01*
X258007045Y163678263D01*
X258041451Y163808481D01*
X258099809Y163897544D01*
X258240480Y164034513D01*
X258363947Y164106373D01*
X258552525Y164161030D01*
X258658790Y164167781D01*
X258789008Y164133376D01*
X258902024Y164033861D01*
X259021791Y163828082D01*
X257702403Y164107025D02*
X257391010Y164642052D01*
X257887930Y164545587D01*
X257816070Y164669055D01*
X257809320Y164775320D01*
X257826522Y164840429D01*
X257884881Y164929492D01*
X258090661Y165049258D01*
X258196926Y165056009D01*
X258262035Y165038807D01*
X258351098Y164980448D01*
X258494818Y164733512D01*
X258501568Y164627247D01*
X258484366Y164562138D01*
X257079616Y165177079D02*
X257031710Y165259391D01*
X257024959Y165365656D01*
X257042161Y165430765D01*
X257100520Y165519828D01*
X257241190Y165656797D01*
X257446970Y165776564D01*
X257635547Y165831221D01*
X257741812Y165837972D01*
X257806922Y165820769D01*
X257895984Y165762411D01*
X257943891Y165680099D01*
X257950642Y165573834D01*
X257933439Y165508725D01*
X257875081Y165419662D01*
X257734410Y165282693D01*
X257528630Y165162926D01*
X257340053Y165108269D01*
X257233788Y165101518D01*
X257168679Y165118721D01*
X257079616Y165177079D01*
%TO.C,D29*%
X252781791Y174408081D02*
X251917516Y173905061D01*
X251797749Y174110840D01*
X251767045Y174258262D01*
X251801451Y174388480D01*
X251859809Y174477543D01*
X252000480Y174614512D01*
X252123947Y174686372D01*
X252312525Y174741029D01*
X252418790Y174747780D01*
X252549008Y174713375D01*
X252662024Y174613860D01*
X252781791Y174408081D01*
X251520761Y174776086D02*
X251455652Y174793289D01*
X251366589Y174851647D01*
X251246823Y175057427D01*
X251240072Y175163692D01*
X251257275Y175228802D01*
X251315633Y175317864D01*
X251397945Y175365771D01*
X251545366Y175396475D01*
X252326678Y175190044D01*
X252015284Y175725071D01*
X251775751Y176136630D02*
X251679938Y176301254D01*
X251590875Y176359613D01*
X251525766Y176376815D01*
X251354391Y176387267D01*
X251165814Y176332610D01*
X250836567Y176140983D01*
X250778208Y176051920D01*
X250761005Y175986811D01*
X250767756Y175880546D01*
X250863570Y175715922D01*
X250952632Y175657564D01*
X251017741Y175640361D01*
X251124007Y175647112D01*
X251329786Y175766878D01*
X251388145Y175855941D01*
X251405348Y175921050D01*
X251398597Y176027315D01*
X251302783Y176191939D01*
X251213721Y176250298D01*
X251148612Y176267500D01*
X251042346Y176260750D01*
%TO.C,D49*%
X112104083Y120300841D02*
X111284931Y120874417D01*
X111421496Y121069453D01*
X111542443Y121159162D01*
X111675084Y121182550D01*
X111780412Y121166931D01*
X111963754Y121096686D01*
X112080775Y121014746D01*
X112209491Y120866486D01*
X112260193Y120772853D01*
X112283581Y120640212D01*
X112240648Y120495877D01*
X112104083Y120300841D01*
X112377376Y121853442D02*
X112923478Y121471058D01*
X111928752Y121876911D02*
X112377295Y121272178D01*
X112732366Y121779272D01*
X113251235Y121939145D02*
X113360488Y122095174D01*
X113376107Y122200502D01*
X113364413Y122266822D01*
X113302018Y122426776D01*
X113173302Y122575036D01*
X112861244Y122793541D01*
X112755916Y122809160D01*
X112689596Y122797466D01*
X112595962Y122746765D01*
X112486710Y122590736D01*
X112471091Y122485408D01*
X112482785Y122419088D01*
X112533486Y122325454D01*
X112728522Y122188888D01*
X112833850Y122173269D01*
X112900170Y122184963D01*
X112993804Y122235665D01*
X113103057Y122391694D01*
X113118676Y122497021D01*
X113106982Y122563342D01*
X113056280Y122656975D01*
%TO.C,D39*%
X182179335Y72890084D02*
X181837314Y73829777D01*
X182061051Y73911210D01*
X182211579Y73915323D01*
X182333647Y73858402D01*
X182410968Y73785194D01*
X182520862Y73622492D01*
X182569722Y73488250D01*
X182590121Y73292974D01*
X182577947Y73187193D01*
X182521026Y73065125D01*
X182403071Y72971518D01*
X182179335Y72890084D01*
X182687513Y74139224D02*
X183269227Y74350950D01*
X183086290Y73878966D01*
X183220531Y73927826D01*
X183326313Y73915652D01*
X183387346Y73887191D01*
X183464667Y73813983D01*
X183546100Y73590247D01*
X183533927Y73484466D01*
X183505466Y73423432D01*
X183432258Y73346111D01*
X183163774Y73248391D01*
X183057993Y73260565D01*
X182996959Y73289026D01*
X184058720Y73574125D02*
X184237709Y73639271D01*
X184310917Y73716592D01*
X184339377Y73777626D01*
X184380012Y73944441D01*
X184359612Y74139717D01*
X184229319Y74497695D01*
X184151998Y74570903D01*
X184090964Y74599363D01*
X183985183Y74611537D01*
X183806194Y74546391D01*
X183732986Y74469070D01*
X183704526Y74408036D01*
X183692352Y74302255D01*
X183773785Y74078518D01*
X183851106Y74005311D01*
X183912140Y73976850D01*
X184017921Y73964676D01*
X184196910Y74029823D01*
X184270118Y74107143D01*
X184298578Y74168177D01*
X184310752Y74273959D01*
%TO.C,D6*%
X61810276Y164364832D02*
X60939921Y164857256D01*
X61057164Y165064483D01*
X61168956Y165165371D01*
X61298745Y165201364D01*
X61405084Y165195913D01*
X61594315Y165143563D01*
X61718652Y165073217D01*
X61860985Y164937976D01*
X61920427Y164849633D01*
X61956421Y164719845D01*
X61927520Y164572060D01*
X61810276Y164364832D01*
X61643383Y166100621D02*
X61549588Y165934839D01*
X61544136Y165828499D01*
X61562133Y165763605D01*
X61639572Y165610368D01*
X61781905Y165475127D01*
X62113469Y165287537D01*
X62219809Y165282085D01*
X62284703Y165300082D01*
X62373046Y165359524D01*
X62466841Y165525306D01*
X62472293Y165631646D01*
X62454296Y165696540D01*
X62394854Y165784883D01*
X62187626Y165902127D01*
X62081287Y165907579D01*
X62016392Y165889582D01*
X61928049Y165830140D01*
X61834255Y165664358D01*
X61828803Y165558018D01*
X61846799Y165493124D01*
X61906242Y165404781D01*
%TO.C,D28*%
X241501791Y154238081D02*
X240637516Y153735061D01*
X240517749Y153940840D01*
X240487045Y154088262D01*
X240521451Y154218480D01*
X240579809Y154307543D01*
X240720480Y154444512D01*
X240843947Y154516372D01*
X241032525Y154571029D01*
X241138790Y154577780D01*
X241269008Y154543375D01*
X241382024Y154443860D01*
X241501791Y154238081D01*
X240240761Y154606086D02*
X240175652Y154623289D01*
X240086589Y154681647D01*
X239966823Y154887427D01*
X239960072Y154993692D01*
X239977275Y155058802D01*
X240035633Y155147864D01*
X240117945Y155195771D01*
X240265366Y155226475D01*
X241046678Y155020044D01*
X240735284Y155555071D01*
X239953973Y155761502D02*
X239960724Y155655237D01*
X239943521Y155590128D01*
X239885163Y155501065D01*
X239844007Y155477112D01*
X239737741Y155470361D01*
X239672632Y155487564D01*
X239583570Y155545922D01*
X239487756Y155710546D01*
X239481005Y155816811D01*
X239498208Y155881920D01*
X239556567Y155970983D01*
X239597723Y155994936D01*
X239703988Y156001687D01*
X239769097Y155984484D01*
X239858160Y155926126D01*
X239953973Y155761502D01*
X240043036Y155703144D01*
X240108145Y155685941D01*
X240214410Y155692692D01*
X240379034Y155788505D01*
X240437392Y155877568D01*
X240454595Y155942677D01*
X240447844Y156048942D01*
X240352031Y156213566D01*
X240262968Y156271924D01*
X240197859Y156289127D01*
X240091594Y156282376D01*
X239926970Y156186563D01*
X239868612Y156097500D01*
X239851409Y156032391D01*
X239858160Y155926126D01*
%TO.C,D35*%
X123507380Y78628215D02*
X122507380Y78628215D01*
X122507380Y78866310D01*
X122555000Y79009167D01*
X122650238Y79104405D01*
X122745476Y79152024D01*
X122935952Y79199643D01*
X123078809Y79199643D01*
X123269285Y79152024D01*
X123364523Y79104405D01*
X123459761Y79009167D01*
X123507380Y78866310D01*
X123507380Y78628215D01*
X122507380Y79532977D02*
X122507380Y80152024D01*
X122888333Y79818691D01*
X122888333Y79961548D01*
X122935952Y80056786D01*
X122983571Y80104405D01*
X123078809Y80152024D01*
X123316904Y80152024D01*
X123412142Y80104405D01*
X123459761Y80056786D01*
X123507380Y79961548D01*
X123507380Y79675834D01*
X123459761Y79580596D01*
X123412142Y79532977D01*
X122507380Y81056786D02*
X122507380Y80580596D01*
X122983571Y80532977D01*
X122935952Y80580596D01*
X122888333Y80675834D01*
X122888333Y80913929D01*
X122935952Y81009167D01*
X122983571Y81056786D01*
X123078809Y81104405D01*
X123316904Y81104405D01*
X123412142Y81056786D01*
X123459761Y81009167D01*
X123507380Y80913929D01*
X123507380Y80675834D01*
X123459761Y80580596D01*
X123412142Y80532977D01*
%TO.C,SW5*%
X89864242Y91648645D02*
X89896411Y91795754D01*
X89871110Y92032501D01*
X89813640Y92122139D01*
X89761230Y92164429D01*
X89661471Y92201658D01*
X89566773Y92191537D01*
X89477134Y92134068D01*
X89434845Y92081658D01*
X89397616Y91981899D01*
X89370507Y91787441D01*
X89333278Y91687682D01*
X89290989Y91635272D01*
X89201350Y91577803D01*
X89106651Y91567682D01*
X89006892Y91604911D01*
X88954483Y91647200D01*
X88897013Y91736839D01*
X88871712Y91973586D01*
X88903881Y92120695D01*
X88821110Y92447080D02*
X89790147Y92790092D01*
X89059665Y92903586D01*
X89749665Y93168887D01*
X88730026Y93299370D01*
X88638943Y94151660D02*
X88689545Y93678166D01*
X89168099Y93681418D01*
X89115690Y93723707D01*
X89058220Y93813346D01*
X89032919Y94050093D01*
X89070148Y94149852D01*
X89112437Y94202262D01*
X89202076Y94259732D01*
X89438823Y94285032D01*
X89538582Y94247803D01*
X89590992Y94205514D01*
X89648461Y94115876D01*
X89673762Y93879128D01*
X89636533Y93779369D01*
X89594244Y93726960D01*
%TO.C,D5*%
X56500276Y154404832D02*
X55629921Y154897256D01*
X55747164Y155104483D01*
X55858956Y155205371D01*
X55988745Y155241364D01*
X56095084Y155235913D01*
X56284315Y155183563D01*
X56408652Y155113217D01*
X56550985Y154977976D01*
X56610427Y154889633D01*
X56646421Y154759845D01*
X56617520Y154612060D01*
X56500276Y154404832D01*
X56356832Y156182066D02*
X56122344Y155767611D01*
X56513351Y155491678D01*
X56495354Y155556573D01*
X56500806Y155662912D01*
X56618049Y155870140D01*
X56706392Y155929582D01*
X56771287Y155947579D01*
X56877626Y155942127D01*
X57084854Y155824883D01*
X57144296Y155736540D01*
X57162293Y155671646D01*
X57156841Y155565306D01*
X57039597Y155358079D01*
X56951254Y155298637D01*
X56886360Y155280640D01*
%TO.C,H1*%
X34228095Y185067620D02*
X34228095Y186067620D01*
X34228095Y185591429D02*
X34799523Y185591429D01*
X34799523Y185067620D02*
X34799523Y186067620D01*
X35799523Y185067620D02*
X35228095Y185067620D01*
X35513809Y185067620D02*
X35513809Y186067620D01*
X35418571Y185924762D01*
X35323333Y185829524D01*
X35228095Y185781905D01*
%TO.C,D13*%
X76370661Y80981146D02*
X76264397Y81975484D01*
X76501144Y82000785D01*
X76648253Y81968616D01*
X76753072Y81884038D01*
X76810542Y81794399D01*
X76878132Y81610061D01*
X76893312Y81468013D01*
X76866204Y81273555D01*
X76828975Y81173796D01*
X76744396Y81068977D01*
X76607408Y81006447D01*
X76370661Y80981146D01*
X77885843Y81143072D02*
X77317649Y81082350D01*
X77601746Y81112711D02*
X77495482Y82107049D01*
X77415964Y81954880D01*
X77331385Y81850061D01*
X77241747Y81792591D01*
X78111025Y82172832D02*
X78726567Y82238614D01*
X78435603Y81824397D01*
X78577651Y81839578D01*
X78677410Y81802349D01*
X78729820Y81760060D01*
X78787289Y81670421D01*
X78812590Y81433674D01*
X78775361Y81333915D01*
X78733072Y81281505D01*
X78643433Y81224035D01*
X78359337Y81193674D01*
X78259578Y81230903D01*
X78207168Y81273192D01*
%TO.C,R3*%
X181413333Y46752620D02*
X181080000Y47228810D01*
X180841904Y46752620D02*
X180841904Y47752620D01*
X181222857Y47752620D01*
X181318095Y47705000D01*
X181365714Y47657381D01*
X181413333Y47562143D01*
X181413333Y47419286D01*
X181365714Y47324048D01*
X181318095Y47276429D01*
X181222857Y47228810D01*
X180841904Y47228810D01*
X181746666Y47752620D02*
X182365714Y47752620D01*
X182032380Y47371667D01*
X182175238Y47371667D01*
X182270476Y47324048D01*
X182318095Y47276429D01*
X182365714Y47181191D01*
X182365714Y46943096D01*
X182318095Y46847858D01*
X182270476Y46800239D01*
X182175238Y46752620D01*
X181889523Y46752620D01*
X181794285Y46800239D01*
X181746666Y46847858D01*
%TO.C,D38*%
X182073655Y58341192D02*
X181254503Y57767615D01*
X181117937Y57962652D01*
X181075005Y58106987D01*
X181098393Y58239627D01*
X181149094Y58333261D01*
X181277810Y58481521D01*
X181394832Y58563460D01*
X181578174Y58633706D01*
X181683502Y58649325D01*
X181816142Y58625937D01*
X181937089Y58536228D01*
X182073655Y58341192D01*
X180735553Y58508753D02*
X180380482Y59015847D01*
X180883732Y58961302D01*
X180801792Y59078324D01*
X180786173Y59183651D01*
X180797867Y59249972D01*
X180848569Y59343605D01*
X181043605Y59480171D01*
X181148932Y59495790D01*
X181215253Y59484096D01*
X181308886Y59433395D01*
X181472765Y59199351D01*
X181488384Y59094024D01*
X181476690Y59027703D01*
X180403789Y59729753D02*
X180419408Y59624425D01*
X180407714Y59558104D01*
X180357013Y59464471D01*
X180318005Y59437158D01*
X180212678Y59421539D01*
X180146357Y59433233D01*
X180052724Y59483934D01*
X179943471Y59639963D01*
X179927852Y59745291D01*
X179939546Y59811611D01*
X179990247Y59905245D01*
X180029255Y59932558D01*
X180134582Y59948177D01*
X180200903Y59936483D01*
X180294536Y59885781D01*
X180403789Y59729753D01*
X180497422Y59679051D01*
X180563743Y59667357D01*
X180669070Y59682976D01*
X180825099Y59792229D01*
X180875801Y59885862D01*
X180887495Y59952183D01*
X180871876Y60057510D01*
X180762623Y60213539D01*
X180668990Y60264241D01*
X180602669Y60275935D01*
X180497341Y60260316D01*
X180341313Y60151063D01*
X180290611Y60057430D01*
X180278917Y59991109D01*
X180294536Y59885781D01*
%TO.C,D2*%
X27210277Y183764832D02*
X26339922Y184257256D01*
X26457165Y184464483D01*
X26568957Y184565371D01*
X26698746Y184601364D01*
X26805085Y184595913D01*
X26994316Y184543563D01*
X27118653Y184473217D01*
X27260986Y184337976D01*
X27320428Y184249633D01*
X27356422Y184119845D01*
X27327521Y183972060D01*
X27210277Y183764832D01*
X26891787Y185039268D02*
X26873791Y185104163D01*
X26879243Y185210502D01*
X26996486Y185417730D01*
X27084829Y185477172D01*
X27149724Y185495169D01*
X27256063Y185489717D01*
X27338954Y185442819D01*
X27439842Y185331028D01*
X27655803Y184552297D01*
X27960637Y185091088D01*
%TO.C,D44*%
X172454083Y120375841D02*
X171634931Y120949417D01*
X171771496Y121144453D01*
X171892443Y121234162D01*
X172025084Y121257550D01*
X172130412Y121241931D01*
X172313754Y121171686D01*
X172430775Y121089746D01*
X172559491Y120941486D01*
X172610193Y120847853D01*
X172633581Y120715212D01*
X172590648Y120570877D01*
X172454083Y120375841D01*
X172727376Y121928442D02*
X173273478Y121546058D01*
X172278752Y121951911D02*
X172727295Y121347178D01*
X173082366Y121854272D01*
X173273639Y122708587D02*
X173819741Y122326203D01*
X172825016Y122732056D02*
X173273558Y122127323D01*
X173628630Y122634417D01*
%TO.C,D24*%
X224735482Y120850785D02*
X224629218Y119856447D01*
X224392471Y119881748D01*
X224255482Y119944278D01*
X224170904Y120049097D01*
X224133675Y120148856D01*
X224106566Y120343314D01*
X224121747Y120485363D01*
X224189337Y120669700D01*
X224246807Y120759339D01*
X224351626Y120843917D01*
X224498735Y120876086D01*
X224735482Y120850785D01*
X223692350Y120052350D02*
X223639940Y120010061D01*
X223540181Y119972832D01*
X223303434Y119998133D01*
X223213795Y120055602D01*
X223171506Y120108012D01*
X223134277Y120207771D01*
X223144397Y120302470D01*
X223206927Y120439458D01*
X223835843Y120946929D01*
X223220300Y121012711D01*
X222297168Y120440903D02*
X222368010Y121103795D01*
X222493433Y120036806D02*
X222806083Y120721747D01*
X222190541Y120787529D01*
%TO.C,D3*%
X38870276Y163914832D02*
X37999921Y164407256D01*
X38117164Y164614483D01*
X38228956Y164715371D01*
X38358745Y164751364D01*
X38465084Y164745913D01*
X38654315Y164693563D01*
X38778652Y164623217D01*
X38920985Y164487976D01*
X38980427Y164399633D01*
X39016421Y164269845D01*
X38987520Y164122060D01*
X38870276Y163914832D01*
X38445447Y165194720D02*
X38750280Y165733512D01*
X38917703Y165255803D01*
X38988049Y165380140D01*
X39076392Y165439582D01*
X39141287Y165457579D01*
X39247626Y165452127D01*
X39454854Y165334883D01*
X39514296Y165246540D01*
X39532293Y165181646D01*
X39526841Y165075306D01*
X39386149Y164826633D01*
X39297806Y164767191D01*
X39232911Y164749194D01*
%TO.C,D16*%
X90070661Y63011146D02*
X89964397Y64005484D01*
X90201144Y64030785D01*
X90348253Y63998616D01*
X90453072Y63914038D01*
X90510542Y63824399D01*
X90578132Y63640061D01*
X90593312Y63498013D01*
X90566204Y63303555D01*
X90528975Y63203796D01*
X90444396Y63098977D01*
X90307408Y63036447D01*
X90070661Y63011146D01*
X91585843Y63173072D02*
X91017649Y63112350D01*
X91301746Y63142711D02*
X91195482Y64137049D01*
X91115964Y63984880D01*
X91031385Y63880061D01*
X90941747Y63822591D01*
X92331868Y64258494D02*
X92142471Y64238253D01*
X92052832Y64180783D01*
X92010543Y64128373D01*
X91931024Y63976205D01*
X91903916Y63781747D01*
X91944397Y63402951D01*
X92001867Y63313313D01*
X92054277Y63271024D01*
X92154036Y63233795D01*
X92343433Y63254035D01*
X92433072Y63311505D01*
X92475361Y63363915D01*
X92512590Y63463674D01*
X92487289Y63700421D01*
X92429820Y63790060D01*
X92377410Y63832349D01*
X92277651Y63869578D01*
X92088253Y63849337D01*
X91998615Y63791867D01*
X91956325Y63739458D01*
X91919096Y63639699D01*
%TO.C,H6*%
X211078095Y157647620D02*
X211078095Y158647620D01*
X211078095Y158171429D02*
X211649523Y158171429D01*
X211649523Y157647620D02*
X211649523Y158647620D01*
X212554285Y158647620D02*
X212363809Y158647620D01*
X212268571Y158600000D01*
X212220952Y158552381D01*
X212125714Y158409524D01*
X212078095Y158219048D01*
X212078095Y157838096D01*
X212125714Y157742858D01*
X212173333Y157695239D01*
X212268571Y157647620D01*
X212459047Y157647620D01*
X212554285Y157695239D01*
X212601904Y157742858D01*
X212649523Y157838096D01*
X212649523Y158076191D01*
X212601904Y158171429D01*
X212554285Y158219048D01*
X212459047Y158266667D01*
X212268571Y158266667D01*
X212173333Y158219048D01*
X212125714Y158171429D01*
X212078095Y158076191D01*
%TO.C,D27*%
X235181791Y164808081D02*
X234317516Y164305061D01*
X234197749Y164510840D01*
X234167045Y164658262D01*
X234201451Y164788480D01*
X234259809Y164877543D01*
X234400480Y165014512D01*
X234523947Y165086372D01*
X234712525Y165141029D01*
X234818790Y165147780D01*
X234949008Y165113375D01*
X235062024Y165013860D01*
X235181791Y164808081D01*
X233920761Y165176086D02*
X233855652Y165193289D01*
X233766589Y165251647D01*
X233646823Y165457427D01*
X233640072Y165563692D01*
X233657275Y165628802D01*
X233715633Y165717864D01*
X233797945Y165765771D01*
X233945366Y165796475D01*
X234726678Y165590044D01*
X234415284Y166125071D01*
X233383336Y165910142D02*
X233047990Y166486326D01*
X234127844Y166618942D01*
%TO.C,D45*%
X188547054Y123294791D02*
X187727902Y122721214D01*
X187591336Y122916251D01*
X187548404Y123060586D01*
X187571792Y123193226D01*
X187622493Y123286860D01*
X187751209Y123435120D01*
X187868231Y123517059D01*
X188051573Y123587305D01*
X188156901Y123602924D01*
X188289541Y123579536D01*
X188410488Y123489827D01*
X188547054Y123294791D01*
X187181558Y124082624D02*
X187727659Y124465008D01*
X187006066Y123669082D02*
X187727740Y123883744D01*
X187372669Y124390838D01*
X186334931Y124710584D02*
X186608062Y124320511D01*
X187025448Y124554636D01*
X186959127Y124566330D01*
X186865494Y124617031D01*
X186728928Y124812067D01*
X186713309Y124917395D01*
X186725003Y124983715D01*
X186775704Y125077349D01*
X186970740Y125213915D01*
X187076068Y125229534D01*
X187142389Y125217840D01*
X187236022Y125167138D01*
X187372588Y124972102D01*
X187388207Y124866775D01*
X187376513Y124800454D01*
%TO.C,D47*%
X177332380Y143878215D02*
X176332380Y143878215D01*
X176332380Y144116310D01*
X176380000Y144259167D01*
X176475238Y144354405D01*
X176570476Y144402024D01*
X176760952Y144449643D01*
X176903809Y144449643D01*
X177094285Y144402024D01*
X177189523Y144354405D01*
X177284761Y144259167D01*
X177332380Y144116310D01*
X177332380Y143878215D01*
X176665714Y145306786D02*
X177332380Y145306786D01*
X176284761Y145068691D02*
X176999047Y144830596D01*
X176999047Y145449643D01*
X176332380Y145735358D02*
X176332380Y146402024D01*
X177332380Y145973453D01*
%TO.C,D1*%
X21610276Y173744832D02*
X20739921Y174237256D01*
X20857164Y174444483D01*
X20968956Y174545371D01*
X21098745Y174581364D01*
X21205084Y174575913D01*
X21394315Y174523563D01*
X21518652Y174453217D01*
X21660985Y174317976D01*
X21720427Y174229633D01*
X21756421Y174099845D01*
X21727520Y173952060D01*
X21610276Y173744832D01*
X22360636Y175071088D02*
X22079251Y174573742D01*
X22219944Y174822415D02*
X21349588Y175314839D01*
X21427027Y175161602D01*
X21463021Y175031813D01*
X21457569Y174925473D01*
%TO.C,R1*%
X166513333Y43177620D02*
X166180000Y43653810D01*
X165941904Y43177620D02*
X165941904Y44177620D01*
X166322857Y44177620D01*
X166418095Y44130000D01*
X166465714Y44082381D01*
X166513333Y43987143D01*
X166513333Y43844286D01*
X166465714Y43749048D01*
X166418095Y43701429D01*
X166322857Y43653810D01*
X165941904Y43653810D01*
X167465714Y43177620D02*
X166894285Y43177620D01*
X167180000Y43177620D02*
X167180000Y44177620D01*
X167084761Y44034762D01*
X166989523Y43939524D01*
X166894285Y43891905D01*
%TO.C,D9*%
X73034155Y120381748D02*
X72927891Y121376086D01*
X73164638Y121401387D01*
X73311747Y121369218D01*
X73416566Y121284640D01*
X73474036Y121195001D01*
X73541626Y121010663D01*
X73556807Y120868615D01*
X73529698Y120674157D01*
X73492469Y120574398D01*
X73407890Y120469579D01*
X73270902Y120407049D01*
X73034155Y120381748D01*
X74075843Y120493072D02*
X74265240Y120513313D01*
X74354879Y120570783D01*
X74397168Y120623192D01*
X74476686Y120775361D01*
X74503795Y120969819D01*
X74463314Y121348614D01*
X74405844Y121438253D01*
X74353434Y121480542D01*
X74253675Y121517771D01*
X74064277Y121497531D01*
X73974639Y121440061D01*
X73932350Y121387651D01*
X73895120Y121287892D01*
X73920421Y121051145D01*
X73977891Y120961506D01*
X74030301Y120919217D01*
X74130060Y120881988D01*
X74319458Y120902229D01*
X74409096Y120959699D01*
X74451386Y121012108D01*
X74488615Y121111867D01*
%TO.C,D25*%
X217781791Y155408081D02*
X216917516Y154905061D01*
X216797749Y155110840D01*
X216767045Y155258262D01*
X216801451Y155388480D01*
X216859809Y155477543D01*
X217000480Y155614512D01*
X217123947Y155686372D01*
X217312525Y155741029D01*
X217418790Y155747780D01*
X217549008Y155713375D01*
X217662024Y155613860D01*
X217781791Y155408081D01*
X216520761Y155776086D02*
X216455652Y155793289D01*
X216366589Y155851647D01*
X216246823Y156057427D01*
X216240072Y156163692D01*
X216257275Y156228802D01*
X216315633Y156317864D01*
X216397945Y156365771D01*
X216545366Y156396475D01*
X217326678Y156190044D01*
X217015284Y156725071D01*
X215695896Y157004014D02*
X215935430Y156592454D01*
X216370942Y156790832D01*
X216305833Y156808034D01*
X216216770Y156866393D01*
X216097004Y157072173D01*
X216090253Y157178438D01*
X216107456Y157243547D01*
X216165814Y157332610D01*
X216371594Y157452376D01*
X216477859Y157459127D01*
X216542968Y157441924D01*
X216632031Y157383566D01*
X216751798Y157177786D01*
X216758548Y157071521D01*
X216741346Y157006412D01*
%TO.C,D50*%
X128373655Y123191192D02*
X127554503Y122617615D01*
X127417937Y122812652D01*
X127375005Y122956987D01*
X127398393Y123089627D01*
X127449094Y123183261D01*
X127577810Y123331521D01*
X127694832Y123413460D01*
X127878174Y123483706D01*
X127983502Y123499325D01*
X128116142Y123475937D01*
X128237089Y123386228D01*
X128373655Y123191192D01*
X126707795Y123826840D02*
X126980926Y123436768D01*
X127398312Y123670892D01*
X127331992Y123682586D01*
X127238358Y123733287D01*
X127101792Y123928324D01*
X127086173Y124033651D01*
X127097867Y124099972D01*
X127148569Y124193605D01*
X127343605Y124330171D01*
X127448932Y124345790D01*
X127515253Y124334096D01*
X127608886Y124283395D01*
X127745452Y124088358D01*
X127761071Y123983031D01*
X127749377Y123916710D01*
X126325411Y124372941D02*
X126270784Y124450956D01*
X126255165Y124556283D01*
X126266859Y124622604D01*
X126317561Y124716237D01*
X126446276Y124864497D01*
X126641313Y125001063D01*
X126824655Y125071309D01*
X126929982Y125086928D01*
X126996303Y125075234D01*
X127089936Y125024532D01*
X127144563Y124946518D01*
X127160182Y124841190D01*
X127148488Y124774870D01*
X127097786Y124681236D01*
X126969070Y124532976D01*
X126774034Y124396410D01*
X126590692Y124326165D01*
X126485365Y124310546D01*
X126419044Y124322240D01*
X126325411Y124372941D01*
%TO.C,D51*%
X128504335Y137115084D02*
X128162314Y138054777D01*
X128386051Y138136210D01*
X128536579Y138140323D01*
X128658647Y138083402D01*
X128735968Y138010194D01*
X128845862Y137847492D01*
X128894722Y137713250D01*
X128915121Y137517974D01*
X128902947Y137412193D01*
X128846026Y137290125D01*
X128728071Y137196518D01*
X128504335Y137115084D01*
X129549480Y138559664D02*
X129102007Y138396797D01*
X129220127Y137933038D01*
X129248587Y137994072D01*
X129321795Y138071392D01*
X129545531Y138152826D01*
X129651313Y138140652D01*
X129712346Y138112191D01*
X129789667Y138038983D01*
X129871100Y137815247D01*
X129858927Y137709466D01*
X129830466Y137648432D01*
X129757258Y137571111D01*
X129533522Y137489678D01*
X129427741Y137501852D01*
X129366707Y137530312D01*
X130831192Y137961991D02*
X130294225Y137766551D01*
X130562709Y137864271D02*
X130220689Y138803964D01*
X130180054Y138637149D01*
X130123133Y138515081D01*
X130049925Y138437760D01*
%TO.C,SW2*%
X55194019Y170667039D02*
X55094505Y170780055D01*
X54888725Y170899821D01*
X54782460Y170906572D01*
X54717351Y170889369D01*
X54628288Y170831011D01*
X54580381Y170748699D01*
X54573631Y170642434D01*
X54590833Y170577325D01*
X54649192Y170488262D01*
X54789862Y170351293D01*
X54848221Y170262230D01*
X54865423Y170197121D01*
X54858673Y170090856D01*
X54810766Y170008544D01*
X54721703Y169950185D01*
X54656594Y169932982D01*
X54550329Y169939733D01*
X54344549Y170059500D01*
X54245035Y170172516D01*
X53932990Y170299033D02*
X54230230Y171283075D01*
X53706306Y170761549D01*
X53900982Y171474701D01*
X53192183Y170730193D01*
X52951998Y170980178D02*
X52886888Y170962976D01*
X52780623Y170969726D01*
X52574844Y171089493D01*
X52516485Y171178556D01*
X52499282Y171243665D01*
X52506033Y171349930D01*
X52553940Y171432242D01*
X52666956Y171531757D01*
X53448267Y171738188D01*
X52913240Y172049581D01*
%TO.C,D20*%
X220485482Y81600785D02*
X220379218Y80606447D01*
X220142471Y80631748D01*
X220005482Y80694278D01*
X219920904Y80799097D01*
X219883675Y80898856D01*
X219856566Y81093314D01*
X219871747Y81235363D01*
X219939337Y81419700D01*
X219996807Y81509339D01*
X220101626Y81593917D01*
X220248735Y81626086D01*
X220485482Y81600785D01*
X219442350Y80802350D02*
X219389940Y80760061D01*
X219290181Y80722832D01*
X219053434Y80748133D01*
X218963795Y80805602D01*
X218921506Y80858012D01*
X218884277Y80957771D01*
X218894397Y81052470D01*
X218956927Y81189458D01*
X219585843Y81696929D01*
X218970300Y81762711D01*
X218248493Y80834156D02*
X218153795Y80844276D01*
X218064156Y80901746D01*
X218021867Y80954156D01*
X217984638Y81053915D01*
X217957529Y81248373D01*
X217982830Y81485120D01*
X218050420Y81669457D01*
X218107890Y81759096D01*
X218160300Y81801385D01*
X218260059Y81838614D01*
X218354758Y81828494D01*
X218444396Y81771024D01*
X218486685Y81718614D01*
X218523914Y81618855D01*
X218551023Y81424397D01*
X218525722Y81187650D01*
X218458132Y81003313D01*
X218400662Y80913674D01*
X218348253Y80871385D01*
X218248493Y80834156D01*
%TO.C,SW10*%
X223853749Y160168457D02*
X224001170Y160199161D01*
X224206950Y160318928D01*
X224265308Y160407991D01*
X224282511Y160473100D01*
X224275760Y160579365D01*
X224227854Y160661677D01*
X224138791Y160720036D01*
X224073682Y160737238D01*
X223967417Y160730488D01*
X223778839Y160675830D01*
X223672574Y160669079D01*
X223607465Y160686282D01*
X223518402Y160744641D01*
X223470496Y160826953D01*
X223463745Y160933218D01*
X223480948Y160998327D01*
X223539306Y161087390D01*
X223745086Y161207156D01*
X223892507Y161237860D01*
X224156645Y161446690D02*
X224865445Y160702181D01*
X224670769Y161415334D01*
X225194692Y160893808D01*
X224897452Y161877850D01*
X226182435Y161468688D02*
X225688564Y161181248D01*
X225935499Y161324968D02*
X225432480Y162189243D01*
X225422028Y162017868D01*
X225387622Y161887650D01*
X225329264Y161798587D01*
X226214442Y162644356D02*
X226296754Y162692263D01*
X226403020Y162699013D01*
X226468129Y162681811D01*
X226557191Y162623452D01*
X226694161Y162482782D01*
X226813927Y162277002D01*
X226868585Y162088425D01*
X226875335Y161982160D01*
X226858133Y161917051D01*
X226799774Y161827988D01*
X226717462Y161780081D01*
X226611197Y161773331D01*
X226546088Y161790533D01*
X226457025Y161848892D01*
X226320056Y161989562D01*
X226200289Y162195342D01*
X226145632Y162383919D01*
X226138881Y162490184D01*
X226156084Y162555293D01*
X226214442Y162644356D01*
%TO.C,D43*%
X167386445Y135189296D02*
X167044425Y134249604D01*
X166820689Y134331037D01*
X166702734Y134424644D01*
X166645812Y134546712D01*
X166633639Y134652493D01*
X166654038Y134847769D01*
X166702898Y134982011D01*
X166812792Y135144713D01*
X166890113Y135217921D01*
X167012180Y135274842D01*
X167162709Y135270730D01*
X167386445Y135189296D01*
X165816014Y135051435D02*
X166044027Y135677897D01*
X165909457Y134612023D02*
X166377493Y135201799D01*
X165795779Y135413526D01*
X165299282Y134884784D02*
X164717567Y135096511D01*
X165161091Y135340482D01*
X165026850Y135389342D01*
X164953642Y135466663D01*
X164925181Y135527697D01*
X164913007Y135633478D01*
X164994441Y135857214D01*
X165071761Y135930422D01*
X165132795Y135958883D01*
X165238576Y135971057D01*
X165507060Y135873337D01*
X165580268Y135796016D01*
X165608728Y135734982D01*
%TO.C,SW4*%
X87674242Y111548645D02*
X87706411Y111695754D01*
X87681110Y111932501D01*
X87623640Y112022139D01*
X87571230Y112064429D01*
X87471471Y112101658D01*
X87376773Y112091537D01*
X87287134Y112034068D01*
X87244845Y111981658D01*
X87207616Y111881899D01*
X87180507Y111687441D01*
X87143278Y111587682D01*
X87100989Y111535272D01*
X87011350Y111477803D01*
X86916651Y111467682D01*
X86816892Y111504911D01*
X86764483Y111547200D01*
X86707013Y111636839D01*
X86681712Y111873586D01*
X86713881Y112020695D01*
X86631110Y112347080D02*
X87600147Y112690092D01*
X86869665Y112803586D01*
X87559665Y113068887D01*
X86540026Y113199370D01*
X86785449Y114039732D02*
X87448341Y114110574D01*
X86431955Y113762503D02*
X87167497Y113601659D01*
X87101714Y114217201D01*
%TO.C,SW1*%
X37644019Y180257039D02*
X37544505Y180370055D01*
X37338725Y180489821D01*
X37232460Y180496572D01*
X37167351Y180479369D01*
X37078288Y180421011D01*
X37030381Y180338699D01*
X37023631Y180232434D01*
X37040833Y180167325D01*
X37099192Y180078262D01*
X37239862Y179941293D01*
X37298221Y179852230D01*
X37315423Y179787121D01*
X37308673Y179680856D01*
X37260766Y179598544D01*
X37171703Y179540185D01*
X37106594Y179522982D01*
X37000329Y179529733D01*
X36794549Y179649500D01*
X36695035Y179762516D01*
X36382990Y179889033D02*
X36680230Y180873075D01*
X36156306Y180351549D01*
X36350982Y181064701D01*
X35642183Y180320193D01*
X35363240Y181639581D02*
X35857111Y181352141D01*
X35610175Y181495861D02*
X35107155Y180631586D01*
X35261327Y180707148D01*
X35391546Y180741553D01*
X35497811Y180734802D01*
%TO.C,D8*%
X79010276Y154964832D02*
X78139921Y155457256D01*
X78257164Y155664483D01*
X78368956Y155765371D01*
X78498745Y155801364D01*
X78605084Y155795913D01*
X78794315Y155743563D01*
X78918652Y155673217D01*
X79060985Y155537976D01*
X79120427Y155449633D01*
X79156421Y155319845D01*
X79127520Y155172060D01*
X79010276Y154964832D01*
X79075700Y156240909D02*
X78987357Y156181467D01*
X78922463Y156163470D01*
X78816123Y156168922D01*
X78774678Y156192371D01*
X78715235Y156280714D01*
X78697238Y156345608D01*
X78702690Y156451948D01*
X78796485Y156617730D01*
X78884828Y156677172D01*
X78949723Y156695169D01*
X79056062Y156689717D01*
X79097508Y156666268D01*
X79156950Y156577925D01*
X79174947Y156513031D01*
X79169495Y156406691D01*
X79075700Y156240909D01*
X79070248Y156134569D01*
X79088245Y156069675D01*
X79147687Y155981332D01*
X79313469Y155887537D01*
X79419809Y155882085D01*
X79484703Y155900082D01*
X79573046Y155959524D01*
X79666841Y156125306D01*
X79672293Y156231646D01*
X79654296Y156296540D01*
X79594854Y156384883D01*
X79429072Y156478678D01*
X79322732Y156484130D01*
X79257838Y156466133D01*
X79169495Y156406691D01*
%TO.C,C4*%
X190813333Y153647858D02*
X190765714Y153600239D01*
X190622857Y153552620D01*
X190527619Y153552620D01*
X190384761Y153600239D01*
X190289523Y153695477D01*
X190241904Y153790715D01*
X190194285Y153981191D01*
X190194285Y154124048D01*
X190241904Y154314524D01*
X190289523Y154409762D01*
X190384761Y154505000D01*
X190527619Y154552620D01*
X190622857Y154552620D01*
X190765714Y154505000D01*
X190813333Y154457381D01*
X191670476Y154219286D02*
X191670476Y153552620D01*
X191432380Y154600239D02*
X191194285Y153885953D01*
X191813333Y153885953D01*
%TO.C,D40*%
X170857380Y78628215D02*
X169857380Y78628215D01*
X169857380Y78866310D01*
X169905000Y79009167D01*
X170000238Y79104405D01*
X170095476Y79152024D01*
X170285952Y79199643D01*
X170428809Y79199643D01*
X170619285Y79152024D01*
X170714523Y79104405D01*
X170809761Y79009167D01*
X170857380Y78866310D01*
X170857380Y78628215D01*
X170190714Y80056786D02*
X170857380Y80056786D01*
X169809761Y79818691D02*
X170524047Y79580596D01*
X170524047Y80199643D01*
X169857380Y80771072D02*
X169857380Y80866310D01*
X169905000Y80961548D01*
X169952619Y81009167D01*
X170047857Y81056786D01*
X170238333Y81104405D01*
X170476428Y81104405D01*
X170666904Y81056786D01*
X170762142Y81009167D01*
X170809761Y80961548D01*
X170857380Y80866310D01*
X170857380Y80771072D01*
X170809761Y80675834D01*
X170762142Y80628215D01*
X170666904Y80580596D01*
X170476428Y80532977D01*
X170238333Y80532977D01*
X170047857Y80580596D01*
X169952619Y80628215D01*
X169905000Y80675834D01*
X169857380Y80771072D01*
%TO.C,D10*%
X83500661Y121481146D02*
X83394397Y122475484D01*
X83631144Y122500785D01*
X83778253Y122468616D01*
X83883072Y122384038D01*
X83940542Y122294399D01*
X84008132Y122110061D01*
X84023312Y121968013D01*
X83996204Y121773555D01*
X83958975Y121673796D01*
X83874396Y121568977D01*
X83737408Y121506447D01*
X83500661Y121481146D01*
X85015843Y121643072D02*
X84447649Y121582350D01*
X84731746Y121612711D02*
X84625482Y122607049D01*
X84545964Y122454880D01*
X84461385Y122350061D01*
X84371747Y122292591D01*
X85525121Y122703193D02*
X85619820Y122713313D01*
X85719579Y122676084D01*
X85771989Y122633795D01*
X85829458Y122544156D01*
X85897049Y122359819D01*
X85922350Y122123071D01*
X85895241Y121928614D01*
X85858012Y121828855D01*
X85815723Y121776445D01*
X85726084Y121718975D01*
X85631385Y121708855D01*
X85531626Y121746084D01*
X85479216Y121788373D01*
X85421747Y121878012D01*
X85354156Y122062349D01*
X85328855Y122299096D01*
X85355964Y122493554D01*
X85393193Y122593313D01*
X85435482Y122645723D01*
X85525121Y122703193D01*
%TO.C,D42*%
X165854083Y55575841D02*
X165034931Y56149417D01*
X165171496Y56344453D01*
X165292443Y56434162D01*
X165425084Y56457550D01*
X165530412Y56441931D01*
X165713754Y56371686D01*
X165830775Y56289746D01*
X165959491Y56141486D01*
X166010193Y56047853D01*
X166033581Y55915212D01*
X165990648Y55770877D01*
X165854083Y55575841D01*
X166127376Y57128442D02*
X166673478Y56746058D01*
X165678752Y57151911D02*
X166127295Y56547178D01*
X166482366Y57054272D01*
X166205472Y57655081D02*
X166193778Y57721401D01*
X166209397Y57826729D01*
X166345962Y58021765D01*
X166439596Y58072466D01*
X166505916Y58084160D01*
X166611244Y58068541D01*
X166689259Y58013915D01*
X166778967Y57892968D01*
X166919296Y57097123D01*
X167274367Y57604217D01*
%TO.C,D37*%
X118492956Y55529440D02*
X117673804Y56103016D01*
X117810369Y56298052D01*
X117931316Y56387761D01*
X118063957Y56411149D01*
X118169285Y56395530D01*
X118352627Y56325285D01*
X118469648Y56243345D01*
X118598364Y56095085D01*
X118649066Y56001452D01*
X118672454Y55868811D01*
X118629521Y55724476D01*
X118492956Y55529440D01*
X118192754Y56844154D02*
X118547825Y57351248D01*
X118668691Y56859692D01*
X118750630Y56976714D01*
X118844264Y57027415D01*
X118910584Y57039109D01*
X119015912Y57023490D01*
X119210948Y56886924D01*
X119261649Y56793291D01*
X119273343Y56726970D01*
X119257724Y56621643D01*
X119093845Y56387599D01*
X119000212Y56336898D01*
X118933891Y56325204D01*
X118739017Y57624299D02*
X119121401Y58170400D01*
X119694735Y57245758D01*
%TO.C,C3*%
X120963333Y153647858D02*
X120915714Y153600239D01*
X120772857Y153552620D01*
X120677619Y153552620D01*
X120534761Y153600239D01*
X120439523Y153695477D01*
X120391904Y153790715D01*
X120344285Y153981191D01*
X120344285Y154124048D01*
X120391904Y154314524D01*
X120439523Y154409762D01*
X120534761Y154505000D01*
X120677619Y154552620D01*
X120772857Y154552620D01*
X120915714Y154505000D01*
X120963333Y154457381D01*
X121296666Y154552620D02*
X121915714Y154552620D01*
X121582380Y154171667D01*
X121725238Y154171667D01*
X121820476Y154124048D01*
X121868095Y154076429D01*
X121915714Y153981191D01*
X121915714Y153743096D01*
X121868095Y153647858D01*
X121820476Y153600239D01*
X121725238Y153552620D01*
X121439523Y153552620D01*
X121344285Y153600239D01*
X121296666Y153647858D01*
%TO.C,D17*%
X206735482Y63850785D02*
X206629218Y62856447D01*
X206392471Y62881748D01*
X206255482Y62944278D01*
X206170904Y63049097D01*
X206133675Y63148856D01*
X206106566Y63343314D01*
X206121747Y63485363D01*
X206189337Y63669700D01*
X206246807Y63759339D01*
X206351626Y63843917D01*
X206498735Y63876086D01*
X206735482Y63850785D01*
X205220300Y64012711D02*
X205788493Y63951989D01*
X205504397Y63982350D02*
X205398133Y62988012D01*
X205508012Y63119940D01*
X205612831Y63204519D01*
X205712590Y63241748D01*
X204782590Y63053795D02*
X204119698Y63124637D01*
X204652107Y64073434D01*
%TO.C,D31*%
X269781791Y184008081D02*
X268917516Y183505061D01*
X268797749Y183710840D01*
X268767045Y183858262D01*
X268801451Y183988480D01*
X268859809Y184077543D01*
X269000480Y184214512D01*
X269123947Y184286372D01*
X269312525Y184341029D01*
X269418790Y184347780D01*
X269549008Y184313375D01*
X269662024Y184213860D01*
X269781791Y184008081D01*
X268462403Y184287024D02*
X268151010Y184822051D01*
X268647930Y184725586D01*
X268576070Y184849054D01*
X268569320Y184955319D01*
X268586522Y185020428D01*
X268644881Y185109491D01*
X268850661Y185229257D01*
X268956926Y185236008D01*
X269022035Y185218806D01*
X269111098Y185160447D01*
X269254818Y184913511D01*
X269261568Y184807246D01*
X269244366Y184742137D01*
X268536218Y186148190D02*
X268823658Y185654318D01*
X268679938Y185901254D02*
X267815663Y185398234D01*
X267987037Y185387782D01*
X268117256Y185353377D01*
X268206319Y185295018D01*
%TO.C,D23*%
X213235482Y122100785D02*
X213129218Y121106447D01*
X212892471Y121131748D01*
X212755482Y121194278D01*
X212670904Y121299097D01*
X212633675Y121398856D01*
X212606566Y121593314D01*
X212621747Y121735363D01*
X212689337Y121919700D01*
X212746807Y122009339D01*
X212851626Y122093917D01*
X212998735Y122126086D01*
X213235482Y122100785D01*
X212192350Y121302350D02*
X212139940Y121260061D01*
X212040181Y121222832D01*
X211803434Y121248133D01*
X211713795Y121305602D01*
X211671506Y121358012D01*
X211634277Y121457771D01*
X211644397Y121552470D01*
X211706927Y121689458D01*
X212335843Y122196929D01*
X211720300Y122262711D01*
X211282590Y121303795D02*
X210667047Y121369577D01*
X211038975Y121712951D01*
X210896927Y121728132D01*
X210807288Y121785602D01*
X210764999Y121838011D01*
X210727770Y121937770D01*
X210753071Y122174517D01*
X210810541Y122264156D01*
X210862950Y122306445D01*
X210962709Y122343674D01*
X211246806Y122313313D01*
X211336444Y122255843D01*
X211378734Y122203434D01*
%TO.C,D19*%
X208735482Y83350785D02*
X208629218Y82356447D01*
X208392471Y82381748D01*
X208255482Y82444278D01*
X208170904Y82549097D01*
X208133675Y82648856D01*
X208106566Y82843314D01*
X208121747Y82985363D01*
X208189337Y83169700D01*
X208246807Y83259339D01*
X208351626Y83343917D01*
X208498735Y83376086D01*
X208735482Y83350785D01*
X207220300Y83512711D02*
X207788493Y83451989D01*
X207504397Y83482350D02*
X207398133Y82488012D01*
X207508012Y82619940D01*
X207612831Y82704519D01*
X207712590Y82741748D01*
X206746806Y83563313D02*
X206557408Y83583554D01*
X206457649Y83546325D01*
X206405239Y83504036D01*
X206295360Y83372108D01*
X206227770Y83187770D01*
X206187288Y82808975D01*
X206224517Y82709216D01*
X206266807Y82656806D01*
X206356445Y82599336D01*
X206545843Y82579096D01*
X206645602Y82616325D01*
X206698012Y82658614D01*
X206755481Y82748253D01*
X206780782Y82985000D01*
X206743553Y83084759D01*
X206701264Y83137168D01*
X206611625Y83194638D01*
X206422228Y83214879D01*
X206322469Y83177650D01*
X206270059Y83135361D01*
X206212589Y83045722D01*
%TO.C,D36*%
X113761445Y70189296D02*
X113419425Y69249604D01*
X113195689Y69331037D01*
X113077734Y69424644D01*
X113020812Y69546712D01*
X113008639Y69652493D01*
X113029038Y69847769D01*
X113077898Y69982011D01*
X113187792Y70144713D01*
X113265113Y70217921D01*
X113387180Y70274842D01*
X113537709Y70270730D01*
X113761445Y70189296D01*
X112569227Y69559051D02*
X111987513Y69770777D01*
X112431037Y70014749D01*
X112296795Y70063609D01*
X112223587Y70140929D01*
X112195127Y70201963D01*
X112182953Y70307745D01*
X112264386Y70531481D01*
X112341707Y70604689D01*
X112402741Y70633149D01*
X112508522Y70645323D01*
X112777005Y70547603D01*
X112850213Y70470283D01*
X112878674Y70409249D01*
X111182062Y70063937D02*
X111361051Y69998791D01*
X111466832Y70010965D01*
X111527866Y70039425D01*
X111666220Y70141094D01*
X111776114Y70303796D01*
X111906408Y70661774D01*
X111894234Y70767555D01*
X111865773Y70828589D01*
X111792565Y70905910D01*
X111613576Y70971057D01*
X111507795Y70958883D01*
X111446761Y70930422D01*
X111369441Y70857214D01*
X111288007Y70633478D01*
X111300181Y70527697D01*
X111328642Y70466663D01*
X111401850Y70389342D01*
X111580839Y70324196D01*
X111686620Y70336369D01*
X111747654Y70364830D01*
X111824974Y70438038D01*
%TO.C,D41*%
X161211445Y70589296D02*
X160869425Y69649604D01*
X160645689Y69731037D01*
X160527734Y69824644D01*
X160470812Y69946712D01*
X160458639Y70052493D01*
X160479038Y70247769D01*
X160527898Y70382011D01*
X160637792Y70544713D01*
X160715113Y70617921D01*
X160837180Y70674842D01*
X160987709Y70670730D01*
X161211445Y70589296D01*
X159641014Y70451435D02*
X159869027Y71077897D01*
X159734457Y70012023D02*
X160202493Y70601799D01*
X159620779Y70813526D01*
X158884587Y71436203D02*
X159421555Y71240763D01*
X159153071Y71338483D02*
X158811051Y70398791D01*
X158949405Y70500459D01*
X159071473Y70557380D01*
X159177254Y70569554D01*
%TO.C,D7*%
X73580276Y144974832D02*
X72709921Y145467256D01*
X72827164Y145674483D01*
X72938956Y145775371D01*
X73068745Y145811364D01*
X73175084Y145805913D01*
X73364315Y145753563D01*
X73488652Y145683217D01*
X73630985Y145547976D01*
X73690427Y145459633D01*
X73726421Y145329845D01*
X73697520Y145182060D01*
X73580276Y144974832D01*
X73155447Y146254720D02*
X73483729Y146834957D01*
X74143046Y145969524D01*
%TO.C,R2*%
X181488333Y43127620D02*
X181155000Y43603810D01*
X180916904Y43127620D02*
X180916904Y44127620D01*
X181297857Y44127620D01*
X181393095Y44080000D01*
X181440714Y44032381D01*
X181488333Y43937143D01*
X181488333Y43794286D01*
X181440714Y43699048D01*
X181393095Y43651429D01*
X181297857Y43603810D01*
X180916904Y43603810D01*
X181869285Y44032381D02*
X181916904Y44080000D01*
X182012142Y44127620D01*
X182250238Y44127620D01*
X182345476Y44080000D01*
X182393095Y44032381D01*
X182440714Y43937143D01*
X182440714Y43841905D01*
X182393095Y43699048D01*
X181821666Y43127620D01*
X182440714Y43127620D01*
%TO.C,SW8*%
X207560219Y91605397D02*
X207623226Y91742166D01*
X207649354Y91978823D01*
X207612473Y92078712D01*
X207570367Y92131269D01*
X207480930Y92189051D01*
X207386267Y92199502D01*
X207286378Y92162621D01*
X207233821Y92120515D01*
X207176039Y92031078D01*
X207107806Y91846977D01*
X207050023Y91757540D01*
X206997466Y91715434D01*
X206897578Y91678553D01*
X206802915Y91689004D01*
X206713478Y91746786D01*
X206671371Y91799343D01*
X206634491Y91899232D01*
X206660618Y92135889D01*
X206723626Y92272658D01*
X206712873Y92609204D02*
X207732961Y92736127D01*
X207043890Y93003834D01*
X207774764Y93114779D01*
X206806931Y93461170D01*
X207290394Y93934788D02*
X207232611Y93845350D01*
X207180054Y93803244D01*
X207080166Y93766363D01*
X207032835Y93771589D01*
X206943397Y93829371D01*
X206901291Y93881928D01*
X206864410Y93981817D01*
X206885312Y94171142D01*
X206943095Y94260580D01*
X206995651Y94302686D01*
X207095540Y94339567D01*
X207142871Y94334341D01*
X207232309Y94276559D01*
X207274415Y94224002D01*
X207311295Y94124113D01*
X207290394Y93934788D01*
X207327274Y93834899D01*
X207369380Y93782342D01*
X207458818Y93724560D01*
X207648144Y93703658D01*
X207748032Y93740539D01*
X207800589Y93782645D01*
X207858371Y93872082D01*
X207879273Y94061408D01*
X207842393Y94161297D01*
X207800287Y94213853D01*
X207710849Y94271636D01*
X207521523Y94292538D01*
X207421635Y94255657D01*
X207369078Y94213551D01*
X207311295Y94124113D01*
%TO.C,D52*%
X117057380Y143828215D02*
X116057380Y143828215D01*
X116057380Y144066310D01*
X116105000Y144209167D01*
X116200238Y144304405D01*
X116295476Y144352024D01*
X116485952Y144399643D01*
X116628809Y144399643D01*
X116819285Y144352024D01*
X116914523Y144304405D01*
X117009761Y144209167D01*
X117057380Y144066310D01*
X117057380Y143828215D01*
X116057380Y145304405D02*
X116057380Y144828215D01*
X116533571Y144780596D01*
X116485952Y144828215D01*
X116438333Y144923453D01*
X116438333Y145161548D01*
X116485952Y145256786D01*
X116533571Y145304405D01*
X116628809Y145352024D01*
X116866904Y145352024D01*
X116962142Y145304405D01*
X117009761Y145256786D01*
X117057380Y145161548D01*
X117057380Y144923453D01*
X117009761Y144828215D01*
X116962142Y144780596D01*
X116152619Y145732977D02*
X116105000Y145780596D01*
X116057380Y145875834D01*
X116057380Y146113929D01*
X116105000Y146209167D01*
X116152619Y146256786D01*
X116247857Y146304405D01*
X116343095Y146304405D01*
X116485952Y146256786D01*
X117057380Y145685358D01*
X117057380Y146304405D01*
%TO.C,D12*%
X85600661Y102181146D02*
X85494397Y103175484D01*
X85731144Y103200785D01*
X85878253Y103168616D01*
X85983072Y103084038D01*
X86040542Y102994399D01*
X86108132Y102810061D01*
X86123312Y102668013D01*
X86096204Y102473555D01*
X86058975Y102373796D01*
X85974396Y102268977D01*
X85837408Y102206447D01*
X85600661Y102181146D01*
X87115843Y102343072D02*
X86547649Y102282350D01*
X86831746Y102312711D02*
X86725482Y103307049D01*
X86645964Y103154880D01*
X86561385Y103050061D01*
X86471747Y102992591D01*
X87398494Y103283193D02*
X87440784Y103335602D01*
X87530422Y103393072D01*
X87767169Y103418373D01*
X87866928Y103381144D01*
X87919338Y103338855D01*
X87976808Y103249216D01*
X87986928Y103154517D01*
X87954759Y103007409D01*
X87447289Y102378494D01*
X88062831Y102444276D01*
%TO.C,D26*%
X224284870Y144585906D02*
X223420595Y144082886D01*
X223300828Y144288665D01*
X223270124Y144436087D01*
X223304530Y144566305D01*
X223362888Y144655368D01*
X223503559Y144792337D01*
X223627026Y144864197D01*
X223815604Y144918854D01*
X223921869Y144925605D01*
X224052087Y144891200D01*
X224165103Y144791685D01*
X224284870Y144585906D01*
X223023840Y144953911D02*
X222958731Y144971114D01*
X222869668Y145029472D01*
X222749902Y145235252D01*
X222743151Y145341517D01*
X222760354Y145406627D01*
X222818712Y145495689D01*
X222901024Y145543596D01*
X223048445Y145574300D01*
X223829757Y145367869D01*
X223518363Y145902896D01*
X222222929Y146140683D02*
X222318742Y145976059D01*
X222407804Y145917700D01*
X222472914Y145900498D01*
X222644288Y145890046D01*
X222832865Y145944703D01*
X223162113Y146136330D01*
X223220471Y146225393D01*
X223237674Y146290502D01*
X223230923Y146396767D01*
X223135110Y146561391D01*
X223046047Y146619749D01*
X222980938Y146636952D01*
X222874673Y146630201D01*
X222668893Y146510435D01*
X222610535Y146421372D01*
X222593332Y146356263D01*
X222600083Y146249998D01*
X222695896Y146085374D01*
X222784959Y146027015D01*
X222850068Y146009813D01*
X222956333Y146016563D01*
%TO.C,C1*%
X108588333Y153672858D02*
X108540714Y153625239D01*
X108397857Y153577620D01*
X108302619Y153577620D01*
X108159761Y153625239D01*
X108064523Y153720477D01*
X108016904Y153815715D01*
X107969285Y154006191D01*
X107969285Y154149048D01*
X108016904Y154339524D01*
X108064523Y154434762D01*
X108159761Y154530000D01*
X108302619Y154577620D01*
X108397857Y154577620D01*
X108540714Y154530000D01*
X108588333Y154482381D01*
X109540714Y153577620D02*
X108969285Y153577620D01*
X109255000Y153577620D02*
X109255000Y154577620D01*
X109159761Y154434762D01*
X109064523Y154339524D01*
X108969285Y154291905D01*
%TO.C,H2*%
X84038095Y157647620D02*
X84038095Y158647620D01*
X84038095Y158171429D02*
X84609523Y158171429D01*
X84609523Y157647620D02*
X84609523Y158647620D01*
X85038095Y158552381D02*
X85085714Y158600000D01*
X85180952Y158647620D01*
X85419047Y158647620D01*
X85514285Y158600000D01*
X85561904Y158552381D01*
X85609523Y158457143D01*
X85609523Y158361905D01*
X85561904Y158219048D01*
X84990476Y157647620D01*
X85609523Y157647620D01*
%TO.C,H3*%
X101618095Y70077620D02*
X101618095Y71077620D01*
X101618095Y70601429D02*
X102189523Y70601429D01*
X102189523Y70077620D02*
X102189523Y71077620D01*
X102570476Y71077620D02*
X103189523Y71077620D01*
X102856190Y70696667D01*
X102999047Y70696667D01*
X103094285Y70649048D01*
X103141904Y70601429D01*
X103189523Y70506191D01*
X103189523Y70268096D01*
X103141904Y70172858D01*
X103094285Y70125239D01*
X102999047Y70077620D01*
X102713333Y70077620D01*
X102618095Y70125239D01*
X102570476Y70172858D01*
%TO.C,SW7*%
X205380219Y71725397D02*
X205443226Y71862166D01*
X205469354Y72098823D01*
X205432473Y72198712D01*
X205390367Y72251269D01*
X205300930Y72309051D01*
X205206267Y72319502D01*
X205106378Y72282621D01*
X205053821Y72240515D01*
X204996039Y72151078D01*
X204927806Y71966977D01*
X204870023Y71877540D01*
X204817466Y71835434D01*
X204717578Y71798553D01*
X204622915Y71809004D01*
X204533478Y71866786D01*
X204491371Y71919343D01*
X204454491Y72019232D01*
X204480618Y72255889D01*
X204543626Y72392658D01*
X204532873Y72729204D02*
X205552961Y72856127D01*
X204863890Y73123834D01*
X205594764Y73234779D01*
X204626931Y73581170D01*
X204658283Y73865159D02*
X204731439Y74527800D01*
X205678371Y73992082D01*
%TO.C,D21*%
X210735482Y103100785D02*
X210629218Y102106447D01*
X210392471Y102131748D01*
X210255482Y102194278D01*
X210170904Y102299097D01*
X210133675Y102398856D01*
X210106566Y102593314D01*
X210121747Y102735363D01*
X210189337Y102919700D01*
X210246807Y103009339D01*
X210351626Y103093917D01*
X210498735Y103126086D01*
X210735482Y103100785D01*
X209692350Y102302350D02*
X209639940Y102260061D01*
X209540181Y102222832D01*
X209303434Y102248133D01*
X209213795Y102305602D01*
X209171506Y102358012D01*
X209134277Y102457771D01*
X209144397Y102552470D01*
X209206927Y102689458D01*
X209835843Y103196929D01*
X209220300Y103262711D01*
X208273312Y103363915D02*
X208841505Y103303193D01*
X208557408Y103333554D02*
X208451144Y102339216D01*
X208561023Y102471144D01*
X208665843Y102555722D01*
X208765602Y102592951D01*
%TO.C,SW12*%
X258993749Y179291645D02*
X259141170Y179322349D01*
X259346950Y179442116D01*
X259405308Y179531179D01*
X259422511Y179596288D01*
X259415760Y179702553D01*
X259367854Y179784865D01*
X259278791Y179843224D01*
X259213682Y179860426D01*
X259107417Y179853676D01*
X258918839Y179799018D01*
X258812574Y179792267D01*
X258747465Y179809470D01*
X258658402Y179867829D01*
X258610496Y179950141D01*
X258603745Y180056406D01*
X258620948Y180121515D01*
X258679306Y180210578D01*
X258885086Y180330344D01*
X259032507Y180361048D01*
X259296645Y180569878D02*
X260005445Y179825369D01*
X259810769Y180538522D01*
X260334692Y180016996D01*
X260037452Y181001038D01*
X261322435Y180591876D02*
X260828564Y180304436D01*
X261075499Y180448156D02*
X260572480Y181312431D01*
X260562028Y181141056D01*
X260527622Y181010838D01*
X260469264Y180921775D01*
X261196569Y181565466D02*
X261213772Y181630575D01*
X261272131Y181719637D01*
X261477910Y181839404D01*
X261584175Y181846155D01*
X261649285Y181828952D01*
X261738347Y181770594D01*
X261786254Y181688282D01*
X261816958Y181540861D01*
X261610527Y180759549D01*
X262145554Y181070943D01*
%TO.C,D22*%
X222735482Y101600785D02*
X222629218Y100606447D01*
X222392471Y100631748D01*
X222255482Y100694278D01*
X222170904Y100799097D01*
X222133675Y100898856D01*
X222106566Y101093314D01*
X222121747Y101235363D01*
X222189337Y101419700D01*
X222246807Y101509339D01*
X222351626Y101593917D01*
X222498735Y101626086D01*
X222735482Y101600785D01*
X221692350Y100802350D02*
X221639940Y100760061D01*
X221540181Y100722832D01*
X221303434Y100748133D01*
X221213795Y100805602D01*
X221171506Y100858012D01*
X221134277Y100957771D01*
X221144397Y101052470D01*
X221206927Y101189458D01*
X221835843Y101696929D01*
X221220300Y101762711D01*
X220745361Y100903554D02*
X220692951Y100861265D01*
X220593192Y100824035D01*
X220356445Y100849336D01*
X220266807Y100906806D01*
X220224517Y100959216D01*
X220187288Y101058975D01*
X220197409Y101153674D01*
X220259939Y101290662D01*
X220888854Y101798133D01*
X220273312Y101863915D01*
%TO.C,D32*%
X276179291Y173418081D02*
X275315016Y172915061D01*
X275195249Y173120840D01*
X275164545Y173268262D01*
X275198951Y173398480D01*
X275257309Y173487543D01*
X275397980Y173624512D01*
X275521447Y173696372D01*
X275710025Y173751029D01*
X275816290Y173757780D01*
X275946508Y173723375D01*
X276059524Y173623860D01*
X276179291Y173418081D01*
X274859903Y173697024D02*
X274548510Y174232051D01*
X275045430Y174135586D01*
X274973570Y174259054D01*
X274966820Y174365319D01*
X274984022Y174430428D01*
X275042381Y174519491D01*
X275248161Y174639257D01*
X275354426Y174646008D01*
X275419535Y174628806D01*
X275508598Y174570447D01*
X275652318Y174323511D01*
X275659068Y174217246D01*
X275641866Y174152137D01*
X274439195Y174609205D02*
X274374085Y174626408D01*
X274285023Y174684766D01*
X274165256Y174890546D01*
X274158505Y174996811D01*
X274175708Y175061920D01*
X274234067Y175150983D01*
X274316379Y175198890D01*
X274463800Y175229594D01*
X275245111Y175023162D01*
X274933718Y175558190D01*
%TO.C,USBin1*%
X166351428Y33202620D02*
X166351428Y32393096D01*
X166399047Y32297858D01*
X166446666Y32250239D01*
X166541904Y32202620D01*
X166732380Y32202620D01*
X166827619Y32250239D01*
X166875238Y32297858D01*
X166922857Y32393096D01*
X166922857Y33202620D01*
X167351428Y32250239D02*
X167494285Y32202620D01*
X167732380Y32202620D01*
X167827619Y32250239D01*
X167875238Y32297858D01*
X167922857Y32393096D01*
X167922857Y32488334D01*
X167875238Y32583572D01*
X167827619Y32631191D01*
X167732380Y32678810D01*
X167541904Y32726429D01*
X167446666Y32774048D01*
X167399047Y32821667D01*
X167351428Y32916905D01*
X167351428Y33012143D01*
X167399047Y33107381D01*
X167446666Y33155000D01*
X167541904Y33202620D01*
X167780000Y33202620D01*
X167922857Y33155000D01*
X168684761Y32726429D02*
X168827619Y32678810D01*
X168875238Y32631191D01*
X168922857Y32535953D01*
X168922857Y32393096D01*
X168875238Y32297858D01*
X168827619Y32250239D01*
X168732380Y32202620D01*
X168351428Y32202620D01*
X168351428Y33202620D01*
X168684761Y33202620D01*
X168780000Y33155000D01*
X168827619Y33107381D01*
X168875238Y33012143D01*
X168875238Y32916905D01*
X168827619Y32821667D01*
X168780000Y32774048D01*
X168684761Y32726429D01*
X168351428Y32726429D01*
X169351428Y32202620D02*
X169351428Y32869286D01*
X169351428Y33202620D02*
X169303809Y33155000D01*
X169351428Y33107381D01*
X169399047Y33155000D01*
X169351428Y33202620D01*
X169351428Y33107381D01*
X169827619Y32869286D02*
X169827619Y32202620D01*
X169827619Y32774048D02*
X169875238Y32821667D01*
X169970476Y32869286D01*
X170113333Y32869286D01*
X170208571Y32821667D01*
X170256190Y32726429D01*
X170256190Y32202620D01*
X171256190Y32202620D02*
X170684761Y32202620D01*
X170970476Y32202620D02*
X170970476Y33202620D01*
X170875238Y33059762D01*
X170780000Y32964524D01*
X170684761Y32916905D01*
D14*
%TO.C,D33*%
X131599910Y59710905D02*
X130027138Y58609638D01*
X133139962Y57511481D02*
X131599910Y59710905D01*
X130027138Y58609638D02*
X131567190Y56410215D01*
%TO.C,D18*%
X215315946Y61496381D02*
X215519973Y63405509D01*
X215519973Y63405509D02*
X212850176Y63690828D01*
X212646149Y61781700D02*
X215315946Y61496381D01*
%TO.C,D11*%
X77157071Y100769118D02*
X79826868Y101054437D01*
X76953044Y102678246D02*
X77157071Y100769118D01*
X79622841Y102963565D02*
X76953044Y102678246D01*
%TO.C,D48*%
X108285759Y136860157D02*
X105762685Y137778481D01*
X105106006Y135974271D02*
X107629081Y135055947D01*
X107629081Y135055947D02*
X108285759Y136860157D01*
%TO.C,SW11*%
X244067550Y156324325D02*
X243001148Y158156588D01*
X253631728Y164343733D02*
X254698130Y162511470D01*
X237880405Y166954905D02*
X248510985Y173142050D01*
X238946807Y165122642D02*
X237880405Y166954905D01*
X251116628Y168665107D02*
X252092487Y166988414D01*
X254698130Y162511470D02*
X244067550Y156324325D01*
X248510985Y173142050D02*
X249577387Y171309788D01*
X241461907Y160801268D02*
X240486048Y162477962D01*
X250974865Y164748919D02*
G75*
G03*
X250974865Y164748919I-4579049J0D01*
G01*
%TO.C,D14*%
X84142527Y83335509D02*
X84346554Y81426381D01*
X86812324Y83620828D02*
X84142527Y83335509D01*
X84346554Y81426381D02*
X87016351Y81711700D01*
%TO.C,D4*%
X42555808Y169680724D02*
X43877965Y172017629D01*
X42206882Y172963082D02*
X40884725Y170626177D01*
X40884725Y170626177D02*
X42555808Y169680724D01*
%TO.C,SW9*%
X211162007Y118747726D02*
X213269204Y118515089D01*
X211919472Y106289370D02*
X209812275Y106522006D01*
X222037995Y105172274D02*
X219930797Y105404911D01*
X209812275Y106522006D02*
X211162007Y118747726D01*
X216310725Y118179302D02*
X218239009Y117966418D01*
X216889277Y105740698D02*
X214960993Y105953583D01*
X221280529Y117630631D02*
X223387727Y117397994D01*
X223387727Y117397994D02*
X222037995Y105172274D01*
X221229783Y112055007D02*
G75*
G03*
X221229783Y112055007I-4579050J0D01*
G01*
%TO.C,D46*%
X188293279Y137005801D02*
X188949957Y135201591D01*
X188949957Y135201591D02*
X191473032Y136119915D01*
X190816353Y137924125D02*
X188293279Y137005801D01*
%TO.C,D15*%
X81202527Y63555509D02*
X81406554Y61646381D01*
X83872324Y63840828D02*
X81202527Y63555509D01*
X81406554Y61646381D02*
X84076351Y61931700D01*
%TO.C,SW6*%
X81046343Y65886577D02*
X78938346Y65661297D01*
X78938346Y65661297D02*
X77631298Y77891654D01*
X87753658Y78973422D02*
X89861655Y79198702D01*
X89861655Y79198702D02*
X91168703Y66968345D01*
X86018032Y66417897D02*
X84089017Y66211745D01*
X77631298Y77891654D02*
X79739295Y78116934D01*
X91168703Y66968345D02*
X89060707Y66743066D01*
X82781969Y78442102D02*
X84710984Y78648254D01*
X88949903Y72326315D02*
G75*
G03*
X88949903Y72326315I-4579050J0D01*
G01*
%TO.C,C2*%
X183016252Y153895000D02*
X182493748Y153895000D01*
X183016252Y155365000D02*
X182493748Y155365000D01*
%TO.C,D34*%
X134974957Y70401591D02*
X137498032Y71319915D01*
X136841353Y73124125D02*
X134318279Y72205801D01*
X134318279Y72205801D02*
X134974957Y70401591D01*
%TO.C,SW3*%
X73493219Y152984774D02*
X72517360Y151308081D01*
X69911717Y146831138D02*
X59281137Y153018283D01*
X65468282Y163648863D02*
X76098862Y157461718D01*
X61886780Y157495226D02*
X62862639Y159171920D01*
X76098862Y157461718D02*
X75032460Y155629455D01*
X64401880Y161816600D02*
X65468282Y163648863D01*
X70978119Y148663400D02*
X69911717Y146831138D01*
X59281137Y153018283D02*
X60347539Y154850546D01*
X72335356Y155155127D02*
G75*
G03*
X72335356Y155155127I-4579050J0D01*
G01*
%TO.C,D30*%
X255037276Y167831376D02*
X256387885Y165510798D01*
X258047292Y166476596D02*
X256696684Y168797174D01*
X256387885Y165510798D02*
X258047292Y166476596D01*
%TO.C,D29*%
X252644198Y171923551D02*
X253994807Y169602973D01*
X255654214Y170568771D02*
X254303606Y172889349D01*
X253994807Y169602973D02*
X255654214Y170568771D01*
%TO.C,D49*%
X111110090Y124635905D02*
X109570038Y122436481D01*
X111142810Y121335215D02*
X112682862Y123534638D01*
X112682862Y123534638D02*
X111110090Y124635905D01*
%TO.C,D39*%
X184341353Y73424125D02*
X181818279Y72505801D01*
X182474957Y70701591D02*
X184998032Y71619915D01*
X181818279Y72505801D02*
X182474957Y70701591D01*
%TO.C,D6*%
X58357808Y160958315D02*
X60028891Y160012862D01*
X59679965Y163295220D02*
X58357808Y160958315D01*
X60028891Y160012862D02*
X61351048Y162349767D01*
%TO.C,D28*%
X238827885Y155910798D02*
X240487292Y156876596D01*
X240487292Y156876596D02*
X239136684Y159197174D01*
X237477276Y158231376D02*
X238827885Y155910798D01*
%TO.C,D35*%
X125665000Y78157500D02*
X125665000Y80842500D01*
X123745000Y80842500D02*
X123745000Y78157500D01*
X123745000Y78157500D02*
X125665000Y78157500D01*
%TO.C,SW5*%
X83808032Y86257897D02*
X81879017Y86051745D01*
X85543658Y98813422D02*
X87651655Y99038702D01*
X76728346Y85501297D02*
X75421298Y97731654D01*
X88958703Y86808345D02*
X86850707Y86583066D01*
X78836343Y85726577D02*
X76728346Y85501297D01*
X87651655Y99038702D02*
X88958703Y86808345D01*
X75421298Y97731654D02*
X77529295Y97956934D01*
X80571969Y98282102D02*
X82500984Y98488254D01*
X86739903Y92166315D02*
G75*
G03*
X86739903Y92166315I-4579050J0D01*
G01*
%TO.C,D5*%
X56113078Y156900219D02*
X57784161Y155954766D01*
X57435235Y159237124D02*
X56113078Y156900219D01*
X57784161Y155954766D02*
X59106318Y158291671D01*
%TO.C,D13*%
X79022527Y82785509D02*
X79226554Y80876381D01*
X79226554Y80876381D02*
X81896351Y81161700D01*
X81692324Y83070828D02*
X79022527Y82785509D01*
%TO.C,R3*%
X186900000Y45885000D02*
X186900000Y48625000D01*
X187670000Y47255000D02*
X186900000Y47255000D01*
X179590000Y47255000D02*
X180360000Y47255000D01*
X180360000Y48625000D02*
X180360000Y45885000D01*
X180360000Y45885000D02*
X186900000Y45885000D01*
X186900000Y48625000D02*
X180360000Y48625000D01*
%TO.C,D38*%
X177902138Y58959638D02*
X179442190Y56760215D01*
X179474910Y60060905D02*
X177902138Y58959638D01*
X181014962Y57861481D02*
X179474910Y60060905D01*
%TO.C,D2*%
X25235808Y179340724D02*
X26557965Y181677629D01*
X23564725Y180286177D02*
X25235808Y179340724D01*
X24886882Y182623082D02*
X23564725Y180286177D01*
%TO.C,D44*%
X172920590Y123527593D02*
X171347818Y124628860D01*
X171380538Y121328170D02*
X172920590Y123527593D01*
X171347818Y124628860D02*
X169807766Y122429436D01*
%TO.C,D24*%
X219163649Y120031700D02*
X221833446Y119746381D01*
X222037473Y121655509D02*
X219367676Y121940828D01*
X221833446Y119746381D02*
X222037473Y121655509D01*
%TO.C,D3*%
X39825235Y168777124D02*
X38503078Y166440219D01*
X40174161Y165494766D02*
X41496318Y167831671D01*
X38503078Y166440219D02*
X40174161Y165494766D01*
%TO.C,D16*%
X86192527Y64025509D02*
X86396554Y62116381D01*
X86396554Y62116381D02*
X89066351Y62401700D01*
X88862324Y64310828D02*
X86192527Y64025509D01*
%TO.C,D27*%
X237997292Y161036596D02*
X236646684Y163357174D01*
X236337885Y160070798D02*
X237997292Y161036596D01*
X234987276Y162391376D02*
X236337885Y160070798D01*
%TO.C,D45*%
X185737638Y124892950D02*
X184164866Y123791683D01*
X184164866Y123791683D02*
X185704918Y121592260D01*
X187277690Y122693526D02*
X185737638Y124892950D01*
%TO.C,D47*%
X177570000Y143407500D02*
X179490000Y143407500D01*
X179490000Y143407500D02*
X179490000Y146092500D01*
X177570000Y146092500D02*
X177570000Y143407500D01*
%TO.C,D1*%
X22885808Y175140724D02*
X24207965Y177477629D01*
X21214725Y176086177D02*
X22885808Y175140724D01*
X22536882Y178423082D02*
X21214725Y176086177D01*
%TO.C,R1*%
X172600000Y43630000D02*
X171830000Y43630000D01*
X171830000Y45000000D02*
X165290000Y45000000D01*
X171830000Y42260000D02*
X171830000Y45000000D01*
X164520000Y43630000D02*
X165290000Y43630000D01*
X165290000Y45000000D02*
X165290000Y42260000D01*
X165290000Y42260000D02*
X171830000Y42260000D01*
%TO.C,D9*%
X74730335Y122055886D02*
X74934362Y120146758D01*
X77400132Y122341205D02*
X74730335Y122055886D01*
X74934362Y120146758D02*
X77604159Y120432077D01*
%TO.C,D25*%
X217647276Y152911376D02*
X218997885Y150590798D01*
X220657292Y151556596D02*
X219306684Y153877174D01*
X218997885Y150590798D02*
X220657292Y151556596D01*
%TO.C,D50*%
X125774910Y124910905D02*
X124202138Y123809638D01*
X124202138Y123809638D02*
X125742190Y121610215D01*
X127314962Y122711481D02*
X125774910Y124910905D01*
%TO.C,D51*%
X128799957Y134926591D02*
X131323032Y135844915D01*
X130666353Y137649125D02*
X128143279Y136730801D01*
X128143279Y136730801D02*
X128799957Y134926591D01*
%TO.C,SW2*%
X46861880Y171426600D02*
X47928282Y173258863D01*
X52371717Y156441138D02*
X41741137Y162628283D01*
X53438119Y158273400D02*
X52371717Y156441138D01*
X41741137Y162628283D02*
X42807539Y164460546D01*
X44346780Y167105226D02*
X45322639Y168781920D01*
X58558862Y167071718D02*
X57492460Y165239455D01*
X47928282Y173258863D02*
X58558862Y167071718D01*
X55953219Y162594774D02*
X54977360Y160918081D01*
X54795356Y164765127D02*
G75*
G03*
X54795356Y164765127I-4579050J0D01*
G01*
%TO.C,D20*%
X217617473Y82645509D02*
X214947676Y82930828D01*
X217413446Y80736381D02*
X217617473Y82645509D01*
X214743649Y81021700D02*
X217413446Y80736381D01*
%TO.C,SW10*%
X223901907Y151258080D02*
X222926048Y152934774D01*
X221386807Y155579454D02*
X220320405Y157411717D01*
X237138130Y152968282D02*
X226507550Y146781137D01*
X226507550Y146781137D02*
X225441148Y148613400D01*
X236071728Y154800545D02*
X237138130Y152968282D01*
X230950985Y163598862D02*
X232017387Y161766600D01*
X233556628Y159121919D02*
X234532487Y157445226D01*
X220320405Y157411717D02*
X230950985Y163598862D01*
X233414865Y155205731D02*
G75*
G03*
X233414865Y155205731I-4579049J0D01*
G01*
%TO.C,D43*%
X168566721Y137055801D02*
X166043647Y137974125D01*
X167910043Y135251591D02*
X168566721Y137055801D01*
X165386968Y136169915D02*
X167910043Y135251591D01*
%TO.C,SW4*%
X74538346Y105401297D02*
X73231298Y117631654D01*
X81618032Y106157897D02*
X79689017Y105951745D01*
X85461655Y118938702D02*
X86768703Y106708345D01*
X86768703Y106708345D02*
X84660707Y106483066D01*
X83353658Y118713422D02*
X85461655Y118938702D01*
X73231298Y117631654D02*
X75339295Y117856934D01*
X78381969Y118182102D02*
X80310984Y118388254D01*
X76646343Y105626577D02*
X74538346Y105401297D01*
X84549903Y112066315D02*
G75*
G03*
X84549903Y112066315I-4579050J0D01*
G01*
%TO.C,SW1*%
X35888119Y167863400D02*
X34821717Y166031138D01*
X24191137Y172218283D02*
X25257539Y174050546D01*
X38403219Y172184774D02*
X37427360Y170508081D01*
X34821717Y166031138D02*
X24191137Y172218283D01*
X26796780Y176695226D02*
X27772639Y178371920D01*
X29311880Y181016600D02*
X30378282Y182848863D01*
X30378282Y182848863D02*
X41008862Y176661718D01*
X41008862Y176661718D02*
X39942460Y174829455D01*
X37245356Y174355127D02*
G75*
G03*
X37245356Y174355127I-4579050J0D01*
G01*
%TO.C,D8*%
X75505234Y151638910D02*
X77176317Y150693457D01*
X76827391Y153975815D02*
X75505234Y151638910D01*
X77176317Y150693457D02*
X78498474Y153030362D01*
%TO.C,C4*%
X186543748Y155365000D02*
X187066252Y155365000D01*
X186543748Y153895000D02*
X187066252Y153895000D01*
%TO.C,D40*%
X171095000Y78157500D02*
X173015000Y78157500D01*
X171095000Y80842500D02*
X171095000Y78157500D01*
X173015000Y78157500D02*
X173015000Y80842500D01*
%TO.C,D10*%
X79672527Y122585509D02*
X79876554Y120676381D01*
X82342324Y122870828D02*
X79672527Y122585509D01*
X79876554Y120676381D02*
X82546351Y120961700D01*
%TO.C,D42*%
X166220362Y58857415D02*
X164647590Y59958682D01*
X164647590Y59958682D02*
X163107538Y57759258D01*
X164680310Y56657992D02*
X166220362Y58857415D01*
%TO.C,D37*%
X119220134Y58559638D02*
X117647362Y59660905D01*
X117647362Y59660905D02*
X116107310Y57461481D01*
X117680082Y56360215D02*
X119220134Y58559638D01*
%TO.C,C3*%
X116668748Y153895000D02*
X117191252Y153895000D01*
X116668748Y155365000D02*
X117191252Y155365000D01*
%TO.C,D17*%
X210371254Y62006004D02*
X210575281Y63915132D01*
X207701457Y62291323D02*
X210371254Y62006004D01*
X210575281Y63915132D02*
X207905484Y64200451D01*
%TO.C,D31*%
X272657292Y180556596D02*
X271306684Y182877174D01*
X269647276Y181911376D02*
X270997885Y179590798D01*
X270997885Y179590798D02*
X272657292Y180556596D01*
%TO.C,D23*%
X216977473Y122255509D02*
X214307676Y122540828D01*
X214103649Y120631700D02*
X216773446Y120346381D01*
X216773446Y120346381D02*
X216977473Y122255509D01*
%TO.C,D19*%
X209693649Y81561700D02*
X212363446Y81276381D01*
X212567473Y83185509D02*
X209897676Y83470828D01*
X212363446Y81276381D02*
X212567473Y83185509D01*
%TO.C,D36*%
X114285043Y70251591D02*
X114941721Y72055801D01*
X111761968Y71169915D02*
X114285043Y70251591D01*
X114941721Y72055801D02*
X112418647Y72974125D01*
%TO.C,D41*%
X162391721Y72455801D02*
X159868647Y73374125D01*
X161735043Y70651591D02*
X162391721Y72455801D01*
X159211968Y71569915D02*
X161735043Y70651591D01*
%TO.C,D7*%
X73254725Y147386177D02*
X74925808Y146440724D01*
X74925808Y146440724D02*
X76247965Y148777629D01*
X74576882Y149723082D02*
X73254725Y147386177D01*
%TO.C,R2*%
X179630000Y43655000D02*
X180400000Y43655000D01*
X186940000Y45025000D02*
X180400000Y45025000D01*
X187710000Y43655000D02*
X186940000Y43655000D01*
X186940000Y42285000D02*
X186940000Y45025000D01*
X180400000Y42285000D02*
X186940000Y42285000D01*
X180400000Y45025000D02*
X180400000Y42285000D01*
%TO.C,SW8*%
X219090529Y97760631D02*
X221197727Y97527994D01*
X221197727Y97527994D02*
X219847995Y85302274D01*
X208972007Y98877726D02*
X211079204Y98645089D01*
X219847995Y85302274D02*
X217740797Y85534911D01*
X207622275Y86652006D02*
X208972007Y98877726D01*
X214699277Y85870698D02*
X212770993Y86083583D01*
X209729472Y86419370D02*
X207622275Y86652006D01*
X214120725Y98309302D02*
X216049009Y98096418D01*
X219039783Y92185007D02*
G75*
G03*
X219039783Y92185007I-4579050J0D01*
G01*
%TO.C,D52*%
X117295000Y146042500D02*
X117295000Y143357500D01*
X117295000Y143357500D02*
X119215000Y143357500D01*
X119215000Y143357500D02*
X119215000Y146042500D01*
%TO.C,D12*%
X82036554Y101286381D02*
X84706351Y101571700D01*
X84502324Y103480828D02*
X81832527Y103195509D01*
X81832527Y103195509D02*
X82036554Y101286381D01*
%TO.C,D26*%
X221607885Y146330798D02*
X223267292Y147296596D01*
X220257276Y148651376D02*
X221607885Y146330798D01*
X223267292Y147296596D02*
X221916684Y149617174D01*
%TO.C,C1*%
X113066252Y155365000D02*
X112543748Y155365000D01*
X113066252Y153895000D02*
X112543748Y153895000D01*
%TO.C,SW7*%
X207549472Y66539370D02*
X205442275Y66772006D01*
X219017727Y77647994D02*
X217667995Y65422274D01*
X206792007Y78997726D02*
X208899204Y78765089D01*
X211940725Y78429302D02*
X213869009Y78216418D01*
X205442275Y66772006D02*
X206792007Y78997726D01*
X216910529Y77880631D02*
X219017727Y77647994D01*
X212519277Y65990698D02*
X210590993Y66203583D01*
X217667995Y65422274D02*
X215560797Y65654911D01*
X216859783Y72305007D02*
G75*
G03*
X216859783Y72305007I-4579050J0D01*
G01*
%TO.C,D21*%
X214553446Y101216381D02*
X214757473Y103125509D01*
X214757473Y103125509D02*
X212087676Y103410828D01*
X211883649Y101501700D02*
X214553446Y101216381D01*
%TO.C,SW12*%
X268696628Y178245107D02*
X269672487Y176568414D01*
X255460405Y176534905D02*
X266090985Y182722050D01*
X272278130Y172091470D02*
X261647550Y165904325D01*
X259041907Y170381268D02*
X258066048Y172057962D01*
X271211728Y173923733D02*
X272278130Y172091470D01*
X266090985Y182722050D02*
X267157387Y180889788D01*
X261647550Y165904325D02*
X260581148Y167736588D01*
X256526807Y174702642D02*
X255460405Y176534905D01*
X268554865Y174328919D02*
G75*
G03*
X268554865Y174328919I-4579049J0D01*
G01*
%TO.C,D22*%
X216883649Y100951700D02*
X219553446Y100666381D01*
X219757473Y102575509D02*
X217087676Y102860828D01*
X219553446Y100666381D02*
X219757473Y102575509D01*
%TO.C,D32*%
X272191698Y177403551D02*
X273542307Y175082973D01*
X275201714Y176048771D02*
X273851106Y178369349D01*
X273542307Y175082973D02*
X275201714Y176048771D01*
%TD*%
%LPC*%
D15*
%TO.C,D33*%
X131242272Y58547955D03*
X132317728Y57012045D03*
%TD*%
D16*
%TO.C,D18*%
X214674692Y62530377D03*
X212810308Y62729623D03*
%TD*%
D17*
%TO.C,D11*%
X77798325Y101803114D03*
X79662709Y102002360D03*
%TD*%
D18*
%TO.C,D48*%
X107255000Y136213712D03*
X105493076Y136855000D03*
%TD*%
D19*
%TO.C,H4*%
X194260000Y67320000D03*
%TD*%
D20*
%TO.C,SW11*%
X250433435Y170037749D03*
X239630000Y163750000D03*
X252948535Y165716375D03*
X242145100Y159428626D03*
%TD*%
D17*
%TO.C,D14*%
X84987808Y82460377D03*
X86852192Y82659623D03*
%TD*%
D19*
%TO.C,H5*%
X265210000Y185510000D03*
%TD*%
D21*
%TO.C,D4*%
X42088353Y170804042D03*
X43011647Y172435958D03*
%TD*%
D22*
%TO.C,SW9*%
X214800938Y118446592D03*
X213429259Y106022080D03*
X219770743Y117897920D03*
X218399064Y105473408D03*
%TD*%
D23*
%TO.C,D46*%
X189324038Y136359356D03*
X191085962Y137000644D03*
%TD*%
D17*
%TO.C,D15*%
X82047808Y62680377D03*
X83912192Y62879623D03*
%TD*%
D24*
%TO.C,SW6*%
X87549996Y66481048D03*
X86221695Y78910272D03*
X81250005Y78378952D03*
X82578306Y65949727D03*
%TD*%
D25*
%TO.C,C2*%
X183705000Y154630000D03*
X181805000Y154630000D03*
%TD*%
D23*
%TO.C,D34*%
X135349038Y71559356D03*
X137110962Y72200644D03*
%TD*%
D26*
%TO.C,SW3*%
X74349267Y154256813D03*
X63545832Y160544562D03*
X71834167Y149935439D03*
X61030732Y156223188D03*
%TD*%
D27*
%TO.C,D30*%
X256841581Y166639742D03*
X255898419Y168260258D03*
%TD*%
%TO.C,D29*%
X254448503Y170731917D03*
X253505341Y172352433D03*
%TD*%
D28*
%TO.C,D49*%
X111467728Y123472955D03*
X110392272Y121937045D03*
%TD*%
D23*
%TO.C,D39*%
X182849038Y71859356D03*
X184610962Y72500644D03*
%TD*%
D21*
%TO.C,D6*%
X59561436Y161136180D03*
X60484730Y162768096D03*
%TD*%
D27*
%TO.C,D28*%
X239281581Y157039742D03*
X238338419Y158660258D03*
%TD*%
D29*
%TO.C,D35*%
X124705000Y78905000D03*
X124705000Y80780000D03*
%TD*%
D24*
%TO.C,SW5*%
X84011695Y98750272D03*
X85339996Y86321048D03*
X79040005Y98218952D03*
X80368306Y85789727D03*
%TD*%
D21*
%TO.C,D5*%
X57316706Y157078084D03*
X58240000Y158710000D03*
%TD*%
D19*
%TO.C,H1*%
X31430000Y185510000D03*
%TD*%
D17*
%TO.C,D13*%
X79867808Y81910377D03*
X81732192Y82109623D03*
%TD*%
D30*
%TO.C,R3*%
X178550000Y47255000D03*
D31*
X188710000Y47255000D03*
%TD*%
D15*
%TO.C,D38*%
X179117272Y58897955D03*
X180192728Y57362045D03*
%TD*%
D21*
%TO.C,D2*%
X24768353Y180464042D03*
X25691647Y182095958D03*
%TD*%
D28*
%TO.C,D44*%
X171705456Y123465910D03*
X170630000Y121930000D03*
%TD*%
D16*
%TO.C,D24*%
X221192192Y120780377D03*
X219327808Y120979623D03*
%TD*%
D21*
%TO.C,D3*%
X39706706Y166618084D03*
X40630000Y168250000D03*
%TD*%
D17*
%TO.C,D16*%
X87037808Y63150377D03*
X88902192Y63349623D03*
%TD*%
D19*
%TO.C,H6*%
X211840000Y154900000D03*
%TD*%
D27*
%TO.C,D27*%
X236791581Y161199742D03*
X235848419Y162820258D03*
%TD*%
D15*
%TO.C,D45*%
X185380000Y123730000D03*
X186455456Y122194090D03*
%TD*%
D29*
%TO.C,D47*%
X178530000Y144155000D03*
X178530000Y146030000D03*
%TD*%
D21*
%TO.C,D1*%
X22418353Y176264042D03*
X23341647Y177895958D03*
%TD*%
D30*
%TO.C,R1*%
X163480000Y43630000D03*
D31*
X173640000Y43630000D03*
%TD*%
D17*
%TO.C,D9*%
X75575616Y121180754D03*
X77440000Y121380000D03*
%TD*%
D27*
%TO.C,D25*%
X219451581Y151719742D03*
X218508419Y153340258D03*
%TD*%
D15*
%TO.C,D50*%
X125417272Y123747955D03*
X126492728Y122212045D03*
%TD*%
D23*
%TO.C,D51*%
X129174038Y136084356D03*
X130935962Y136725644D03*
%TD*%
D26*
%TO.C,SW2*%
X56809267Y163866813D03*
X46005832Y170154562D03*
X54294167Y159545439D03*
X43490732Y165833188D03*
%TD*%
D16*
%TO.C,D20*%
X216772192Y81770377D03*
X214907808Y81969623D03*
%TD*%
D20*
%TO.C,SW10*%
X232873435Y160494561D03*
X222070000Y154206812D03*
X224585100Y149885438D03*
X235388535Y156173187D03*
%TD*%
D18*
%TO.C,D43*%
X167535962Y136409356D03*
X165774038Y137050644D03*
%TD*%
D24*
%TO.C,SW4*%
X83149996Y106221048D03*
X81821695Y118650272D03*
X78178306Y105689727D03*
X76850005Y118118952D03*
%TD*%
D26*
%TO.C,SW1*%
X39259267Y173456813D03*
X28455832Y179744562D03*
X25940732Y175423188D03*
X36744167Y169135439D03*
%TD*%
D21*
%TO.C,D8*%
X76708862Y151816775D03*
X77632156Y153448691D03*
%TD*%
D32*
%TO.C,C4*%
X185855000Y154630000D03*
X187755000Y154630000D03*
%TD*%
D29*
%TO.C,D40*%
X172055000Y78905000D03*
X172055000Y80780000D03*
%TD*%
D17*
%TO.C,D10*%
X80517808Y121710377D03*
X82382192Y121909623D03*
%TD*%
D28*
%TO.C,D42*%
X165005228Y58795732D03*
X163929772Y57259822D03*
%TD*%
%TO.C,D37*%
X118005000Y58497955D03*
X116929544Y56962045D03*
%TD*%
D32*
%TO.C,C3*%
X115980000Y154630000D03*
X117880000Y154630000D03*
%TD*%
D16*
%TO.C,D17*%
X209730000Y63040000D03*
X207865616Y63239246D03*
%TD*%
D27*
%TO.C,D31*%
X271451581Y180719742D03*
X270508419Y182340258D03*
%TD*%
D16*
%TO.C,D23*%
X216132192Y121380377D03*
X214267808Y121579623D03*
%TD*%
%TO.C,D19*%
X211722192Y82310377D03*
X209857808Y82509623D03*
%TD*%
D18*
%TO.C,D36*%
X113910962Y71409356D03*
X112149038Y72050644D03*
%TD*%
%TO.C,D41*%
X161360962Y71809356D03*
X159599038Y72450644D03*
%TD*%
D21*
%TO.C,D7*%
X74458353Y147564042D03*
X75381647Y149195958D03*
%TD*%
D30*
%TO.C,R2*%
X178590000Y43655000D03*
D31*
X188750000Y43655000D03*
%TD*%
D22*
%TO.C,SW8*%
X211239259Y86152080D03*
X212610938Y98576592D03*
X217580743Y98027920D03*
X216209064Y85603408D03*
%TD*%
D29*
%TO.C,D52*%
X118255000Y144105000D03*
X118255000Y145980000D03*
%TD*%
D17*
%TO.C,D12*%
X82677808Y102320377D03*
X84542192Y102519623D03*
%TD*%
D27*
%TO.C,D26*%
X222061581Y147459742D03*
X221118419Y149080258D03*
%TD*%
D25*
%TO.C,C1*%
X113755000Y154630000D03*
X111855000Y154630000D03*
%TD*%
D19*
%TO.C,H2*%
X84800000Y154900000D03*
%TD*%
%TO.C,H3*%
X102380000Y67330000D03*
%TD*%
D22*
%TO.C,SW7*%
X209059259Y66272080D03*
X210430938Y78696592D03*
X214029064Y65723408D03*
X215400743Y78147920D03*
%TD*%
D16*
%TO.C,D21*%
X213912192Y102250377D03*
X212047808Y102449623D03*
%TD*%
D20*
%TO.C,SW12*%
X257210000Y173330000D03*
X268013435Y179617749D03*
X270528535Y175296375D03*
X259725100Y169008626D03*
%TD*%
D16*
%TO.C,D22*%
X218912192Y101700377D03*
X217047808Y101899623D03*
%TD*%
D27*
%TO.C,D32*%
X273996003Y176211917D03*
X273052841Y177832433D03*
%TD*%
D33*
%TO.C,J1*%
X93880000Y156905000D03*
D34*
X96380000Y156905000D03*
%TD*%
D35*
%TO.C,J5*%
X111130000Y156905000D03*
D36*
X113630000Y156905000D03*
X116130000Y156905000D03*
%TD*%
D37*
%TO.C,USBin1*%
X172670000Y34720000D03*
D36*
X170170000Y34720000D03*
X167670000Y34720000D03*
X165170000Y34720000D03*
%TD*%
D33*
%TO.C,J12*%
X100990000Y161950000D03*
D34*
X103490000Y161950000D03*
%TD*%
D35*
%TO.C,J6*%
X180980000Y156930000D03*
D36*
X183480000Y156930000D03*
X185980000Y156930000D03*
%TD*%
D38*
%TO.C,Q1*%
X173019724Y49714724D03*
D39*
X174289724Y50984724D03*
X175559724Y49714724D03*
%TD*%
D35*
%TO.C,J10*%
X169755000Y156930000D03*
D36*
X172255000Y156930000D03*
X174755000Y156930000D03*
%TD*%
D35*
%TO.C,J8*%
X133440000Y156885000D03*
D36*
X135940000Y156885000D03*
X138440000Y156885000D03*
%TD*%
D35*
%TO.C,J9*%
X158605000Y156905000D03*
D36*
X161105000Y156905000D03*
X163605000Y156905000D03*
%TD*%
D35*
%TO.C,J7*%
X122260000Y156895000D03*
D36*
X124760000Y156895000D03*
X127260000Y156895000D03*
%TD*%
D33*
%TO.C,J11*%
X193780000Y162000000D03*
D34*
X196280000Y162000000D03*
%TD*%
D33*
%TO.C,J4*%
X200880000Y156930000D03*
D34*
X203380000Y156930000D03*
%TD*%
D33*
%TO.C,J3*%
X192180000Y156930000D03*
D34*
X194680000Y156930000D03*
%TD*%
D40*
%TO.C,U1*%
X158500000Y50000000D03*
X155960000Y50000000D03*
X153420000Y50000000D03*
X150880000Y50000000D03*
X148340000Y50000000D03*
X145800000Y50000000D03*
X143260000Y50000000D03*
X140720000Y50000000D03*
X138180000Y50000000D03*
X135640000Y50000000D03*
X133100000Y50000000D03*
X130560000Y50000000D03*
X128020000Y50000000D03*
X125480000Y50000000D03*
X122940000Y50000000D03*
X120400000Y50000000D03*
X117860000Y50000000D03*
X115320000Y50000000D03*
X112780000Y50000000D03*
D41*
X110240000Y50000000D03*
D40*
X158500000Y34760000D03*
X155960000Y34760000D03*
X153420000Y34760000D03*
X150880000Y34760000D03*
X148340000Y34760000D03*
X145800000Y34760000D03*
X143260000Y34760000D03*
X140720000Y34760000D03*
X138180000Y34760000D03*
X135640000Y34760000D03*
X133100000Y34760000D03*
X130560000Y34760000D03*
X128020000Y34760000D03*
X125480000Y34760000D03*
X122940000Y34760000D03*
X120400000Y34760000D03*
X117860000Y34760000D03*
X115320000Y34760000D03*
X112780000Y34760000D03*
D41*
X110240000Y34760000D03*
%TD*%
D33*
%TO.C,J2*%
X102510000Y156905000D03*
D34*
X105010000Y156905000D03*
%TD*%
M02*
