%TF.GenerationSoftware,KiCad,Pcbnew,(6.0.1)*%
%TF.CreationDate,2022-11-23T14:03:38+01:00*%
%TF.ProjectId,992 GT3R PCB 2,39393220-4754-4335-9220-50434220322e,rev?*%
%TF.SameCoordinates,Original*%
%TF.FileFunction,Soldermask,Top*%
%TF.FilePolarity,Negative*%
%FSLAX46Y46*%
G04 Gerber Fmt 4.6, Leading zero omitted, Abs format (unit mm)*
G04 Created by KiCad (PCBNEW (6.0.1)) date 2022-11-23 14:03:38*
%MOMM*%
%LPD*%
G01*
G04 APERTURE LIST*
G04 Aperture macros list*
%AMRoundRect*
0 Rectangle with rounded corners*
0 $1 Rounding radius*
0 $2 $3 $4 $5 $6 $7 $8 $9 X,Y pos of 4 corners*
0 Add a 4 corners polygon primitive as box body*
4,1,4,$2,$3,$4,$5,$6,$7,$8,$9,$2,$3,0*
0 Add four circle primitives for the rounded corners*
1,1,$1+$1,$2,$3*
1,1,$1+$1,$4,$5*
1,1,$1+$1,$6,$7*
1,1,$1+$1,$8,$9*
0 Add four rect primitives between the rounded corners*
20,1,$1+$1,$2,$3,$4,$5,0*
20,1,$1+$1,$4,$5,$6,$7,0*
20,1,$1+$1,$6,$7,$8,$9,0*
20,1,$1+$1,$8,$9,$2,$3,0*%
%AMHorizOval*
0 Thick line with rounded ends*
0 $1 width*
0 $2 $3 position (X,Y) of the first rounded end (center of the circle)*
0 $4 $5 position (X,Y) of the second rounded end (center of the circle)*
0 Add line between two ends*
20,1,$1,$2,$3,$4,$5,0*
0 Add two circle primitives to create the rounded ends*
1,1,$1,$2,$3*
1,1,$1,$4,$5*%
G04 Aperture macros list end*
%ADD10RoundRect,0.243750X-0.513547X-0.062026X-0.233929X-0.461363X0.513547X0.062026X0.233929X0.461363X0*%
%ADD11RoundRect,0.243750X0.290853X0.427765X-0.193887X0.479569X-0.290853X-0.427765X0.193887X-0.479569X0*%
%ADD12RoundRect,0.243750X-0.193887X-0.479569X0.290853X-0.427765X0.193887X0.479569X-0.290853X0.427765X0*%
%ADD13RoundRect,0.243750X0.385097X0.345367X-0.073003X0.512102X-0.385097X-0.345367X0.073003X-0.512102X0*%
%ADD14C,2.200000*%
%ADD15HorizOval,2.500000X0.216069X0.125755X-0.216069X-0.125755X0*%
%ADD16RoundRect,0.243750X0.277072X-0.436817X0.517128X-0.012519X-0.277072X0.436817X-0.517128X0.012519X0*%
%ADD17HorizOval,2.500000X0.027434X0.248490X-0.027434X-0.248490X0*%
%ADD18RoundRect,0.243750X-0.073003X-0.512102X0.385097X-0.345367X0.073003X0.512102X-0.385097X0.345367X0*%
%ADD19HorizOval,2.500000X0.026566X-0.248584X-0.026566X0.248584X0*%
%ADD20RoundRect,0.250000X0.250000X0.475000X-0.250000X0.475000X-0.250000X-0.475000X0.250000X-0.475000X0*%
%ADD21HorizOval,2.500000X0.216069X-0.125755X-0.216069X0.125755X0*%
%ADD22RoundRect,0.243750X0.516936X0.018836X0.271714X0.440170X-0.516936X-0.018836X-0.271714X-0.440170X0*%
%ADD23RoundRect,0.243750X-0.233929X0.461363X-0.513547X0.062026X0.233929X-0.461363X0.513547X-0.062026X0*%
%ADD24RoundRect,0.243750X0.456250X-0.243750X0.456250X0.243750X-0.456250X0.243750X-0.456250X-0.243750X0*%
%ADD25C,1.600000*%
%ADD26O,1.600000X1.600000*%
%ADD27RoundRect,0.250000X-0.250000X-0.475000X0.250000X-0.475000X0.250000X0.475000X-0.250000X0.475000X0*%
%ADD28RoundRect,0.250000X-0.600000X-0.750000X0.600000X-0.750000X0.600000X0.750000X-0.600000X0.750000X0*%
%ADD29O,1.700000X2.000000*%
%ADD30RoundRect,0.250000X-0.600000X-0.725000X0.600000X-0.725000X0.600000X0.725000X-0.600000X0.725000X0*%
%ADD31O,1.700000X1.950000*%
%ADD32RoundRect,0.250000X0.600000X0.725000X-0.600000X0.725000X-0.600000X-0.725000X0.600000X-0.725000X0*%
%ADD33O,1.600000X1.200000*%
%ADD34O,1.200000X1.200000*%
%ADD35C,1.700000*%
%ADD36R,1.700000X1.700000*%
G04 APERTURE END LIST*
D10*
%TO.C,D33*%
X131242272Y58547955D03*
X132317728Y57012045D03*
%TD*%
D11*
%TO.C,D18*%
X214674692Y62530377D03*
X212810308Y62729623D03*
%TD*%
D12*
%TO.C,D11*%
X77798325Y101803114D03*
X79662709Y102002360D03*
%TD*%
D13*
%TO.C,D48*%
X107255000Y136213712D03*
X105493076Y136855000D03*
%TD*%
D14*
%TO.C,H4*%
X194260000Y67320000D03*
%TD*%
D15*
%TO.C,SW11*%
X250433435Y170037749D03*
X239630000Y163750000D03*
X252948535Y165716375D03*
X242145100Y159428626D03*
%TD*%
D12*
%TO.C,D14*%
X84987808Y82460377D03*
X86852192Y82659623D03*
%TD*%
D14*
%TO.C,H5*%
X265210000Y185510000D03*
%TD*%
D16*
%TO.C,D4*%
X42088353Y170804042D03*
X43011647Y172435958D03*
%TD*%
D17*
%TO.C,SW9*%
X214800938Y118446592D03*
X213429259Y106022080D03*
X219770743Y117897920D03*
X218399064Y105473408D03*
%TD*%
D18*
%TO.C,D46*%
X189324038Y136359356D03*
X191085962Y137000644D03*
%TD*%
D12*
%TO.C,D15*%
X82047808Y62680377D03*
X83912192Y62879623D03*
%TD*%
D19*
%TO.C,SW6*%
X87549996Y66481048D03*
X86221695Y78910272D03*
X81250005Y78378952D03*
X82578306Y65949727D03*
%TD*%
D20*
%TO.C,C2*%
X183705000Y154630000D03*
X181805000Y154630000D03*
%TD*%
D18*
%TO.C,D34*%
X135349038Y71559356D03*
X137110962Y72200644D03*
%TD*%
D21*
%TO.C,SW3*%
X74349267Y154256813D03*
X63545832Y160544562D03*
X71834167Y149935439D03*
X61030732Y156223188D03*
%TD*%
D22*
%TO.C,D30*%
X256841581Y166639742D03*
X255898419Y168260258D03*
%TD*%
%TO.C,D29*%
X254448503Y170731917D03*
X253505341Y172352433D03*
%TD*%
D23*
%TO.C,D49*%
X111467728Y123472955D03*
X110392272Y121937045D03*
%TD*%
D18*
%TO.C,D39*%
X182849038Y71859356D03*
X184610962Y72500644D03*
%TD*%
D16*
%TO.C,D6*%
X59561436Y161136180D03*
X60484730Y162768096D03*
%TD*%
D22*
%TO.C,D28*%
X239281581Y157039742D03*
X238338419Y158660258D03*
%TD*%
D24*
%TO.C,D35*%
X124705000Y78905000D03*
X124705000Y80780000D03*
%TD*%
D19*
%TO.C,SW5*%
X84011695Y98750272D03*
X85339996Y86321048D03*
X79040005Y98218952D03*
X80368306Y85789727D03*
%TD*%
D16*
%TO.C,D5*%
X57316706Y157078084D03*
X58240000Y158710000D03*
%TD*%
D14*
%TO.C,H1*%
X31430000Y185510000D03*
%TD*%
D12*
%TO.C,D13*%
X79867808Y81910377D03*
X81732192Y82109623D03*
%TD*%
D25*
%TO.C,R3*%
X178550000Y47255000D03*
D26*
X188710000Y47255000D03*
%TD*%
D10*
%TO.C,D38*%
X179117272Y58897955D03*
X180192728Y57362045D03*
%TD*%
D16*
%TO.C,D2*%
X24768353Y180464042D03*
X25691647Y182095958D03*
%TD*%
D23*
%TO.C,D44*%
X171705456Y123465910D03*
X170630000Y121930000D03*
%TD*%
D11*
%TO.C,D24*%
X221192192Y120780377D03*
X219327808Y120979623D03*
%TD*%
D16*
%TO.C,D3*%
X39706706Y166618084D03*
X40630000Y168250000D03*
%TD*%
D12*
%TO.C,D16*%
X87037808Y63150377D03*
X88902192Y63349623D03*
%TD*%
D14*
%TO.C,H6*%
X211840000Y154900000D03*
%TD*%
D22*
%TO.C,D27*%
X236791581Y161199742D03*
X235848419Y162820258D03*
%TD*%
D10*
%TO.C,D45*%
X185380000Y123730000D03*
X186455456Y122194090D03*
%TD*%
D24*
%TO.C,D47*%
X178530000Y144155000D03*
X178530000Y146030000D03*
%TD*%
D16*
%TO.C,D1*%
X22418353Y176264042D03*
X23341647Y177895958D03*
%TD*%
D25*
%TO.C,R1*%
X163480000Y43630000D03*
D26*
X173640000Y43630000D03*
%TD*%
D12*
%TO.C,D9*%
X75575616Y121180754D03*
X77440000Y121380000D03*
%TD*%
D22*
%TO.C,D25*%
X219451581Y151719742D03*
X218508419Y153340258D03*
%TD*%
D10*
%TO.C,D50*%
X125417272Y123747955D03*
X126492728Y122212045D03*
%TD*%
D18*
%TO.C,D51*%
X129174038Y136084356D03*
X130935962Y136725644D03*
%TD*%
D21*
%TO.C,SW2*%
X56809267Y163866813D03*
X46005832Y170154562D03*
X54294167Y159545439D03*
X43490732Y165833188D03*
%TD*%
D11*
%TO.C,D20*%
X216772192Y81770377D03*
X214907808Y81969623D03*
%TD*%
D15*
%TO.C,SW10*%
X232873435Y160494561D03*
X222070000Y154206812D03*
X224585100Y149885438D03*
X235388535Y156173187D03*
%TD*%
D13*
%TO.C,D43*%
X167535962Y136409356D03*
X165774038Y137050644D03*
%TD*%
D19*
%TO.C,SW4*%
X83149996Y106221048D03*
X81821695Y118650272D03*
X78178306Y105689727D03*
X76850005Y118118952D03*
%TD*%
D21*
%TO.C,SW1*%
X39259267Y173456813D03*
X28455832Y179744562D03*
X25940732Y175423188D03*
X36744167Y169135439D03*
%TD*%
D16*
%TO.C,D8*%
X76708862Y151816775D03*
X77632156Y153448691D03*
%TD*%
D27*
%TO.C,C4*%
X185855000Y154630000D03*
X187755000Y154630000D03*
%TD*%
D24*
%TO.C,D40*%
X172055000Y78905000D03*
X172055000Y80780000D03*
%TD*%
D12*
%TO.C,D10*%
X80517808Y121710377D03*
X82382192Y121909623D03*
%TD*%
D23*
%TO.C,D42*%
X165005228Y58795732D03*
X163929772Y57259822D03*
%TD*%
%TO.C,D37*%
X118005000Y58497955D03*
X116929544Y56962045D03*
%TD*%
D27*
%TO.C,C3*%
X115980000Y154630000D03*
X117880000Y154630000D03*
%TD*%
D11*
%TO.C,D17*%
X209730000Y63040000D03*
X207865616Y63239246D03*
%TD*%
D22*
%TO.C,D31*%
X271451581Y180719742D03*
X270508419Y182340258D03*
%TD*%
D11*
%TO.C,D23*%
X216132192Y121380377D03*
X214267808Y121579623D03*
%TD*%
%TO.C,D19*%
X211722192Y82310377D03*
X209857808Y82509623D03*
%TD*%
D13*
%TO.C,D36*%
X113910962Y71409356D03*
X112149038Y72050644D03*
%TD*%
%TO.C,D41*%
X161360962Y71809356D03*
X159599038Y72450644D03*
%TD*%
D16*
%TO.C,D7*%
X74458353Y147564042D03*
X75381647Y149195958D03*
%TD*%
D25*
%TO.C,R2*%
X178590000Y43655000D03*
D26*
X188750000Y43655000D03*
%TD*%
D17*
%TO.C,SW8*%
X211239259Y86152080D03*
X212610938Y98576592D03*
X217580743Y98027920D03*
X216209064Y85603408D03*
%TD*%
D24*
%TO.C,D52*%
X118255000Y144105000D03*
X118255000Y145980000D03*
%TD*%
D12*
%TO.C,D12*%
X82677808Y102320377D03*
X84542192Y102519623D03*
%TD*%
D22*
%TO.C,D26*%
X222061581Y147459742D03*
X221118419Y149080258D03*
%TD*%
D20*
%TO.C,C1*%
X113755000Y154630000D03*
X111855000Y154630000D03*
%TD*%
D14*
%TO.C,H2*%
X84800000Y154900000D03*
%TD*%
%TO.C,H3*%
X102380000Y67330000D03*
%TD*%
D17*
%TO.C,SW7*%
X209059259Y66272080D03*
X210430938Y78696592D03*
X214029064Y65723408D03*
X215400743Y78147920D03*
%TD*%
D11*
%TO.C,D21*%
X213912192Y102250377D03*
X212047808Y102449623D03*
%TD*%
D15*
%TO.C,SW12*%
X257210000Y173330000D03*
X268013435Y179617749D03*
X270528535Y175296375D03*
X259725100Y169008626D03*
%TD*%
D11*
%TO.C,D22*%
X218912192Y101700377D03*
X217047808Y101899623D03*
%TD*%
D22*
%TO.C,D32*%
X273996003Y176211917D03*
X273052841Y177832433D03*
%TD*%
D28*
%TO.C,J1*%
X93880000Y156905000D03*
D29*
X96380000Y156905000D03*
%TD*%
D30*
%TO.C,J5*%
X111130000Y156905000D03*
D31*
X113630000Y156905000D03*
X116130000Y156905000D03*
%TD*%
D32*
%TO.C,USBin1*%
X172670000Y34720000D03*
D31*
X170170000Y34720000D03*
X167670000Y34720000D03*
X165170000Y34720000D03*
%TD*%
D28*
%TO.C,J12*%
X100990000Y161950000D03*
D29*
X103490000Y161950000D03*
%TD*%
D30*
%TO.C,J6*%
X180980000Y156930000D03*
D31*
X183480000Y156930000D03*
X185980000Y156930000D03*
%TD*%
D33*
%TO.C,Q1*%
X173019724Y49714724D03*
D34*
X174289724Y50984724D03*
X175559724Y49714724D03*
%TD*%
D30*
%TO.C,J10*%
X169755000Y156930000D03*
D31*
X172255000Y156930000D03*
X174755000Y156930000D03*
%TD*%
D30*
%TO.C,J8*%
X133440000Y156885000D03*
D31*
X135940000Y156885000D03*
X138440000Y156885000D03*
%TD*%
D30*
%TO.C,J9*%
X158605000Y156905000D03*
D31*
X161105000Y156905000D03*
X163605000Y156905000D03*
%TD*%
D30*
%TO.C,J7*%
X122260000Y156895000D03*
D31*
X124760000Y156895000D03*
X127260000Y156895000D03*
%TD*%
D28*
%TO.C,J11*%
X193780000Y162000000D03*
D29*
X196280000Y162000000D03*
%TD*%
D28*
%TO.C,J4*%
X200880000Y156930000D03*
D29*
X203380000Y156930000D03*
%TD*%
D28*
%TO.C,J3*%
X192180000Y156930000D03*
D29*
X194680000Y156930000D03*
%TD*%
D35*
%TO.C,U1*%
X158500000Y50000000D03*
X155960000Y50000000D03*
X153420000Y50000000D03*
X150880000Y50000000D03*
X148340000Y50000000D03*
X145800000Y50000000D03*
X143260000Y50000000D03*
X140720000Y50000000D03*
X138180000Y50000000D03*
X135640000Y50000000D03*
X133100000Y50000000D03*
X130560000Y50000000D03*
X128020000Y50000000D03*
X125480000Y50000000D03*
X122940000Y50000000D03*
X120400000Y50000000D03*
X117860000Y50000000D03*
X115320000Y50000000D03*
X112780000Y50000000D03*
D36*
X110240000Y50000000D03*
D35*
X158500000Y34760000D03*
X155960000Y34760000D03*
X153420000Y34760000D03*
X150880000Y34760000D03*
X148340000Y34760000D03*
X145800000Y34760000D03*
X143260000Y34760000D03*
X140720000Y34760000D03*
X138180000Y34760000D03*
X135640000Y34760000D03*
X133100000Y34760000D03*
X130560000Y34760000D03*
X128020000Y34760000D03*
X125480000Y34760000D03*
X122940000Y34760000D03*
X120400000Y34760000D03*
X117860000Y34760000D03*
X115320000Y34760000D03*
X112780000Y34760000D03*
D36*
X110240000Y34760000D03*
%TD*%
D28*
%TO.C,J2*%
X102510000Y156905000D03*
D29*
X105010000Y156905000D03*
%TD*%
M02*
