M48
; DRILL file {KiCad (6.0.1)} date Wed Nov 23 14:03:38 2022
; FORMAT={-:-/ absolute / inch / decimal}
; #@! TF.CreationDate,2022-11-23T14:03:38+01:00
; #@! TF.GenerationSoftware,Kicad,Pcbnew,(6.0.1)
; #@! TF.FileFunction,Plated,1,2,PTH
FMAT,2
INCH
; #@! TA.AperFunction,Plated,PTH,ViaDrill
T1C0.0157
; #@! TA.AperFunction,Plated,PTH,ComponentDrill
T2C0.0276
; #@! TA.AperFunction,Plated,PTH,ComponentDrill
T3C0.0315
; #@! TA.AperFunction,Plated,PTH,ComponentDrill
T4C0.0374
; #@! TA.AperFunction,Plated,PTH,ComponentDrill
T5C0.0394
; #@! TA.AperFunction,Plated,PTH,ComponentDrill
T6C0.0472
%
G90
G05
T1
X0.7638Y-1.4409
X0.9449Y-1.2205
X1.0394Y-1.0551
X1.0866Y-1.0945
X1.2Y-1.4
X1.2Y-1.75
X1.5354Y-0.9921
X1.5748Y-1.9843
X1.622Y-1.5984
X1.7165Y-1.4331
X1.9Y-1.75
X1.9606Y-1.2283
X1.9764Y-2.2126
X2.315Y-1.9764
X2.3622Y-2.4173
X2.4016Y-1.811
X2.4567Y-1.4882
X2.65Y-2.15
X2.748Y-2.6535
X2.8031Y-3.063
X2.8189Y-1.685
X2.8425Y-2.5197
X2.8504Y-3.4724
X2.8819Y-3.8346
X2.9606Y-4.5512
X2.9685Y-3.378
X2.9685Y-4.2205
X2.9843Y-2.1024
X2.9921Y-2.3465
X3.0472Y-5.3465
X3.05Y-5.0
X3.0709Y-2.0079
X3.0787Y-2.1811
X3.0945Y-3.4803
X3.1181Y-5.7717
X3.15Y-4.0
X3.189Y-4.252
X3.2205Y-4.5039
X3.25Y-1.85
X3.25Y-2.5
X3.25Y-3.0
X3.25Y-3.25
X3.2677Y-5.0315
X3.2913Y-3.4646
X3.3543Y-5.7953
X3.378Y-4.2283
X3.3858Y-5.4961
X3.4646Y-5.0079
X3.4803Y-5.9213
X3.4882Y-6.2047
X3.5Y-1.85
X3.5512Y-5.7717
X3.7087Y-2.5039
X3.7205Y-3.9567
X3.7205Y-4.4882
X3.7323Y-6.5433
X3.748Y-2.7323
X3.75Y-3.0
X3.75Y-3.5
X3.75Y-5.0
X3.75Y-5.5
X3.7717Y-6.0787
X3.7953Y-4.2913
X3.8425Y-2.4094
X3.937Y-2.748
X3.9449Y-5.3622
X3.9528Y-6.7953
X3.9764Y-2.6063
X4.0Y-6.0
X4.1142Y-3.9567
X4.1142Y-4.1929
X4.1142Y-4.4882
X4.1181Y-6.1102
X4.1496Y-6.9921
X4.15Y-5.0
X4.1575Y-6.8189
X4.25Y-2.5
X4.25Y-6.0
X4.315Y-3.6929
X4.315Y-5.2992
X4.3228Y-6.5984
X4.3415Y-2.1811
X4.3661Y-5.7205
X4.4409Y-6.5591
X4.4567Y-5.9291
X4.5Y-3.5
X4.5Y-4.0
X4.5Y-4.5
X4.5Y-5.0
X4.5354Y-6.9921
X4.5472Y-6.5551
X4.6654Y-6.5551
X4.7047Y-2.1801
X4.7874Y-2.2835
X4.7874Y-7.0236
X5.0Y-4.0
X5.0Y-4.5
X5.0Y-5.0
X5.05Y-2.5
X5.1102Y-3.7244
X5.3307Y-5.9213
X5.4961Y-7.0236
X5.5Y-2.5
X5.5Y-3.0
X5.5Y-3.5
X5.5Y-4.0
X5.5Y-4.5
X5.5Y-5.0
X5.5Y-5.5
X5.5827Y-6.7008
X5.6142Y-6.4094
X5.7717Y-6.4094
X5.7953Y-4.2441
X5.8031Y-5.9213
X5.8189Y-6.5591
X5.9449Y-6.189
X5.95Y-3.0
X5.95Y-3.5
X5.95Y-4.5
X5.95Y-5.0
X5.95Y-5.5
X5.9528Y-6.4094
X5.9764Y-6.0709
X6.0Y-2.1
X6.0Y-2.5
X6.1339Y-6.1969
X6.1339Y-6.4094
X6.15Y-3.0
X6.15Y-3.5
X6.15Y-4.5
X6.15Y-5.0
X6.15Y-5.5
X6.2047Y-6.5591
X6.2126Y-5.9213
X6.2205Y-5.3701
X6.2441Y-6.1969
X6.25Y-2.5
X6.2598Y-6.4094
X6.3307Y-6.5354
X6.3307Y-7.0236
X6.3622Y-2.9606
X6.4094Y-6.3386
X6.4724Y-3.5039
X6.4803Y-6.3465
X6.5Y-4.0
X6.5Y-4.5
X6.5Y-5.0
X6.5276Y-4.2441
X6.6Y-2.5
X6.665Y-6.795
X6.885Y-6.795
X6.9Y-4.5
X6.9213Y-6.5748
X6.97Y-6.795
X6.97Y-6.865
X7.0Y-4.0
X7.0Y-5.0
X7.0472Y-7.0236
X7.0965Y-2.1811
X7.2126Y-3.7244
X7.2362Y-6.0236
X7.25Y-5.0
X7.25Y-5.5
X7.315Y-6.8504
X7.4537Y-2.1801
X7.5Y-2.5
X7.5Y-4.0
X7.5Y-4.5
X7.5433Y-5.8976
X7.5591Y-6.1024
X7.5591Y-6.937
X7.5748Y-6.189
X7.6Y-5.0
X7.6299Y-6.189
X7.6575Y-3.3071
X7.6575Y-3.5236
X7.6575Y-3.7402
X7.685Y-6.189
X7.7244Y-5.5
X7.7323Y-5.3465
X7.7402Y-6.189
X7.748Y-2.4409
X7.8031Y-2.6772
X7.8031Y-6.189
X7.8189Y-6.7008
X7.8661Y-6.189
X7.9528Y-4.4331
X7.9685Y-5.6693
X8.0Y-3.0
X8.0Y-3.3
X8.0Y-3.525
X8.0Y-3.75
X8.0Y-4.0
X8.0Y-5.0
X8.0157Y-6.4646
X8.0551Y-2.5354
X8.122Y-5.8465
X8.1299Y-5.7008
X8.1339Y-5.7795
X8.1811Y-6.2126
X8.189Y-5.9213
X8.2205Y-5.0157
X8.25Y-1.85
X8.25Y-2.05
X8.2992Y-4.2362
X8.3Y-5.5
X8.3228Y-5.8031
X8.3937Y-3.4803
X8.4094Y-5.0394
X8.4252Y-4.9764
X8.4882Y-1.8504
X8.4961Y-4.2598
X8.5Y-2.5
X8.5Y-4.0
X8.5Y-4.5
X8.5354Y-5.7874
X8.5748Y-2.189
X8.5827Y-3.5039
X8.5906Y-5.315
X8.6378Y-5.0236
X8.6772Y-2.3622
X8.7Y-3.0
X8.7165Y-2.0787
X8.7165Y-4.2362
X8.7795Y-3.4331
X8.8583Y-1.6693
X8.8661Y-2.8346
X9.05Y-2.1
X9.252Y-2.4803
X9.2677Y-1.8189
X9.2913Y-1.4488
X9.3543Y-1.9764
X9.4094Y-1.7087
X9.6693Y-2.252
X9.7087Y-1.2126
X9.8Y-1.7
X9.9606Y-1.4409
X10.0472Y-1.5984
X10.0945Y-2.0079
X10.2047Y-0.937
X10.4016Y-1.252
X10.45Y-1.35
X10.5669Y-1.7402
X10.622Y-1.0551
X10.7244Y-1.2126
X10.9213Y-1.4409
T2
X6.8126Y-6.3116
X6.8626Y-6.2616
X6.9126Y-6.3116
T3
X6.437Y-6.5512
X6.837Y-6.5512
X7.0303Y-6.4085
X7.0319Y-6.5502
X7.4303Y-6.4085
X7.4319Y-6.5502
T4
X4.376Y-2.0915
X4.4744Y-2.0915
X4.5728Y-2.0915
X4.8142Y-2.0919
X4.9126Y-2.0919
X5.011Y-2.0919
X5.2543Y-2.0923
X5.3528Y-2.0923
X5.4512Y-2.0923
X6.2451Y-2.0915
X6.3435Y-2.0915
X6.4419Y-2.0915
X6.5035Y-6.902
X6.602Y-6.902
X6.6841Y-2.0906
X6.7004Y-6.902
X6.7825Y-2.0906
X6.7988Y-6.902
X6.8809Y-2.0906
X7.126Y-2.0906
X7.2244Y-2.0906
X7.3228Y-2.0906
T5
X3.6969Y-2.0915
X3.7953Y-2.0915
X3.9768Y-1.8929
X4.0366Y-2.0915
X4.0752Y-1.8929
X4.135Y-2.0915
X4.3409Y-6.3004
X4.3409Y-6.9004
X4.4409Y-6.3004
X4.4409Y-6.9004
X4.5409Y-6.3004
X4.5409Y-6.9004
X4.6409Y-6.3004
X4.6409Y-6.9004
X4.7409Y-6.3004
X4.7409Y-6.9004
X4.8409Y-6.3004
X4.8409Y-6.9004
X4.9409Y-6.3004
X4.9409Y-6.9004
X5.0409Y-6.3004
X5.0409Y-6.9004
X5.1409Y-6.3004
X5.1409Y-6.9004
X5.2409Y-6.3004
X5.2409Y-6.9004
X5.3409Y-6.3004
X5.3409Y-6.9004
X5.4409Y-6.3004
X5.4409Y-6.9004
X5.5409Y-6.3004
X5.5409Y-6.9004
X5.6409Y-6.3004
X5.6409Y-6.9004
X5.7409Y-6.3004
X5.7409Y-6.9004
X5.8409Y-6.3004
X5.8409Y-6.9004
X5.9409Y-6.3004
X5.9409Y-6.9004
X6.0409Y-6.3004
X6.0409Y-6.9004
X6.1409Y-6.3004
X6.1409Y-6.9004
X6.2409Y-6.3004
X6.2409Y-6.9004
X7.5669Y-2.0906
X7.6299Y-1.8909
X7.6654Y-2.0906
X7.7283Y-1.8909
X7.9094Y-2.0906
X8.0079Y-2.0906
T6
X1.0221Y-1.3625
X1.1211Y-1.1923
X1.4474Y-1.61
X1.5464Y-1.4399
X1.713Y-1.74
X1.812Y-1.5699
X2.1384Y-1.9876
X2.2374Y-1.8174
X2.4036Y-2.1184
X2.5026Y-1.9482
X2.8289Y-2.3659
X2.9279Y-2.1958
X3.0264Y-3.6185
X3.0787Y-4.1079
X3.1126Y-4.402
X3.1649Y-4.8913
X3.1996Y-5.1831
X3.2221Y-3.5976
X3.2519Y-5.6725
X3.2744Y-4.087
X3.3083Y-4.3811
X3.3606Y-4.8704
X3.3953Y-5.1622
X3.4476Y-5.6515
X8.2315Y-5.6598
X8.2855Y-5.1706
X8.3173Y-4.8771
X8.3713Y-4.3879
X8.4035Y-4.0948
X8.4271Y-5.6814
X8.4575Y-3.6056
X8.4811Y-5.1922
X8.513Y-4.8987
X8.567Y-4.4095
X8.5992Y-4.1164
X8.6532Y-3.6272
X8.7437Y-2.1978
X8.8427Y-2.3679
X9.169Y-1.9502
X9.2681Y-2.1203
X9.435Y-1.822
X9.5341Y-1.9922
X9.8604Y-1.5745
X9.9594Y-1.7446
X10.1272Y-1.4449
X10.2262Y-1.615
X10.5525Y-1.1973
X10.6515Y-1.3675
T0
M30
